<?xml version="1.0" encoding="UTF-8"?>
<svg width="548px" height="540px" viewBox="0 0 548 540" version="1.1" xmlns="http://www.w3.org/2000/svg" xmlns:xlink="http://www.w3.org/1999/xlink">
    <!-- Generator: Sketch 49.3 (51167) - http://www.bohemiancoding.com/sketch -->
    <title>stimmy_things_landing</title>
    <desc>Created with Sketch.</desc>
    <defs>
        <rect id="path-1" x="0" y="0" width="548" height="540"></rect>
        <linearGradient x1="0%" y1="0%" x2="100%" y2="100%" id="linearGradient-3">
            <stop stop-color="#45AFD7" offset="0%"></stop>
            <stop stop-color="#BEF8E2" offset="52.9829208%"></stop>
            <stop stop-color="#D98480" offset="100%"></stop>
        </linearGradient>
        <path d="M455.279297,6.82121026e-13 C484.5575,6.82121026e-13 597.7,7.84302414e-13 597.7,7.84302414e-13 L597.7,142.420703 L597.7,455.279297 C597.7,541.665625 541.665625,597.7 455.279297,597.7 L142.420703,597.7 C56.034375,597.7 0,541.665625 0,455.279297 L0,142.420703 L0,7.85624585e-13 C0,7.85624585e-13 96.9339018,6.82121026e-13 142.420703,6.82121026e-13 L455.279297,6.82121026e-13 Z" id="path-4"></path>
        <filter x="-2.3%" y="-1.7%" width="104.7%" height="104.7%" filterUnits="objectBoundingBox" id="filter-6">
            <feOffset dx="0" dy="4" in="SourceAlpha" result="shadowOffsetOuter1"></feOffset>
            <feGaussianBlur stdDeviation="4" in="shadowOffsetOuter1" result="shadowBlurOuter1"></feGaussianBlur>
            <feComposite in="shadowBlurOuter1" in2="SourceAlpha" operator="out" result="shadowBlurOuter1"></feComposite>
            <feColorMatrix values="0 0 0 0 0.0470588235   0 0 0 0 0   0 0 0 0 0.2  0 0 0 0.1 0" type="matrix" in="shadowBlurOuter1"></feColorMatrix>
        </filter>
        <path d="M7.21301286,97.8738694 C42.0570213,99.172129 41.5549855,100.710807 77.2612294,95.3748299 C92.0539278,93.1641943 105.526145,87.3988056 117.996083,78.7625705 C129.365965,70.8881945 140.54499,62.4547756 150.124456,52.39135 C190.732377,9.73189542 78.8322371,-2.53239651 57.7631442,0.415563493 C33.1546042,3.85875832 16.2780907,26.3670047 6.31469343,48.214989 C-2.37211601,67.2636399 0.342927638,72.5406621 0.606018374,94.201552 L7.21301286,97.8738694 Z" id="path-7"></path>
        <path d="M28.3596771,312.174364 C17.2733882,305.086832 9.80015686,292.848095 9.28021292,278.810511 C9.0237265,271.885822 -0.909270985,165.442368 0.473631281,91.1696598 C1.15024472,54.8302063 7.29866576,26.3096403 13.2616759,20.6863691 C20.1202391,14.2185684 24.7859756,9.08123257 39.1999004,5.34904257 C58.2239955,0.423143609 98.8019597,0.747198394 120.775977,0.421890571 C156.498397,-0.106951411 179.812861,0.793883776 192.686038,0.421890571 C219.477662,-0.352300843 245.0654,10.1626301 255.590192,20.6863691 C279.291774,44.3855803 273.061888,68.340991 273.060086,73.1054888 C273.053968,89.2721169 274.21266,121.078273 273.060086,154.561839 C270.942176,216.089437 265.897394,285.42663 265.929164,288.953259 C266.033075,300.487994 260.767226,310.817591 252.467645,317.559625 L252.467645,342.799322 L236.519621,357.953782 C209.211899,361.639518 185.727681,363.329976 166.066968,363.025156 C146.406255,362.720337 115.373539,360.18465 72.9688193,355.418095 L29.361384,348.963809 L26.6190695,312.167191 L28.3596771,312.174364 Z" id="path-9"></path>
    </defs>
    <g id="assets" stroke="none" stroke-width="1" fill="none" fill-rule="evenodd">
        <g id="Rectangle-9-+-MAC-Mask">
            <mask id="mask-2" fill="white">
                <use xlink:href="#path-1"></use>
            </mask>
            <use id="Mask" fill="#959595" xlink:href="#path-1"></use>
            <g id="charachters" mask="url(#mask-2)">
                <g transform="translate(-26.000000, -17.100000)">
                    <mask id="mask-5" fill="white">
                        <use xlink:href="#path-4"></use>
                    </mask>
                    <g id="background" stroke="none" fill="none">
                        <use fill="black" fill-opacity="1" filter="url(#filter-6)" xlink:href="#path-4"></use>
                        <use fill-opacity="0.66" fill="url(#linearGradient-3)" fill-rule="evenodd" xlink:href="#path-4"></use>
                    </g>
                    <g id="inside" stroke="none" stroke-width="1" fill="none" fill-rule="evenodd" mask="url(#mask-5)">
                        <g transform="translate(-914.874135, -709.150827)" id="charachters">
                            <g>
                                <g id="avatar_1" transform="translate(1729.756321, 1450.254859) rotate(-45.000000) translate(-1729.756321, -1450.254859) translate(1358.756321, 848.254859)">
                                    <path d="M305.145809,76.6655147 C310.649286,44.0368756 329.824225,39.4657571 362.98413,38.4113087 C388.059184,37.6139496 413.157476,37.5085508 438.244346,37.7231721 C450.975198,37.832086 467.640458,37.7380939 478.635378,46.2045618 C491.425668,56.0535267 490.598753,88.820046 490.790779,98.9574834 C491.271484,124.334858 491.500414,229.687741 487.71807,266.229572 C487.371049,269.5822 476.876649,273.000701 475.788396,273.300914 C459.363064,277.832122 454.875078,278.215419 437.980528,278.718759 C389.220408,280.171471 383.605596,279.375717 327.286809,275.466645 C319.74245,274.942993 310.136906,271.019742 305.498507,264.995429 C301.26236,259.493556 301.048594,255.819678 301.058738,248.42386 C301.141126,188.358528 296.928247,125.010843 308.335614,65.157168" id="hair" fill="#6471E8"></path>
                                    <g id="upper" transform="translate(371.090854, 605.799068) rotate(-345.000000) translate(-371.090854, -605.799068) translate(129.590854, 75.799068)">
                                        <g id="top" transform="translate(226.111112, 407.963106) rotate(-15.000000) translate(-226.111112, -407.963106) translate(56.111112, 168.963106)">
                                            <path d="M257.478756,25.2102486 C269.501167,35.3852546 288.229269,221.148609 296.224112,351.183243 C296.224112,351.183243 296.224112,351.183243 296.224112,351.183243 L296.224112,351.183243 C297.961842,379.447095 276.458171,403.768183 248.194319,405.505913 C246.552768,405.60684 244.907312,405.628725 243.263658,405.571494 L60.0907877,399.193443 C51.2595834,398.885943 44.3497555,391.47756 44.6572551,382.646356 C44.6743603,382.155106 44.7140944,381.664905 44.7763311,381.177313 C60.6482458,256.829189 68.4457727,191.491727 68.1689118,185.164929 C67.7687126,176.019614 57.8364492,46.4743124 76.8528497,31.295481 C108.940502,5.68321734 246.451898,15.8778154 257.478756,25.2102486 Z" id="shirt" fill="#FEFEFE"></path>
                                            <path d="M47.773675,357.721406 L7.67421393,357.721406 C4.92834248,311.414277 2.76531636,283.842402 1.18513558,275.005782 C-0.395045194,266.169161 -0.395045194,252.166691 1.18513558,232.99837 C22.6220664,134.601813 35.7632048,78.1588655 40.6085509,63.6695272 C45.4538971,49.180189 61.0089051,36.3325615 87.273575,25.1266448 L87.2671137,25.4814726 C99.6399629,20.4367921 117.595667,17.5234651 137.269429,16.1303949 C142.462647,15.7626708 142.471971,42.0157688 145.890155,47.8125404 C158.458754,69.1271601 151.745134,187.016197 125.749295,401.47965 C120.075998,413.951497 116.104957,422.284933 113.83617,426.479957 C111.321494,431.129636 105.361942,434.527883 95.9575128,436.674698 L43.4196891,407.275912 L44.6761835,395.82439 C43.8665989,394.641646 43.4139513,393.198722 43.4675586,391.65587 C44.9747391,379.79892 46.40966,368.492995 47.773675,357.721406 Z" id="Combined-Shape" fill="#E0AAAA"></path>
                                            <path d="M143.633933,0 C140.37748,7.56400473 139.242327,13.5109364 140.228474,17.840795 C141.214622,22.1706537 146.606598,34.9140787 156.404403,56.0710701 C159.753282,143.477264 159.753282,208.043951 156.404403,249.77113 C153.055523,291.49831 142.555359,357.76412 124.903911,448.568561 L95.9575128,436.674698 C105.361942,434.527883 111.321494,431.129636 113.83617,426.479957 C116.350846,421.830279 120.040093,407.38773 124.903911,383.152312 L149.593485,67.9649335 C137.874615,52.3672378 131.631275,40.1901872 130.863463,31.4337817 C130.095652,22.6773762 134.352475,12.199449 143.633933,0 Z" id="Path-31" fill="#F67089"></path>
                                        </g>
                                        <g id="body_change_colour" transform="translate(63.691543, 0.133643)" fill="#E8E8E8">
                                            <path d="M11.9950073,127.28658 C7.38516182,127.453881 2.59853668,122.866218 0.830451314,116.256939 C-1.07932944,109.117989 1.23821307,102.257945 6.01530708,100.676537 C4.63085929,94.5584573 3.12210924,88.0454699 1.80596845,81.0284601 C0.764961539,75.4783276 38.6416903,55.2453479 76.6232416,40.1213264 C79.1504849,39.1149936 82.98776,1.41766962 85.5048819,0.461705235 C88.2220044,-0.570216319 97.1093726,34.3829614 99.7651389,33.9087758 C115.396513,31.1178025 132.263395,16.3093949 134.477985,24.58995 C136.692575,32.8705051 161.787542,84.8748389 161.787542,115.829764 C161.787542,141.703342 146.507293,159.076185 124.537435,168.632555 L130.501957,194.509608 C132.301245,202.315816 127.441915,210.104974 119.648339,211.907179 L99.2185036,216.631423 C91.4249272,218.433628 83.6483734,213.566422 81.8490845,205.760214 L75.3711513,177.655725 C75.362387,177.617702 75.3537807,177.579678 75.345332,177.541656 C38.3385819,176.914919 20.9053982,158.470439 11.9950073,127.28658 Z" id="head"></path>
                                        </g>
                                        <g id="face" transform="translate(123.311917, 64.633500)">
                                            <path d="M41.9540317,27.3835459 C47.5388128,57.6950897 50.0284613,43.7704636 36.7107236,47.6644887 C35.7652644,47.9409352 37.899724,49.2120547 38.4942242,49.9858377" id="Path-2" stroke="#55383C" stroke-width="0.5"></path>
                                            <path d="M46.0248704,56.940389 C32.4613974,64.2751752 39.5737017,62.8959867 24.7492228,61.4089878" id="Path-3" stroke="#CC5C61" stroke-width="0.5"></path>
                                            <g id="eyes" fill="#55383C">
                                                <ellipse id="eye" cx="58.1823834" cy="5.2159135" rx="5.21036269" ry="5.2159135"></ellipse>
                                                <ellipse id="eye" cx="5.21036269" cy="18.6903567" rx="5.21036269" ry="5.2159135"></ellipse>
                                            </g>
                                        </g>
                                    </g>
                                    <path d="M380.257286,177.852685 C366.795196,177.852685 355.882016,167.028287 355.882016,153.675714 C355.882016,140.323142 366.795196,129.498744 380.257286,129.498744 C393.719376,129.498744 404.632556,140.323142 404.632556,153.675714 C404.632556,167.028287 393.719376,177.852685 380.257286,177.852685 Z M404.634517,153.675714 C404.704248,149.841337 406.625462,146.768008 408.985283,146.768008 C411.345104,146.768008 413.266319,149.841337 413.33605,153.675714 M437.71328,177.852685 C424.25119,177.852685 413.33801,167.028287 413.33801,153.675714 C413.33801,140.323142 424.25119,129.498744 437.71328,129.498744 C451.17537,129.498744 462.088551,140.323142 462.088551,153.675714 C462.088551,167.028287 451.17537,177.852685 437.71328,177.852685 Z" id="glasses" stroke="#8F8DC2"></path>
                                    <g id="hat" transform="translate(370.272165, 61.048878) rotate(-8.000000) translate(-370.272165, -61.048878) translate(290.772165, 11.048878)">
                                        <mask id="mask-8" fill="white">
                                            <use xlink:href="#path-7"></use>
                                        </mask>
                                        <use id="Mask" fill="#8F8DC2" xlink:href="#path-7"></use>
                                        <path d="M0,39.768317 C26.742182,31.7700799 52.77393,20.6382436 80.2265461,15.7736058 C96.7264911,12.8497949 113.715944,17.0941124 130.455919,16.6513656 C136.323312,16.4961821 142.065308,14.8734817 147.870003,13.9845397" id="Path-7" stroke="#504D6B" mask="url(#mask-8)"></path>
                                        <path d="M0,57.0865921 C29.8159961,49.088355 58.839899,37.9565186 89.4479882,33.0918808 C107.844479,30.16807 126.786743,34.4123874 145.450852,33.9696407 C151.992658,33.8144571 158.394654,32.1917567 164.866555,31.3028147" id="Path-7" stroke="#504D6B" mask="url(#mask-8)"></path>
                                        <path d="M0,76.21609 C29.8159961,68.2178529 58.839899,57.0860165 89.4479882,52.2213787 C107.844479,49.2975679 126.786743,53.5418853 145.450852,53.0991386 C151.992658,52.943955 158.394654,51.3212546 164.866555,50.4323126" id="Path-7" stroke="#504D6B" mask="url(#mask-8)"></path>
                                        <path d="M0,98.8236784 C29.8159961,90.8254413 58.839899,79.6936049 89.4479882,74.8289671 C107.844479,71.9051563 126.786743,76.1494738 145.450852,75.706727 C151.992658,75.5515434 158.394654,73.928843 164.866555,73.039901" id="Path-7" stroke="#504D6B" mask="url(#mask-8)"></path>
                                        <path d="M-8.49827603,20.5666416 C21.31772,12.5684045 50.3416229,1.43656811 80.9497122,-3.42806969 C99.3462026,-6.35188051 118.288467,-2.10756307 136.952576,-2.55030981 C143.494382,-2.7054934 149.896378,-4.3281938 156.368279,-5.21713579" id="Path-7" stroke="#504D6B" mask="url(#mask-8)"></path>
                                    </g>
                                </g>
                                <g id="charachter_5" transform="translate(1215.664252, 595.572830) scale(-1, 1) rotate(-180.000000) translate(-1215.664252, -595.572830) translate(997.664252, 194.572830)">
                                    <g id="body_change_colour" transform="translate(28.784867, 24.176971)" fill="#30A1D2">
                                        <path d="M268.165783,290.605928 C261.992166,280.438957 256.302933,269.707154 251.098085,258.410519 C247.148431,249.838167 268.224221,227.657032 271.579323,170.296768 C272.290154,158.144092 266.600921,133.856327 254.511624,97.4334744 C254.593428,81.7398018 254.593428,70.1607512 254.511624,62.6963227 C254.403122,52.7956837 256.277897,40.3167243 254.511624,33.0426566 C250.747873,17.542338 240.791715,6.52811917 224.643152,0 C221.308265,1.32458599 219.317033,2.45424946 218.669458,3.38899042 C216.946383,5.87615798 216.624175,10.8602828 216.962688,12.7087141 C217.280978,14.4467178 218.856381,17.6532033 222.082997,21.1811901 C223.509363,22.74078 226.922902,24.7176911 232.323616,27.1119233 C238.00028,37.4535959 240.560435,46.4909037 240.004081,54.2238466 C239.447727,61.9567896 235.465264,72.6885926 228.056692,86.4192556 C210.984641,85.3670726 198.183868,81.6956664 189.654371,75.4050367 C181.124874,69.1144071 174.013333,58.1001883 168.319748,42.3623802 C163.727563,28.9843416 158.322792,19.9470338 152.105434,15.2504569 C145.888077,10.5538799 138.207612,9.7066323 129.064041,12.7087141 C124.65654,16.1042727 122.665309,18.6460155 123.090347,20.3339425 C123.328136,21.278256 124.217314,25.4196854 126.503887,27.9591709 C127.704283,29.2923409 130.264438,30.9868361 134.184351,33.0426566 C147.546962,41.0515504 155.79635,48.1119471 158.932514,54.2238466 C162.068677,60.3357462 161.499754,68.2433905 157.225744,77.9467796 C153.786249,85.936181 149.803786,92.4317459 145.278355,97.4334744 C133.687858,110.24386 113.584741,126.124283 108.582803,135.559617 C100.651407,150.520893 99.7980219,163.512023 106.022649,174.533006 C97.2096033,181.116307 92.9426787,185.070129 93.2218749,186.394473 C93.3534533,187.018604 92.741871,193.734798 95.7820297,197.408692 C97.0574656,198.949998 102.419046,199.836564 106.022649,202.492177 C107.903228,203.878038 110.463383,206.702197 113.703113,210.964653 C114.891485,227.180157 116.882716,237.91196 119.676807,243.160062 C122.470899,248.408165 131.004748,258.29272 145.278355,272.813728 L145.278355,304.16189 L268.165783,290.605928 Z" id="head"></path>
                                    </g>
                                    <g id="right_arm" transform="translate(52.970347, 422.858193) scale(-1, 1) translate(-52.970347, -422.858193) translate(0.970347, 253.858193)"></g>
                                    <g id="head-whole" transform="translate(158.073614, 125.720248)">
                                        <path d="M77.1360078,107.14634 C53.9370095,118.554953 36.3499196,122.964419 16.0296016,105.730085" id="mouth" stroke="#CC5C61" stroke-width="2"></path>
                                        <g id="eyes">
                                            <g id="left_eye" transform="translate(43.784935, 36.708133)">
                                                <ellipse id="Oval-11" fill="#FFFFFF" cx="19.3664136" cy="19.1883423" rx="19.3664136" ry="19.1883423"></ellipse>
                                                <ellipse id="eye" fill="#27221B" cx="19.6470863" cy="20.2840694" rx="7.57816186" ry="8.19558399"></ellipse>
                                            </g>
                                            <g id="right_eye" transform="translate(0.000000, 30.033927)">
                                                <ellipse id="Oval-11" fill="#FFFFFF" cx="14.3143057" cy="14.1826878" rx="14.3143057" ry="14.1826878"></ellipse>
                                                <ellipse id="eye" fill="#27221B" cx="13.1354806" cy="13.6274343" rx="5.89412589" ry="6.3743431"></ellipse>
                                            </g>
                                            <g id="top-eye" transform="translate(33.680719, 0.000000)">
                                                <ellipse id="Oval-11" fill="#FFFFFF" cx="10.9462338" cy="10.8455848" rx="10.9462338" ry="10.8455848"></ellipse>
                                                <ellipse id="eye" fill="#27221B" cx="10.2275433" cy="10.6753244" rx="5.39997354" ry="5.83993025"></ellipse>
                                            </g>
                                        </g>
                                    </g>
                                    <ellipse id="air_bubble" fill="#DCEBF0" opacity="0.37035779" cx="229.280268" cy="176.491886" rx="177.413189" ry="176.491886"></ellipse>
                                </g>
                                <g id="charachter" transform="translate(1678.730142, 735.574537) scale(-1, 1) rotate(-240.000000) translate(-1678.730142, -735.574537) translate(1464.730142, 246.074537)">
                                    <g id="body_change_colour" transform="translate(18.468489, 78.618293)" fill="#B1D159">
                                        <path d="M276.256128,82.963233 L276.256128,200.900357 C276.256128,246.69628 239.320814,283.821211 193.758796,283.821211 C148.196777,283.821211 111.261463,246.69628 111.261463,200.900357 L111.261463,82.963233 C111.261463,37.4012143 148.196777,0.465900337 193.758796,0.465900337 L193.758796,0.465900337 C239.320814,0.465900337 276.256128,37.4012143 276.256128,82.963233 Z" id="head"></path>
                                    </g>
                                    <g id="top_body" transform="translate(85.416761, 0.000000)">
                                        <g id="eye-whole" transform="translate(82.723439, 135.478531)">
                                            <ellipse id="Oval" fill="#FFFFFF" cx="45.2393809" cy="45.2489495" rx="44.6381931" ry="44.9322464"></ellipse>
                                            <ellipse id="eye" fill="#27221B" cx="47.2233006" cy="44.2504551" rx="10.9115583" ry="11.9819324"></ellipse>
                                        </g>
                                        <g id="right_ear" transform="translate(67.276386, 86.915684) scale(-1, 1) translate(-67.276386, -86.915684) translate(45.276386, 55.915684)">
                                            <polygon id="Path-10" fill="#B1D159" points="0.80826358 39.4654898 17.7817988 23.214994 26.6726981 27.8579928 17.7817988 61.1328175"></polygon>
                                            <ellipse id="Oval-2" fill="#A0BE53" cx="27.4809617" cy="15.4766627" rx="16.1652716" ry="15.4766627"></ellipse>
                                        </g>
                                        <g id="left_ear" transform="translate(168.633174, 55.915684)">
                                            <polygon id="Path-10" fill="#B1D159" points="0.80826358 39.4654898 17.7817988 23.214994 26.6726981 27.8579928 17.7817988 61.1328175"></polygon>
                                            <ellipse id="Oval-2" fill="#A0BE53" cx="27.4809617" cy="15.4766627" rx="16.1652716" ry="15.4766627"></ellipse>
                                        </g>
                                        <path d="M253.941721,100 L253.941721,310.770167 C253.941721,381.775956 197.09493,439.337521 126.97086,439.337521 C56.8467906,439.337521 0,381.775956 0,310.770167 L1.42108547e-14,100 C7.4473172e-15,44.771525 44.771525,1.01453063e-14 100,0 L153.941721,0 C209.170196,-1.01453063e-14 253.941721,44.771525 253.941721,100 Z" id="head_bubble" fill="#DCEBF0" opacity="0.455785779"></path>
                                        <path d="M132.92262,257.640704 C160.092554,270.554095 173.740438,249.826655 174.584933,225.659727" id="mouth" stroke="#CC5C61" stroke-width="2"></path>
                                    </g>
                                    <g id="shirt" transform="translate(0.000000, 284.413237)" fill="#163A4D">
                                        <path d="M71.4468792,139.325743 C94.2636825,166.889347 110.242836,188.119936 119.384339,203.017511 C128.525842,217.915087 143.506298,249.097515 164.325708,296.564796 C184.521582,302.535899 199.834937,305.521451 210.265773,305.521451 C220.696609,305.521451 240.670551,302.535899 270.187598,296.564796 C298.95687,254.134656 319.263711,220.630133 331.10812,196.051224 C342.952529,171.472316 354.936894,137.967792 367.061215,95.5376524 C358.525403,66.7773667 350.202927,47.537145 342.093788,37.8169874 C333.984649,28.0968298 319.337092,19.8036308 298.151116,12.9373904 C262.422437,22.1996372 236.123414,26.1803727 219.254047,24.879597 C202.38468,23.5788213 172.756666,15.2856223 130.370007,0 L130.370007,24.879597 C82.6967288,15.7964898 48.4081291,11.8157543 27.5042076,12.9373904 C6.60028615,14.0590266 -2.38798757,20.3618578 0.539386455,31.8458841 L71.4468792,139.325743 Z"></path>
                                    </g>
                                    <g id="right_arm" transform="translate(0.000000, 294.652033)">
                                        <ellipse id="Oval-4" fill="#FBA945" cx="64.09652" cy="70.8695875" rx="64.09652" ry="63.8748196"></ellipse>
                                        <path d="M135.203597,68.8734994 C135.203597,33.5964106 109.511132,0.0084594886 74.1116012,0.0084594886 C38.7120707,0.0084594886 0,5.65117703 0,40.9282658 C0,76.2053545 135.203597,104.150588 135.203597,68.8734994 Z" id="Oval-4" fill="#FAC859"></path>
                                    </g>
                                    <path d="M294.800859,291.350145 C254.773024,387.745599 222.405021,457.158718 197.696852,499.589501 C172.988682,542.020285 154.492681,559.954775 142.208848,553.392971 C141.827423,550.085689 141.827423,547.760847 142.208848,546.418447 C142.590272,545.076048 144.241701,540.426365 147.163134,532.4694 L131.309418,497.59678 C122.503663,534.309107 120.191663,557.88964 124.373418,568.33838 C128.555173,578.787119 141.766602,582.440441 164.007706,579.298346 C210.687263,539.862724 241.734122,505.986465 257.148285,477.669569 C272.562447,449.352673 293.040163,388.57468 318.581432,295.335588 L294.800859,291.350145 Z" id="band_across_body" fill="#F9F082"></path>
                                </g>
                                <g id="avatar_2" transform="translate(933.367146, 1069.602079)">
                                    <g id="body_change_colour" transform="translate(130.646895, 46.993143)" fill="#885B3E">
                                        <path d="M225.293608,119.241901 C218.383898,152.245117 197.03327,178.446523 169.693407,187.784288 C169.909015,189.047407 170.021328,190.345834 170.021328,191.670535 L170.021328,211.799498 C170.021328,222.160376 161.635768,230.559527 151.291655,230.559527 C149.90205,230.559527 148.516761,230.40463 147.161365,230.097696 C133.793525,227.070504 124.301403,215.173511 124.301403,201.446066 L124.301403,191.670535 C124.301403,190.254557 124.429726,188.8686 124.67536,187.523694 C97.6785433,177.960552 76.6450543,151.911302 69.8117259,119.181991 C68.9790183,119.322477 68.1234797,119.395614 67.2508868,119.395614 C58.7974861,119.395614 51.9446508,112.531672 51.9446508,104.06457 C51.9446508,95.5974683 58.7974861,88.7335262 67.2508868,88.7335262 C67.3959811,88.7335262 67.5406038,88.7355484 67.6847285,88.739566 C70.8412592,39.5071586 105.396251,0.729352775 147.55893,0.729352775 C189.719896,0.729352775 224.273795,39.5040098 227.432747,88.7335693 L227.469408,88.7335262 C235.922809,88.7335262 242.775644,95.5974683 242.775644,104.06457 C242.775644,112.531672 235.922809,119.395614 227.469408,119.395614 C226.730753,119.395614 226.004318,119.343206 225.293608,119.241901 Z" id="head"></path>
                                    </g>
                                    <g id="face" transform="translate(181.677147, 0.000000)">
                                        <path d="M79.1153494,193.102887 C84.1304319,195.148149 87.973556,196.342775 90.6447219,196.686768 C93.3158878,197.03076 98.7492703,197.03076 106.944869,196.686768" id="Path-27" stroke="#CC5C61"></path>
                                        <g id="eyes" transform="translate(62.758407, 136.447934)" fill="#27221B">
                                            <ellipse id="eye" cx="69.6305947" cy="6.11086243" rx="5.56590398" ry="5.97313394"></ellipse>
                                            <ellipse id="eye" cx="6.41782806" cy="6.11086243" rx="5.56590398" ry="5.97313394"></ellipse>
                                        </g>
                                        <path d="M13.4873471,81.6624125 C-4.94011833,58.8695056 -4.43015948,24.4600479 18.3258652,6.00271589 C33.5637414,-6.3566723 47.0192632,2.07878775 59.7797756,15.8452435 C56.5275911,7.62853143 80.610247,19.8243696 87.8319216,13.9668945 C100.7489,3.48997848 123.204999,13.2834953 133.664961,26.2214091 C140.339712,34.4773993 135.518601,28.2614377 138.03375,26.2214091 C147.84538,18.2632303 153.038501,24.0498085 160.983802,33.877341 C165.014489,38.8628922 169.205513,24.683535 173.308304,29.8952517 C175.264994,23.2318081 187.532154,33.877341 194.776791,33.877341 C207.402,33.877341 215.052584,48.7080858 215.052584,61.3537571 C215.052584,61.8527163 215.045315,62.3445382 215.030576,62.8290092 C214.298624,83.9282316 212.575845,100.785743 210.281809,113.519127 C209.41932,118.306502 208.225467,123.901991 206.700249,130.305594 C206.703728,133.442427 205.982262,136.073963 204.715353,138.360411 C202.459165,147.246132 199.676397,157.416051 196.367049,168.870168 C195.649209,163.371214 194.456515,158.924548 192.788968,155.530169 C191.383695,152.669663 188.62161,149.250381 184.502713,145.272324 C178.85281,142.828815 174.898562,137.197994 174.898562,130.642111 C174.898562,126.456307 176.510541,122.64761 179.146629,119.804845 C168.774656,117.635171 160.983802,108.424718 160.983802,97.3916652 C160.983802,89.3669789 165.10525,82.3064684 171.343614,78.217913 C152.928373,82.5590459 129.501657,86.2719694 122.420039,92.0158447 C107.865667,103.820845 78.342521,105.756599 51.6535458,99.5522324 C51.0608075,102.247879 47.17959,105.348252 46.8827709,109.138829 C46.1628743,118.332387 39.8018412,133.832953 40.5217378,153.310438 C35.7010469,129.911485 39.4116496,115.207336 38.9314796,111.528082 C38.5472863,108.58424 38.4704934,103.662018 38.701101,96.7614154 C27.787353,93.1750183 18.6795188,88.0846027 13.4873471,81.6624125 Z" id="Combined-Shape" fill="#27221B" transform="translate(107.725074, 84.435084) scale(-1, 1) translate(-107.725074, -84.435084) "></path>
                                        <path d="M77.2411164,169.238795 C87.2515317,172.199467 94.4928864,173.408316 98.9651804,172.865341 C103.045817,172.369916 108.07708,171.296619 112.240997,169.238795 C114.922432,167.91362 117.279952,163.40628 115.861675,161.985704 C114.261829,160.383265 111.633994,159.581833 108.62032,152.314916 C107.598161,149.850168 106.391268,145.014774 104.999643,137.808733" id="Path-5" stroke="#363636"></path>
                                    </g>
                                </g>
                                <g id="character_2" transform="translate(667.294576, 1385.526837) rotate(-315.000000) translate(-667.294576, -1385.526837) translate(323.794576, 786.026837)">
                                    <g id="upper" transform="translate(343.355273, 689.508257) rotate(-345.000000) translate(-343.355273, -689.508257) translate(105.855273, 251.508257)">
                                        <g id="top" transform="translate(218.236756, 222.350360) rotate(-15.000000) translate(-218.236756, -222.350360) translate(41.736756, 40.350360)">
                                            <g id="shirt" transform="translate(40.575895, 0.000000)">
                                                <mask id="mask-10" fill="white">
                                                    <use xlink:href="#path-9"></use>
                                                </mask>
                                                <use id="Mask" fill="#163747" xlink:href="#path-9"></use>
                                                <path d="M213.192929,363.50049 C214.349845,358.290738 214.912813,353.966607 214.881832,350.528098 C213.894473,240.940622 211.636095,167.433313 210.689802,131.112933 C208.807841,58.8799822 204.747565,20.2387023 204.609749,16.5513296 C204.363096,9.95191848 202.670919,2.69187114 199.533219,-5.22881246 L219.136876,-3.18888758 C230.883149,11.4654313 233.466658,122.283639 233.219458,131.112933 C232.663138,150.983145 237.716415,306.855055 237.513139,352.626296 C237.477725,360.600372 235.493391,363.937804 235.148674,363.956565 L213.192929,363.50049 Z M73.9093542,360.353829 L52.1873834,359.523129 C51.8515041,359.50456 49.918044,356.201241 49.883538,348.308671 C49.6854735,303.005277 55.4614507,147.840139 54.9193936,128.173029 C54.6785315,119.433982 57.5274171,8.93477306 68.9725426,-5.56975819 L88.390668,-7.64650953 C84.9009622,0.774144297 83.0359445,8.25044915 82.7956149,14.782405 C82.6613326,18.4320877 78.7051529,56.6783996 76.8714411,128.173029 C75.9494089,164.122163 72.8966754,237.764581 71.9346296,346.23192 C71.9044436,349.635283 72.5626851,354.342586 73.9093542,360.353829 Z" id="Combined-Shape" stroke="#67B1AC" stroke-width="2" fill="#67B1AC" mask="url(#mask-10)"></path>
                                            </g>
                                        </g>
                                    </g>
                                    <g id="face+hair" transform="translate(352.982379, 156.093411)">
                                        <g id="face" transform="translate(0.868263, 0.028191)">
                                            <g id="eyes" fill="#4C2F1C">
                                                <ellipse id="eye" cx="4.72695417" cy="8.86846018" rx="4.72695417" ry="8.86846018"></ellipse>
                                                <ellipse id="eye" cx="60.2172857" cy="8.86846018" rx="4.72695417" ry="8.86846018"></ellipse>
                                            </g>
                                            <path d="M24.4043072,8.39132669 C27.2653624,24.7772749 23.5669578,28.3737915 22.8888126,45.5658342 C22.855352,46.4141116 24.1820475,46.8625433 25.0080183,46.8872602 C27.9701437,46.9759008 30.886588,45.724884 33.8454104,45.8937068 C38.4315628,46.155381 42.8658332,47.8144712 47.4461801,48.1675246 C50.2473982,48.3834427 48.5710627,42.7565407 44.3737462,39.6314821" id="Path-29" stroke="#979797"></path>
                                            <path d="M18.0857377,67.5692204 C26.0658634,77.1163193 48.0494181,83.5575736 53.7185572,67.6972538" id="Path-2" stroke="#CC5C61"></path>
                                        </g>
                                    </g>
                                    <g id="head_whole" transform="translate(281.461881, 0.237860)">
                                        <g transform="translate(109.286296, 161.514404) scale(-1, 1) translate(-109.286296, -161.514404) translate(0.786296, 0.514404)">
                                            <g id="body_change_colour" transform="translate(0.000000, 103.657074)" fill="#EFDD93">
                                                <path d="M113.583029,198.082429 C119.190842,198.429569 124.724351,198.818059 130.131201,199.240088 C127.582192,204.869743 120.713474,210.222972 111.352039,213.734039 C110.279985,214.660156 108.877654,215.212392 107.349682,215.191602 C107.307083,215.191022 107.264492,215.189989 107.221915,215.188502 L106.990911,215.180435 C100.951535,216.935381 94.1132248,217.94293 86.8705488,217.864934 C64.476607,217.623776 44.9179665,210.186865 41.6664988,199.353764 C47.4103461,199.202405 54.2590382,198.080909 60.2792687,198.093733 L62.8480541,198.082805 L63.1401853,176.61248 C38.0725119,165.530886 18.8992751,137.043656 13.6223794,103.44582 C12.7046752,103.848302 11.7374918,104.063431 10.7384438,104.063431 C4.80776504,104.063431 0,96.4822882 0,87.1304746 C0,77.778661 4.80776504,70.1975182 10.7384438,70.1975182 C12.1582176,70.1975182 13.5136373,70.6319926 14.754148,71.4212235 C16.0712274,66.7095548 17.3458027,62.0394453 17.0780621,57.8142266 C16.8533335,54.2677801 12.4160468,51.1535581 13.4573848,48.1434383 C24.4436677,16.38619 55.1192524,0.161926241 86.1461823,0.161926241 C111.602629,0.161926241 142.039908,-2.65051637 155.349487,19.5138765 C161.211541,29.275934 161.067469,49.1576078 160.555686,66.7385718 C164.371628,69.3356686 167.042459,75.3222525 167.042459,82.2924871 C167.042459,89.8919321 163.867666,96.3221204 159.495407,98.4650992 C157.934565,115.019608 153.422932,130.351052 145.565571,144.264981 C137.557021,158.446638 126.477823,168.894144 113.896182,175.067088 L113.583029,198.082429 Z" id="head"></path>
                                            </g>
                                            <g id="face" transform="translate(92.618676, 211.421537) scale(-1, 1) translate(-92.618676, -211.421537) translate(59.118676, 175.921537)">
                                                <path d="M15.2249429,60.735374 C23.3144363,70.1799922 45.5992758,76.5521047 51.3461104,60.8620331" id="Path-2" stroke="#CC5C61"></path>
                                                <ellipse id="Oval-7" fill="#4C2F1C" cx="5.67190046" cy="9.66816018" rx="4.7917371" ry="8.77326417"></ellipse>
                                                <ellipse id="Oval-7" fill="#4C2F1C" cx="61.9227273" cy="9.66816018" rx="4.7917371" ry="8.77326417"></ellipse>
                                                <path d="M26.9117987,2.54122904 C29.8120647,18.7512868 26.0629734,22.3091976 25.3755342,39.3166972 C25.3416151,40.155869 26.6864929,40.5994871 27.5237837,40.6239387 C30.526505,40.7116278 33.4829192,39.4740397 36.4822922,39.6410504 C41.1312979,39.8999157 45.62634,41.5411968 50.2694606,41.8904605 C53.1090694,42.1040608 51.4097597,36.5375592 47.154919,33.4460458" id="Path-29" stroke="#979797"></path>
                                            </g>
                                            <path d="M99.8701277,134.687157 C79.2610232,134.687157 56.9595538,133.569231 40.2091174,129.144022 C34.5143322,135.763043 29.8047771,142.78137 26.0804538,150.199006 C25.3751887,151.603663 28.12092,168.250162 26.0804538,173.441831 C22.5465638,182.433299 13.5873832,181.96701 11.7513606,187.654445 C10.3588868,159.637217 9.72173017,142.485904 9.83989057,136.200508 C9.95805098,129.915112 10.722639,115.033826 12.1336546,91.556651 C12.1336546,89.1283413 12.1336546,86.2584612 12.1336546,82.8548822 C12.1336546,56.7361095 50.7812061,43.5077539 99.8701277,43.5077539 C101.993168,43.5077539 104.098823,43.540989 106.184625,43.6066975 C114.617036,41.888184 122.133269,39.4590636 128.733325,36.3193362 C142.94409,29.5591014 155.559791,17.841869 166.58043,1.16763884 L166.580429,0 C166.828926,0.00285478148 167.07814,0.0112630035 167.328022,0.0251511941 C189.249526,1.26786163 216.278651,44.5843756 216.278651,80.5205671 C216.278651,115.140902 191.192709,130.463632 169.772149,131.923124 C167.333951,132.283161 164.778435,132.597038 162.13727,132.870598 C162.57594,137.705164 162.910111,141.463499 163.139785,144.145601 C163.394028,147.114622 160.265183,186.841464 157.216432,179.012464 C155.174191,173.768119 152.542743,148.219795 151.384012,146.03729 C148.862153,141.287293 146.000608,137.339947 142.799377,134.195252 C127.137015,134.840494 111.108003,134.687157 99.8701277,134.687157 Z" id="hair" fill="#FFC194" transform="translate(113.052339, 93.827223) rotate(-360.000000) translate(-113.052339, -93.827223) "></path>
                                        </g>
                                        <g id="glasses" transform="translate(41.003254, 155.404797)">
                                            <path d="M27.3749048,14.6904759 C26.5464777,14.6904759 25.8749048,15.3620488 25.8749048,16.1904759 L25.8749048,42.7676825 C25.8749048,46.3575334 28.785054,49.2676825 32.3749048,49.2676825 L69.1247145,49.2676825 C72.7145654,49.2676825 75.6247145,46.3575334 75.6247145,42.7676825 L75.6247145,17.1904759 C75.6247145,15.8097641 74.5054264,14.6904759 73.1247145,14.6904759 L27.3749048,14.6904759 Z" id="Rectangle-3" stroke="#333333"></path>
                                            <path d="M95.8871479,14.6904759 C95.0587208,14.6904759 94.3871479,15.3620488 94.3871479,16.1904759 L94.3871479,42.7676825 C94.3871479,46.3575334 97.297297,49.2676825 100.887148,49.2676825 L137.636958,49.2676825 C141.226808,49.2676825 144.136958,46.3575334 144.136958,42.7676825 L144.136958,17.1904759 C144.136958,15.8097641 143.017669,14.6904759 141.636958,14.6904759 L95.8871479,14.6904759 Z" id="Rectangle-3" stroke="#333333"></path>
                                            <path d="M95.7748922,16.731705 L96.4246384,16.731705 L96.4246384,29.4378502 L93.7094914,29.4378502 C92.8866105,26.5380025 89.3025891,24.3553921 85.0059312,24.3553921 C80.7092733,24.3553921 77.1252519,26.5380025 76.302371,29.4378502 L73.587224,29.4378502 L73.587224,16.731705 L74.2369702,16.731705 C75.8045166,18.2122153 80.0341544,19.272934 85.0059312,19.272934 C89.977708,19.272934 94.2073458,18.2122153 95.7748922,16.731705 Z" id="Combined-Shape" fill="#333333"></path>
                                        </g>
                                    </g>
                                </g>
                                <g id="avatar_3" transform="translate(679.395895, 557.358559) rotate(-225.000000) translate(-679.395895, -557.358559) translate(498.895895, -50.141441)">
                                    <g id="top" transform="translate(189.254642, 440.731938) rotate(-360.000000) translate(-189.254642, -440.731938) translate(18.254642, 216.231938)">
                                        <path d="M257.478756,26.4192454 C269.501167,36.5383449 288.229269,221.281022 296.224112,350.601179 C296.224112,350.601179 296.224112,350.601179 296.224112,350.601179 L296.224112,350.601179 C297.961584,378.705551 276.586987,402.897145 248.482615,404.634617 C246.847827,404.735683 245.209118,404.757912 243.572189,404.701228 L60.1064961,398.348131 C51.2752331,398.042319 44.3639894,390.635256 44.6698015,381.803993 C44.6869757,381.308034 44.7272147,380.813143 44.7903878,380.320924 C60.6528496,256.727189 68.445691,191.785232 68.1689118,185.495054 C67.7687126,176.399988 57.8364492,47.5664737 76.8528497,32.4710425 C108.940502,6.99950559 246.451898,17.1380894 257.478756,26.4192454 Z" id="shirt" fill="#FBE7E9"></path>
                                        <g id="sleeve" transform="translate(0.000000, 26.290442)" fill="#8295B5">
                                            <path d="M87.273575,0.0456590681 C61.0089051,11.1900048 45.4538971,23.967041 40.6085509,38.3767675 C35.7632048,52.786494 22.6220664,108.919316 1.18513558,206.775232 C-0.395045194,225.838232 -0.395045194,239.763766 1.18513558,248.551834 C2.76531636,257.339902 4.92834248,284.760282 7.67421393,330.812976 L81.2171019,330.812976 L87.273575,0.0456590681 Z" id="Path-16"></path>
                                        </g>
                                        <g id="gilet_left" transform="translate(43.145617, 1.347515)" fill="#445B67">
                                            <path d="M70.6905533,424.136661 C68.1758774,428.760792 62.2163249,432.140367 52.8118958,434.275386 L0.274071979,405.038133 L1.53056646,393.649531 C0.720981813,392.473285 9.67078872,316.16339 13.1630547,288.215107 L24.8946294,181.882582 C23.6934795,162.326226 15.6514788,45.4563869 33.7072326,31.1235278 C44.6505332,22.4366135 67.8557745,17.8915478 94.1238123,16.0417664 C99.3170304,15.6760627 99.326354,41.7849129 102.744538,47.5498341 C115.313137,68.7473405 108.599517,185.988635 82.6036782,399.273718 C76.930381,411.677039 72.9593394,419.964686 70.6905533,424.136661 Z" id="Combined-Shape"></path>
                                            <path d="M100.488316,0 C97.2318629,7.52244426 96.0967101,13.4367005 97.0828573,17.7427687 C98.0690044,22.0488369 103.460981,34.7222431 113.258785,55.7629873 C116.607665,142.688927 116.607665,206.900852 113.258785,248.398762 C109.909906,289.896671 99.4097423,355.798383 81.7582937,446.103898 L52.8118958,434.275386 C62.2163249,432.140367 68.1758774,428.760792 70.6905533,424.136661 C73.2052292,419.51253 76.894476,405.149336 81.7582937,381.04708 L106.447868,67.5914998 C94.7289984,52.0795057 88.4856577,39.969362 87.7178462,31.2610686 C86.9500347,22.5527753 91.2068579,12.1324191 100.488316,0 Z" id="Path-31"></path>
                                        </g>
                                        <g id="gilet_right" transform="translate(261.309183, 224.385749) scale(-1, 1) translate(-261.309183, -224.385749) translate(181.309183, 0.385749)" fill="#445B67">
                                            <g id="gilet" transform="translate(43.448128, 0.000000)">
                                                <path d="M100.628127,0 C97.3820259,7.54127844 96.2504816,13.4703424 97.2334939,17.7871918 C98.2165062,22.1040412 103.591341,34.8091782 113.358,55.9026028 C116.696233,143.046182 116.696233,207.418876 113.358,249.020685 C110.019766,290.622494 99.5529819,356.689207 81.9576463,447.220822 L53.1032675,435.362694 C62.4778005,433.22233 68.4184079,429.834293 70.9250897,425.198585 C73.4317716,420.562876 77.1092904,406.163721 81.9576463,382.001119 L106.568734,67.7607306 C94.8871178,52.2098988 88.6636244,40.0694345 87.8982537,31.3393379 C87.132883,22.6092413 91.376174,12.1627954 100.628127,0 Z" id="Path-31"></path>
                                            </g>
                                        </g>
                                    </g>
                                    <g id="scarf" transform="translate(161.528747, 388.916103) rotate(-16.000000) translate(-161.528747, -388.916103) translate(49.528747, 195.916103)" fill="#8D4763" stroke="#7FB7B5">
                                        <path d="M121.290061,23.857814 C134.486537,8.8662902 147.112074,0.913685514 159.16667,0 C162.829942,10.6382587 164.834928,18.0100135 165.181627,22.1152643 C165.588649,26.9347953 160.902063,31.441184 161.636883,34.5526962 C163.805743,43.7364762 168.74617,56.6251803 176.458165,73.2188086 C164.942874,91.6657831 157.532233,105.377171 154.226242,114.352971 C150.920252,123.328771 120.454284,212.452789 62.8283376,381.725025 C46.5066466,383.767374 34.9789829,383.767374 28.2453465,381.725025 C21.5117101,379.682676 19.3159647,376.117715 21.6581101,371.030143 L96.5879241,165.359332 L16.7176828,377.611609 C13.3900066,381.606141 11.0238872,383.95424 9.61932464,384.655906 C8.21476206,385.357572 5.64045417,385.477523 1.89640095,385.015758 C-0.632133651,353.760054 -0.632133651,329.079556 1.89640095,310.974266 C4.42493555,292.868975 11.0121719,270.3823 21.6581101,243.51424 C32.1503238,208.764997 41.2077738,182.987589 48.8304602,166.182015 C56.4531467,149.376442 80.6063468,101.935041 121.290061,23.857814 Z" id="Path-6"></path>
                                        <path d="M191.53156,67.7763378 C200.098993,48.3872854 205.762321,25.100712 212.499766,29.3364277 C218.559493,33.1460739 220.709826,54.9621139 216.513529,74.0604152 C217.607605,74.1401894 218.601878,74.4503997 219.484597,75.0053503 C229.137757,81.0741252 219.965105,113.362469 198.996907,147.123385 C189.420076,162.543051 179.171491,188.144961 169.79888,197.205897 C165.880157,200.994307 160.920016,203.19328 155.906998,204.308939 C142.143882,231.309044 132.13058,252.46128 125.867095,267.765646 C119.095974,284.310384 115.492774,311.878276 115.057495,350.469321 C115.035828,354.56175 114.763794,357.312212 114.241393,358.720705 C113.718993,360.129199 112.358823,361.779476 110.160885,363.671536 C106.480669,360.149433 103.216262,358.499156 100.367664,358.720705 C97.5190663,358.942255 93.7105917,361.142624 88.9422405,365.321813 L102.102659,288.861073 L88.9422405,360.370982 C85.3151218,362.571352 82.5947827,363.671536 80.7812234,363.671536 C78.9676641,363.671536 75.9752911,362.571352 71.8041046,360.370982 L110.361163,191.852909 C114.876012,172.985469 123.309063,155.107469 135.660316,138.21891 C147.334415,122.256261 165.958163,98.7754032 191.53156,67.7763378 Z" id="Combined-Shape"></path>
                                    </g>
                                    <g id="body_change_colour" transform="translate(100.323328, 41.100850)" fill="#EDB597">
                                        <path d="M10.2537371,67.9369975 C8.88484271,60.3457761 7.50782008,52.9594171 9.61376044,46.960261 C20.4089776,16.2081113 54.1606567,0.111580701 84.6479878,0.111580701 C109.661714,0.111580701 139.569649,-2.61184971 152.647756,18.8510528 C158.407862,28.3041469 158.266296,47.5565771 157.763413,64.5811137 C161.512991,67.0960139 164.137372,72.8931258 164.137372,79.6427564 C164.137372,87.0016834 161.017794,93.22836 156.721574,95.3035147 C155.187877,111.334083 150.754707,126.180295 143.033996,139.653857 C134.914492,153.823359 123.582802,164.143271 110.731582,170.03876 C111.296922,171.693615 111.575584,173.476532 111.510599,175.326771 L110.529619,203.257006 C110.242014,211.445639 103.332314,217.852026 95.0963739,217.566073 L75.0924059,216.871531 C66.8564654,216.585578 60.4130667,209.715569 60.700672,201.526936 L61.6816522,173.596701 C61.7133131,172.69526 61.8252244,171.815417 62.0103212,170.963722 C37.3941804,160.222982 18.5683623,132.647092 13.3854685,100.126598 C12.4837243,100.516342 11.5333615,100.724663 10.5516882,100.724663 C4.72415173,100.724663 0,93.3834585 0,84.3276245 C0,75.4266371 4.5639754,68.1821438 10.2537371,67.9369975 Z" id="head"></path>
                                    </g>
                                    <g id="scarf_part_2" transform="translate(136.530102, 203.985351)" fill="#8D4763">
                                        <path d="M72.4237663,49.8669455 C84.8167435,30.0340361 86.6827864,13.9708544 78.3764181,8.78045943 C73.0063741,5.42488352 76.0250471,19.7934921 70.0194315,35.3691128 C66.7355785,43.8858166 50.2361819,49.4978168 45.8552299,56.5088055 C45.7580332,56.6643528 36.6018664,98.5955821 40.9916022,103.054968 C47.6698843,109.83921 64.9460229,61.8338364 72.4237663,49.8669455 Z" id="Oval-10"></path>
                                        <path d="M12.5516815,0.0682820673 C16.1971685,16.2975372 20.2201433,27.5801236 24.620606,33.9160411 C29.0210687,40.2519586 36.1015043,47.1826902 45.8619129,54.7082357 C43.5419838,56.1572846 41.9327939,56.9631836 41.0343431,57.1259328 C40.1358923,57.2886819 26.618697,59.2228396 0.482757093,62.928406 L12.5516815,0.0682820673 Z" id="Path-11"></path>
                                    </g>
                                    <g id="face" transform="translate(163.081735, 113.631762)">
                                        <path d="M42.6038586,10.0161736 C48.6781177,40.4999855 60.1112611,51.1827464 32.6343717,49.9923279" id="Path-9" stroke="#55383C"></path>
                                        <path d="M15.0620177,62.6010849 C36.30663,71.9693188 26.2163752,71.9618692 45.1860531,65.9589164" id="Path-8" stroke="#CC5C61"></path>
                                        <g id="eyes" fill="#55383C">
                                            <ellipse id="eye" cx="57.7377345" cy="5.00808679" rx="5.02067257" ry="5.00808679"></ellipse>
                                            <ellipse id="eye" cx="5.02067257" cy="5.00808679" rx="5.02067257" ry="5.00808679"></ellipse>
                                        </g>
                                    </g>
                                    <g id="hair" transform="translate(88.254404, 0.000000)">
                                        <path d="M161.723588,74.9486093 C164.131687,77.7991575 165.740877,94.723037 166.551157,125.720248 C168.964111,114.872822 170.382952,107.619731 170.80768,103.960974 C171.611448,97.0370347 170.122379,94.2541256 170.80768,89.9383312 C171.04548,88.440749 171.232989,86.0928225 171.378727,84.6193975 C171.783497,80.5271261 171.593148,74.885833 170.80768,67.695518 C163.51142,71.0628477 160.483389,73.4805448 161.723588,74.9486093 Z" id="Path-13" fill="#87857C"></path>
                                        <path d="M14.2213816,112.849473 C18.4893054,114.534934 21.5534161,116.478713 23.4137135,118.680809 C25.8218129,121.531358 28.6378953,130.325029 31.8619606,145.061824 C32.2215248,129.200058 32.2215248,117.111573 31.8619606,108.796368 C31.5023965,100.481164 32.3069915,93.2280725 34.2757455,87.0370946 C26.1057853,89.7608262 20.4736206,92.2497408 17.3792513,94.5038386 C14.4784632,96.616922 12.1757695,101.706657 10.4711701,109.773043 C10.3574154,110.311345 12.9646058,112.353155 14.2213816,112.849473 Z" id="Path-13" fill="#87857C"></path>
                                        <path d="M86.1670042,0 C62.6423398,5.80977766 47.0081234,11.4510708 39.2643551,16.9238795 C31.872398,22.1480501 19.8062067,35.6034396 3.06578137,57.2900481 L3.06577936,57.2900465 C1.47053007,59.3566336 0.534450408,61.8556486 0.37942078,64.4617124 C-0.203017535,74.2525594 -0.114892174,80.9717878 0.643796863,84.6193975 C1.50219268,88.7463755 6.1151635,100.834861 14.4827093,120.884854 C14.1992696,114.967241 14.4138686,110.937746 15.1265062,108.796368 C15.8391438,106.65499 18.2529287,102.625495 22.3678609,96.7078829 C24.0618028,98.4045704 25.6709928,100.016368 27.1954306,101.543277 C28.7198685,103.070186 31.1336534,106.293782 34.4367853,111.214065 C33.0147412,111.176443 33.0147412,107.952847 34.4367853,101.543277 C35.8588294,95.1337068 39.0772093,91.1042117 44.0919249,89.4547917 L48.9194946,101.543277 C50.3239303,95.9825025 51.9331202,91.9530074 53.7470644,89.4547917 C55.5610086,86.956576 60.3885784,82.1211818 68.2297737,74.9486093 L60.9884191,94.2901858 C79.9737445,74.1117226 94.4564538,62.0232372 104.436547,58.0247297 C114.41664,54.0262223 127.29016,54.0262223 143.057105,58.0247297 C140.465009,60.978228 138.855819,63.3959251 138.229535,65.277821 C137.603252,67.1597169 136.798657,71.995111 135.815751,79.7840034 C138.418005,75.7650507 140.429492,73.3473537 141.850213,72.5309122 C148.394639,68.7700459 152.946397,69.9322357 154.482233,70.1132151 C157.536165,70.4730835 160.681939,74.4449634 161.723588,77.3663063 C162.41802,79.3138683 165.6364,88.1787576 171.378727,103.960974 L174.436309,48.3539415 C161.497823,28.4594272 151.038089,16.3709418 143.057105,12.0884854 C135.076122,7.80602888 123.811792,5.38833181 109.264117,4.83539415 L86.1670042,0 Z" id="Path-12" fill="#FAF389"></path>
                                    </g>
                                </g>
                            </g>
                        </g>
                    </g>
                </g>
            </g>
        </g>
    </g>
</svg>