<svg height="150" viewBox="0 0 150 150" width="150" xmlns="http://www.w3.org/2000/svg" xmlns:xlink="http://www.w3.org/1999/xlink"><linearGradient id="a" x1="100%" x2="0%" y1="0%" y2="100%"><stop offset="0" stop-color="#fa7d78"/><stop offset="1" stop-color="#6114cc"/></linearGradient><linearGradient id="b" x1="0%" x2="100%" y1="50%" y2="50%"><stop offset="0" stop-color="#009cf3"/><stop offset="1" stop-color="#16d6d9"/></linearGradient><g fill="none"><path d="m35.7142857 142.857143c-.7219643 0 14.4496429-61.7780359 14.4496429-61.7780359.3697143-1.1927857 1.3392857-2.1065714 2.553-2.4030357 1.21025-.3069285 2.4972143.0592857 3.3796071.9416786l25 25c.7324286.732429 1.1091072 1.743857 1.0358572 2.779714-.07325 1.032357-.5894286 1.981036-1.4195 2.601857l-42.8571429 32.142858c-.6312857.477785-1.3881071.714964-2.1414643.714964z" fill="#50cfcf"/><path d="m117.82925 150c-.760321 0-1.517143-.244143-2.141464-.715l-114.25782171-85.7142857c-1.03585715-.7742857-1.56946429-2.0438214-1.39857143-3.3237857.16742857-1.28 1.01492857-2.3681786 2.21471428-2.8494643l142.85714286-57.14285716c1.217214-.48132143 2.605321-.27203571 3.609786.572 1.007964.83707143 1.475321 2.15889286 1.217214 3.44585715l-28.599321 142.85714271c-.240643 1.20325-1.081179 2.19725-2.228643 2.636714-.411572.156965-.844072.233679-1.273036.233679z" fill="url(#a)"/><path d="m35.7177857 142.857143c-.1918214 0-.3836428-.013964-.5754643-.045357-1.7299285-.2825-2.9994643-1.77525-2.9994643-3.526072v-53.5714283c0-1.1300357.5371072-2.1937857 1.4439286-2.8668928l110.7142853-82.14285719c1.517143-1.12653571 3.637679-.87542857 4.854929.55803572 1.217214 1.44042857 1.105607 3.57492857-.251107 4.88282143l-98.1957859 94.39371414-11.60825 39.876607c-.49175 1.475322-1.8694285 2.441429-3.3830714 2.441429z" fill="url(#b)"/></g></svg>