<svg height="44" viewBox="0 0 44 44" width="44" xmlns="http://www.w3.org/2000/svg" xmlns:xlink="http://www.w3.org/1999/xlink"><linearGradient id="a" x1="100%" x2="0%" y1="0%" y2="100%"><stop offset="0" stop-color="#fa7d78"/><stop offset="1" stop-color="#6114cc"/></linearGradient><g fill="none" fill-rule="evenodd"><circle cx="22" cy="22" fill="url(#a)" r="22"/><path d="m11.8504865 0c-6.54486488 0-11.8504865 5.3267027-11.8504865 11.8988108 0 5.256 3.39535135 9.7157838 8.10486486 11.2890811.59286487.1096216.80886487-.2578378.80886487-.5730811 0-.2828108-.01005405-1.031027-.01589189-2.0237838-3.29708108.7196757-3.99308108-1.595027-3.99308108-1.595027-.53772973-1.3741622-1.31513514-1.74-1.31513514-1.74-1.07610811-.7381622.08108108-.7232432.08108108-.7232432 1.18897298.0836756 1.81556757 1.2262702 1.81556757 1.2262702 1.0572973 1.8178379 2.7732973 1.2927568 3.44918919.9878919.10767568-.768973.41351351-1.2934054.75243243-1.5911351-2.63189189-.2996757-5.39805405-1.32-5.39805405-5.8793514 0-1.29891889.46151351-2.36108105 1.21978378-3.19329726-.12227027-.3012973-.52897297-1.51005406.11610811-3.14854055 0 0 .99502703-.31978378 3.25881081 1.21978379.94540541-.264 1.95891896-.39567568 2.96724326-.40086487 1.0057297.00518919 2.0198919.13686487 2.9669189.40086487 2.2621622-1.53956757 3.2552432-1.21978379 3.2552432-1.21978379.6470271 1.63848649.2403244 2.84724325.1180541 3.14854055.7598919.83221621 1.2188108 1.89437837 1.2188108 3.19329726 0 4.5703784-2.7713513 5.5764325-5.411027 5.8712433.4248648.3674594.8043243 1.0929729.8043243 2.2031351 0 1.5904865-.0149189 2.8735135-.0149189 3.264 0 .3181622.2134054.6885406.815027.5717838 4.705946-1.5765405 8.0980541-6.0330811 8.0980541-11.2877838 0-6.5721081-5.3062703-11.8988108-11.8517838-11.8988108z" fill="#fff" transform="translate(10 10)"/></g></svg>