<svg height="44" viewBox="0 0 44 44" width="44" xmlns="http://www.w3.org/2000/svg" xmlns:xlink="http://www.w3.org/1999/xlink"><defs><linearGradient id="a" x1="100%" x2="0%" y1="0%" y2="100%"><stop offset="0" stop-color="#fa7d78"/><stop offset="1" stop-color="#6114cc"/></linearGradient><path id="b" d="m21.1666667 2h-18.33333337c-.5 0-.83333333.33333333-.83333333.83333333v18.33333337c0 .5.33333333.8333333.83333333.8333333h18.33333337c.5 0 .8333333-.3333333.8333333-.8333333v-18.33333337c0-.5-.3333333-.83333333-.8333333-.83333333zm-13.25000003 17.0833333h-2.91666667v-9.5833333h3v9.5833333zm-1.5-10.91666663c-.91666667 0-1.75-.75-1.75-1.75 0-.91666667.75-1.75 1.75-1.75.91666666 0 1.75.75 1.75 1.75s-.75 1.75-1.75 1.75zm12.66666663 10.91666663h-3v-4.6666666c0-1.0833334 0-2.5-1.5-2.5-1.5833333 0-1.75 1.1666666-1.75 2.4166666v4.75h-2.99999997v-9.5833333h2.83333337v1.3333333c.4166666-.75 1.3333333-1.49999997 2.8333333-1.49999997 3 0 3.5833333 1.99999997 3.5833333 4.58333337z"/><mask id="c" fill="#fff"><use fill="#fff" fill-rule="evenodd" xlink:href="#b"/></mask></defs><g fill="none" fill-rule="evenodd"><circle cx="22" cy="22" fill="url(#a)" r="22"/><g transform="translate(10 10)"><path d="m0 0h24v24h-24z"/><g fill-rule="evenodd"><use fill="#0077b5" xlink:href="#b"/><g fill="#f8f8f8" mask="url(#c)"><path d="m0 0h24v24h-24z"/></g></g></g></g></svg>