<svg height="44" viewBox="0 0 44 44" width="44" xmlns="http://www.w3.org/2000/svg" xmlns:xlink="http://www.w3.org/1999/xlink"><linearGradient id="a" x1="100%" x2="0%" y1="0%" y2="100%"><stop offset="0" stop-color="#fa7d78"/><stop offset="1" stop-color="#6114cc"/></linearGradient><g fill="none" fill-rule="evenodd"><circle cx="22" cy="22" fill="url(#a)" r="22"/><path d="m2.84593838 3.88685595c.02981816-.29461341-.08253075-.585806-.30252101-.78409198l-2.24089636-2.69951667v-.4032473h6.95798319l5.3781513 11.7949836 4.7282914-11.7949836h6.6330531v.4032473l-1.9159664 1.8370155c-.1651773.12590777-.2471137.33284612-.2128851.53766307v13.49758343c-.0342286.2048169.0477078.4117552.2128851.537663l1.8711485 1.8370155v.4032473h-9.4117647v-.4032473l1.9383754-1.8818207c.1904761-.1904224.1904761-.2464289.1904761-.537663v-10.91007994l-5.3893557 13.68800574h-.7282913l-6.27450986-13.68800574v9.17387614c-.05231458.3856955.07578168.7740066.34733893 1.0529236l2.52100841 3.0579587v.4032473h-7.14845938v-.4032473l2.5210084-3.0579587c.26958008-.2793794.39020695-.6702663.32492998-1.0529236z" fill="#fff" fill-rule="nonzero" transform="translate(10 12)"/></g></svg>