<?xml version="1.0" encoding="UTF-8"?>
<svg width="51px" height="58px" viewBox="0 0 51 58" version="1.1" xmlns="http://www.w3.org/2000/svg" xmlns:xlink="http://www.w3.org/1999/xlink">
    <!-- Generator: Sketch 49.3 (51167) - http://www.bohemiancoding.com/sketch -->
    <title>menu_gradient</title>
    <desc>Created with Sketch.</desc>
    <defs>
        <linearGradient x1="50%" y1="0%" x2="50%" y2="100%" id="linearGradient-1">
            <stop stop-color="#009CF3" offset="0%"></stop>
            <stop stop-color="#16D6D9" offset="100%"></stop>
        </linearGradient>
    </defs>
    <g id="icons" stroke="none" stroke-width="1" fill="none" fill-rule="evenodd" stroke-linecap="round" stroke-linejoin="round">
        <g id="menu_gradient" transform="translate(-83.000000, -81.000000)" stroke-width="2">
            <g id="menu" transform="translate(84.000000, 82.000000)">
                <polyline id="Path-2" stroke="url(#linearGradient-1)" transform="translate(24.500000, 4.631180) scale(-1, 1) translate(-24.500000, -4.631180) " points="0 8.6623602 8 0.599999905 17 8.6623602 25 0.599999905 33.0623857 8.6623602 41 0.599999905 49 8.6623602"></polyline>
                <polyline id="Path-2" stroke="url(#linearGradient-1)" transform="translate(24.500000, 51.031180) scale(-1, -1) translate(-24.500000, -51.031180) " points="0 55.0623603 8 47 17 55.0623603 25 47 33.0623857 55.0623603 41 47 49 55.0623603"></polyline>
                <g id="menu-to-close-2" transform="translate(10.900000, 17.300000)" stroke="#009CF3">
                    <path d="M0,0 L28,0" id="Shape"></path>
                    <path d="M0,10 L28,10" id="Shape"></path>
                    <path d="M0,20 L28,20" id="Shape"></path>
                </g>
            </g>
        </g>
    </g>
</svg>