<svg width="548" height="540" viewBox="0 0 548 540" xmlns="http://www.w3.org/2000/svg" xmlns:xlink="http://www.w3.org/1999/xlink"><title>stimmy_things_landing</title><defs><path id="a" d="M0 0H548V540H0z"/><linearGradient x1="0%" y1="0%" y2="100%" id="e"><stop stop-color="#45AFD7" offset="0%"/><stop stop-color="#BEF8E2" offset="52.983%"/><stop stop-color="#D98480" offset="100%"/></linearGradient><path d="M455.28 0H597.7v455.28c0 86.386-56.034 142.42-142.42 142.42H142.42C56.035 597.7 0 541.666 0 455.28V0h455.28z" id="c"/><filter x="-2.3%" y="-1.7%" width="104.7%" height="104.7%" filterUnits="objectBoundingBox" id="d"><feOffset dy="4" in="SourceAlpha" result="shadowOffsetOuter1"/><feGaussianBlur stdDeviation="4" in="shadowOffsetOuter1" result="shadowBlurOuter1"/><feComposite in="shadowBlurOuter1" in2="SourceAlpha" operator="out" result="shadowBlurOuter1"/><feColorMatrix values="0 0 0 0 0.0470588235 0 0 0 0 0 0 0 0 0 0.2 0 0 0 0.1 0" in="shadowBlurOuter1"/></filter><path d="M7.213 97.874c34.844 1.298 34.342 2.837 70.048-2.5 14.793-2.21 28.265-7.975 40.735-16.611 11.37-7.875 22.549-16.308 32.128-26.372C190.732 9.731 78.832-2.532 57.764.416c-24.61 3.443-41.486 25.951-51.45 47.799C-2.371 67.264.344 72.541.607 94.202l6.607 3.672z" id="g"/><path d="M28.36 312.174c-11.087-7.087-18.56-19.326-19.08-33.363C9.024 271.886-.91 165.442.474 91.17c.676-36.34 6.825-64.86 12.788-70.484C20.12 14.22 24.786 9.081 39.2 5.35 58.224.423 98.802.747 120.776.422c35.722-.529 59.037.372 71.91 0 26.792-.774 52.38 9.74 62.904 20.264 23.702 23.7 17.472 47.655 17.47 52.42-.006 16.166 1.153 47.972 0 81.456-2.118 61.527-7.163 130.865-7.13 134.391.103 11.535-5.163 21.865-13.462 28.607v25.24l-15.948 15.154c-27.308 3.686-50.792 5.376-70.453 5.071-19.66-.305-50.693-2.84-93.098-7.607l-43.608-6.454-2.742-36.797 1.74.007z" id="i"/></defs><g fill="none" fill-rule="evenodd"><mask id="b" fill="#fff"><use xlink:href="#a"/></mask><use fill="#959595" xlink:href="#a"/><g mask="url(#b)"><g transform="translate(-26 -17.1)"><mask id="f" fill="#fff"><use xlink:href="#c"/></mask><g><use fill="#000" filter="url(#d)" xlink:href="#c"/><use fill-opacity=".66" fill="url(#e)" xlink:href="#c"/></g><g mask="url(#f)"><g transform="translate(-914.874 -709.15)"><g transform="rotate(-45 2074.312 -614.037)"><path d="M305.146 76.666c5.503-32.63 24.678-37.2 57.838-38.255 25.075-.797 50.173-.902 75.26-.688 12.731.11 29.396.015 40.391 8.482 12.79 9.849 11.964 42.615 12.156 52.752.48 25.378.71 130.73-3.073 167.273-.347 3.352-10.841 6.77-11.93 7.07-16.425 4.532-20.913 4.915-37.807 5.419-48.76 1.452-54.375.657-110.694-3.252-7.545-.524-17.15-4.447-21.788-10.472-4.237-5.501-4.45-9.175-4.44-16.571.082-60.065-4.13-123.413 7.277-183.267" fill="#6471E8"/><g transform="rotate(15 18.42 1060.07)"><g transform="rotate(-15 839.757 110.378)"><path d="M257.479 25.21c12.022 10.175 30.75 195.939 38.745 325.973 1.738 28.264-19.766 52.585-48.03 54.323-1.641.1-3.287.123-4.93.065L60.09 399.193c-8.831-.307-15.741-7.715-15.434-16.547a16 16 0 0 1 .12-1.469C60.647 256.83 68.445 191.492 68.168 185.165c-.4-9.145-10.333-138.69 8.684-153.87C108.94 5.683 246.452 15.878 257.479 25.21z" fill="#FEFEFE"/><path d="M47.774 357.721h-40.1c-2.746-46.307-4.909-73.879-6.489-82.715-1.58-8.837-1.58-22.84 0-42.008C22.622 134.602 35.763 78.158 40.61 63.67c4.845-14.49 20.4-27.337 46.665-38.543l-.007.354c12.373-5.044 30.329-7.958 50.002-9.35 5.194-.368 5.203 25.885 8.621 31.682 12.569 21.314 5.855 139.203-20.14 353.667-5.674 12.471-9.645 20.805-11.914 25-2.515 4.65-8.474 8.048-17.878 10.195l-52.538-29.4 1.256-11.45a6.929 6.929 0 0 1-1.208-4.17c1.507-11.856 2.942-23.162 4.306-33.934z" fill="#E0AAAA"/><path d="M143.634 0c-3.257 7.564-4.392 13.51-3.406 17.84.987 4.33 6.379 17.074 16.176 38.231 3.35 87.406 3.35 151.973 0 193.7-3.348 41.727-13.849 107.993-31.5 198.798l-28.946-11.894c9.404-2.147 15.363-5.545 17.878-10.195 2.515-4.65 6.204-19.092 11.068-43.328l24.69-315.187c-11.72-15.598-17.963-27.775-18.73-36.531-.768-8.757 3.488-19.235 12.77-31.434z" fill="#F67089"/></g><path d="M75.687 127.42c-4.61.168-9.397-4.42-11.165-11.03-1.91-7.138.408-13.998 5.185-15.58-1.385-6.118-2.893-12.63-4.21-19.648-1.04-5.55 36.836-25.783 74.818-40.907 2.527-1.006 6.364-38.704 8.881-39.66 2.718-1.032 11.605 33.922 14.26 33.447 15.632-2.79 32.499-17.599 34.714-9.318 2.214 8.28 27.31 60.284 27.31 91.24 0 25.873-15.281 43.246-37.251 52.802l5.965 25.877c1.799 7.806-3.06 15.596-10.854 17.398l-20.43 4.724c-7.794 1.802-15.57-3.065-17.37-10.871l-6.477-28.105a14.823 14.823 0 0 1-.026-.114c-37.007-.626-54.44-19.07-63.35-50.255z" fill="#E8E8E8"/><g transform="translate(123.312 64.633)"><path d="M41.954 27.384c5.585 30.311 8.074 16.386-5.243 20.28-.946.277 1.189 1.548 1.783 2.322" stroke="#55383C" stroke-width=".5"/><path d="M46.025 56.94c-13.564 7.335-6.451 5.956-21.276 4.469" stroke="#CC5C61" stroke-width=".5"/><g fill="#55383C"><ellipse cx="58.182" cy="5.216" rx="5.21" ry="5.216"/><ellipse cx="5.21" cy="18.69" rx="5.21" ry="5.216"/></g></g></g><path d="M380.257 177.853c-13.462 0-24.375-10.825-24.375-24.177 0-13.353 10.913-24.177 24.375-24.177s24.376 10.824 24.376 24.177c0 13.352-10.914 24.177-24.376 24.177zm24.378-24.177c.07-3.835 1.99-6.908 4.35-6.908 2.36 0 4.281 3.073 4.351 6.908m24.377 24.177c-13.462 0-24.375-10.825-24.375-24.177 0-13.353 10.913-24.177 24.375-24.177s24.376 10.824 24.376 24.177c0 13.352-10.914 24.177-24.376 24.177z" stroke="#8F8DC2"/><g transform="rotate(-8 303.89 -2023.593)"><mask id="h" fill="#fff"><use xlink:href="#g"/></mask><use fill="#8F8DC2" xlink:href="#g"/><path d="M0 39.768c26.742-7.998 52.774-19.13 80.227-23.994 16.5-2.924 33.489 1.32 50.229.877 5.867-.155 11.61-1.778 17.414-2.666M0 57.087c29.816-7.999 58.84-19.13 89.448-23.995 18.396-2.924 37.339 1.32 56.003.878 6.542-.156 12.944-1.778 19.416-2.667M0 76.216c29.816-7.998 58.84-19.13 89.448-23.995 18.396-2.923 37.339 1.32 56.003.878 6.542-.155 12.944-1.778 19.416-2.667M0 98.824c29.816-7.999 58.84-19.13 89.448-23.995 18.396-2.924 37.339 1.32 56.003.878 6.542-.155 12.944-1.778 19.416-2.667M-8.498 20.567c29.816-7.999 58.84-19.13 89.448-23.995 18.396-2.924 37.338 1.32 56.003.878 6.541-.155 12.943-1.778 19.415-2.667" stroke="#504D6B" mask="url(#h)"/></g></g><g transform="matrix(1 0 0 -1 997.664 996.573)"><path d="M296.95 314.783c-6.173-10.167-11.862-20.899-17.067-32.196-3.95-8.572 17.126-30.753 20.481-88.113.711-12.153-4.978-36.44-17.068-72.864.082-15.693.082-27.272 0-34.737-.108-9.9 1.767-22.38 0-29.653-3.763-15.5-13.72-26.515-29.868-33.043-3.335 1.325-5.326 2.454-5.974 3.389-1.723 2.487-2.045 7.471-1.706 9.32.318 1.738 1.893 4.944 5.12 8.472 1.426 1.56 4.84 3.537 10.24 5.93 5.677 10.343 8.237 19.38 7.68 27.113-.555 7.733-4.538 18.465-11.946 32.195-17.072-1.052-29.873-4.723-38.403-11.014-8.53-6.29-15.64-17.305-21.334-33.043-4.593-13.378-9.997-22.415-16.215-27.112-6.217-4.696-13.898-5.543-23.041-2.541-4.408 3.395-6.399 5.937-5.974 7.625.238.944 1.127 5.086 3.414 7.625 1.2 1.333 3.76 3.028 7.68 5.084 13.363 8.009 21.612 15.069 24.748 21.18 3.137 6.113 2.568 14.02-1.706 23.724-3.44 7.99-7.422 14.485-11.948 19.486-11.59 12.81-31.693 28.691-36.695 38.127-7.932 14.96-8.785 27.952-2.56 38.973-8.814 6.583-13.08 10.537-12.801 11.861.131.625-.48 7.34 2.56 11.015 1.275 1.541 6.637 2.428 10.24 5.083 1.881 1.386 4.441 4.21 7.681 8.473 1.188 16.215 3.18 26.947 5.974 32.195 2.794 5.248 11.328 15.133 25.601 29.654v31.348l122.888-13.556z" fill="#30A1D2"/><g transform="translate(158.074 125.72)"><path d="M77.136 107.146c-23.199 11.409-40.786 15.818-61.106-1.416" stroke="#CC5C61" stroke-width="2"/><g transform="translate(43.785 36.708)"><ellipse fill="#FFF" cx="19.366" cy="19.188" rx="19.366" ry="19.188"/><ellipse fill="#27221B" cx="19.647" cy="20.284" rx="7.578" ry="8.196"/></g><g transform="translate(0 30.034)"><ellipse fill="#FFF" cx="14.314" cy="14.183" rx="14.314" ry="14.183"/><ellipse fill="#27221B" cx="13.135" cy="13.627" rx="5.894" ry="6.374"/></g><g transform="translate(33.68)"><ellipse fill="#FFF" cx="10.946" cy="10.846" rx="10.946" ry="10.846"/><ellipse fill="#27221B" cx="10.228" cy="10.675" rx="5.4" ry="5.84"/></g></g><ellipse fill="#DCEBF0" opacity=".37" cx="229.28" cy="176.492" rx="177.413" ry="176.492"/></g><g transform="scale(1 -1) rotate(-60 -114.58 -1391.53)"><path d="M294.725 161.582v117.937c0 45.796-36.936 82.92-82.498 82.92-45.562 0-82.497-37.124-82.497-82.92V161.582c0-45.562 36.935-82.498 82.497-82.498s82.498 36.936 82.498 82.498z" fill="#B1D159"/><g transform="translate(85.417)"><g transform="translate(82.723 135.479)"><ellipse fill="#FFF" cx="45.239" cy="45.249" rx="44.638" ry="44.932"/><ellipse fill="#27221B" cx="47.223" cy="44.25" rx="10.912" ry="11.982"/></g><g transform="matrix(-1 0 0 1 89.276 55.916)"><path fill="#B1D159" d="M0.80826358 39.4654898L17.7817988 23.214994 26.6726981 27.8579928 17.7817988 61.1328175z"/><ellipse fill="#A0BE53" cx="27.481" cy="15.477" rx="16.165" ry="15.477"/></g><g transform="translate(168.633 55.916)"><path fill="#B1D159" d="M0.80826358 39.4654898L17.7817988 23.214994 26.6726981 27.8579928 17.7817988 61.1328175z"/><ellipse fill="#A0BE53" cx="27.481" cy="15.477" rx="16.165" ry="15.477"/></g><path d="M253.942 100v210.77c0 71.006-56.847 128.568-126.971 128.568S0 381.776 0 310.77V100C0 44.772 44.772 0 100 0h53.942c55.228 0 100 44.772 100 100z" fill="#DCEBF0" opacity=".456"/><path d="M132.923 257.64c27.17 12.914 40.817-7.813 41.662-31.98" stroke="#CC5C61" stroke-width="2"/></g><path d="M71.447 423.739c22.817 27.564 38.796 48.794 47.937 63.692 9.142 14.897 24.122 46.08 44.942 93.547 20.196 5.971 35.509 8.957 45.94 8.957 10.43 0 30.405-2.986 59.922-8.957 28.769-42.43 49.076-75.935 60.92-100.514 11.845-24.578 23.829-58.083 35.953-100.513-8.536-28.76-16.858-48-24.967-57.72-8.11-9.72-22.757-18.014-43.943-24.88-35.729 9.262-62.028 13.243-78.897 11.942-16.87-1.3-46.497-9.594-88.884-24.88v24.88c-47.673-9.083-81.962-13.064-102.866-11.942C6.6 298.472-2.388 304.775.54 316.259l70.908 107.48z" fill="#163A4D"/><g transform="translate(0 294.652)"><ellipse fill="#FBA945" cx="64.097" cy="70.87" rx="64.097" ry="63.875"/><path d="M135.204 68.873c0-35.277-25.693-68.865-61.092-68.865C38.712.008 0 5.651 0 40.928s135.204 63.223 135.204 27.945z" fill="#FAC859"/></g><path d="M294.8 291.35c-40.027 96.396-72.395 165.809-97.103 208.24-24.708 42.43-43.204 60.365-55.488 53.803-.382-3.307-.382-5.632 0-6.975.381-1.342 2.033-5.992 4.954-13.949l-15.854-34.872c-8.805 36.712-11.117 60.293-6.936 70.741 4.182 10.45 17.394 14.102 39.635 10.96 46.68-39.435 77.726-73.312 93.14-101.628 15.414-28.317 35.892-89.095 61.433-182.334l-23.78-3.986z" fill="#F9F082"/></g><g transform="translate(933.367 1069.602)"><path d="M355.94 166.235c-6.91 33.003-28.26 59.205-55.6 68.542.216 1.264.328 2.562.328 3.887v20.129c0 10.36-8.385 18.76-18.73 18.76a18.7 18.7 0 0 1-4.13-.462c-13.368-3.027-22.86-14.924-22.86-28.652v-9.775c0-1.416.129-2.802.374-4.147-26.997-9.563-48.03-35.613-54.863-68.342-.833.14-1.689.214-2.561.214-8.454 0-15.306-6.864-15.306-15.331 0-8.467 6.852-15.331 15.306-15.331.145 0 .29.002.434.006 3.156-49.233 37.711-88.01 79.874-88.01 42.16 0 76.715 38.774 79.874 88.004h.036c8.454 0 15.307 6.864 15.307 15.33 0 8.468-6.853 15.332-15.307 15.332-.738 0-1.465-.053-2.175-.154z" fill="#885B3E"/><g transform="translate(181.677)"><path d="M79.115 193.103c5.015 2.045 8.859 3.24 11.53 3.584 2.67.344 8.104.344 16.3 0" stroke="#CC5C61"/><g transform="translate(62.758 136.448)" fill="#27221B"><ellipse cx="69.631" cy="6.111" rx="5.566" ry="5.973"/><ellipse cx="6.418" cy="6.111" rx="5.566" ry="5.973"/></g><path d="M201.963 81.662c18.427-22.792 17.917-57.202-4.839-75.66-15.238-12.359-28.693-3.923-41.454 9.843 3.253-8.216-20.83 3.98-28.052-1.878-12.917-10.477-35.373-.684-45.833 12.254-6.675 8.256-1.853 2.04-4.369 0-9.811-7.958-15.004-2.171-22.95 7.656-4.03 4.986-8.221-9.193-12.324-3.982-1.957-6.663-14.224 3.982-21.469 3.982C8.048 33.877.398 48.708.398 61.354c0 .499.007.99.022 1.475.732 21.1 2.454 37.957 4.748 50.69.863 4.788 2.057 10.383 3.582 16.787-.004 3.136.718 5.768 1.985 8.054 2.256 8.886 5.039 19.056 8.348 30.51.718-5.499 1.91-9.945 3.578-13.34 1.405-2.86 4.168-6.28 8.286-10.258 5.65-2.443 9.605-8.074 9.605-14.63 0-4.186-1.612-7.994-4.248-10.837 10.371-2.17 18.162-11.38 18.162-22.413 0-8.025-4.121-15.086-10.36-19.174 18.416 4.341 41.842 8.054 48.924 13.798 14.554 11.805 44.078 13.74 70.767 7.536.592 2.696 4.474 5.796 4.77 9.587.72 9.193 7.081 24.694 6.361 44.171 4.821-23.399 1.11-38.103 1.59-41.782.385-2.944.462-7.866.231-14.767 10.914-3.586 20.022-8.676 25.214-15.099z" fill="#27221B"/><path d="M77.241 169.239c10.01 2.96 17.252 4.17 21.724 3.626 4.08-.495 9.112-1.568 13.276-3.626 2.681-1.325 5.039-5.833 3.62-7.253-1.6-1.603-4.227-2.404-7.24-9.671-1.023-2.465-2.23-7.3-3.621-14.506" stroke="#363636"/></g></g><g transform="rotate(45 -443.421 1383.368)"><g transform="translate(244.639 294.221)"><mask id="j" fill="#fff"><use xlink:href="#i"/></mask><use fill="#163747" xlink:href="#i"/><path d="M213.193 363.5c1.157-5.21 1.72-9.533 1.689-12.972-.988-109.587-3.246-183.095-4.192-219.415-1.882-72.233-5.942-110.874-6.08-114.562-.247-6.6-1.94-13.86-5.077-21.78l19.604 2.04c11.746 14.654 14.33 125.473 14.082 134.302-.556 19.87 4.497 175.742 4.294 221.513-.035 7.974-2.02 11.312-2.364 11.33l-21.956-.456zm-139.284-3.146l-21.722-.83c-.335-.02-2.269-3.323-2.303-11.215-.199-45.304 5.577-200.469 5.035-220.136-.24-8.739 2.608-119.238 14.054-133.743L88.39-7.647C84.9.774 83.036 8.25 82.796 14.783c-.135 3.65-4.09 41.895-5.925 113.39-.922 35.95-3.974 109.592-4.936 218.059-.03 3.403.628 8.11 1.974 14.122z" stroke="#67B1AC" stroke-width="2" fill="#67B1AC" mask="url(#j)"/></g><g transform="translate(353.85 156.122)"><g fill="#4C2F1C"><ellipse cx="4.727" cy="8.868" rx="4.727" ry="8.868"/><ellipse cx="60.217" cy="8.868" rx="4.727" ry="8.868"/></g><path d="M24.404 8.391c2.861 16.386-.837 19.983-1.515 37.175-.034.848 1.293 1.297 2.119 1.321 2.962.089 5.879-1.162 8.837-.993 4.587.261 9.02 1.92 13.601 2.274 2.801.215 1.125-5.411-3.072-8.537" stroke="#979797"/><path d="M18.086 67.57c7.98 9.546 29.963 15.988 35.633.127" stroke="#CC5C61"/></g><g transform="translate(281.462 .238)"><g transform="matrix(-1 0 0 1 217.786 .514)"><path d="M113.583 301.74c5.608.347 11.141.735 16.548 1.157-2.549 5.63-9.418 10.983-18.779 14.494a5.977 5.977 0 0 1-4.13 1.455l-.231-.008c-6.04 1.754-12.878 2.762-20.12 2.684-22.394-.241-41.953-7.678-45.205-18.511 5.744-.152 12.593-1.273 18.613-1.26l2.57-.011.291-21.47c-25.067-11.082-44.24-39.57-49.518-73.167a7.139 7.139 0 0 1-2.884.618C4.808 207.72 0 200.139 0 190.788c0-9.352 4.808-16.933 10.738-16.933 1.42 0 2.776.434 4.016 1.223 1.317-4.711 2.592-9.381 2.324-13.607-.225-3.546-4.662-6.66-3.62-9.67 10.986-31.758 41.661-47.982 72.688-47.982 25.457 0 55.894-2.812 69.203 19.352 5.863 9.762 5.718 29.644 5.207 47.225 3.816 2.597 6.486 8.583 6.486 15.554 0 7.599-3.174 14.03-7.547 16.172-1.56 16.555-6.072 31.886-13.93 45.8-8.008 14.182-19.087 24.63-31.669 30.802l-.313 23.016z" fill="#EFDD93"/><g transform="matrix(-1 0 0 1 126.119 175.922)"><path d="M15.225 60.735c8.09 9.445 30.374 15.817 36.121.127" stroke="#CC5C61"/><ellipse fill="#4C2F1C" cx="5.672" cy="9.668" rx="4.792" ry="8.773"/><ellipse fill="#4C2F1C" cx="61.923" cy="9.668" rx="4.792" ry="8.773"/><path d="M26.912 2.541c2.9 16.21-.849 19.768-1.536 36.776-.034.839 1.31 1.282 2.148 1.307 3.003.088 5.959-1.15 8.958-.983 4.65.259 9.144 1.9 13.787 2.25 2.84.213 1.14-5.353-3.114-8.445" stroke="#979797"/></g><path d="M99.87 134.687c-20.609 0-42.91-1.118-59.66-5.543-5.696 6.619-10.405 13.637-14.13 21.055-.705 1.405 2.04 18.051 0 23.243-3.533 8.991-12.493 8.525-14.329 14.212-1.392-28.017-2.03-45.168-1.911-51.453.118-6.286.883-21.167 2.294-44.644v-8.702c0-26.119 38.647-39.347 87.736-39.347 2.123 0 4.229.033 6.315.099 8.432-1.719 15.948-4.148 22.548-7.288 14.211-6.76 26.827-18.477 37.847-35.151V0c.249.003.498.011.748.025 21.922 1.243 48.95 44.56 48.95 80.496 0 34.62-25.085 49.943-46.506 51.402-2.438.36-4.994.674-7.635.948.439 4.834.773 8.592 1.003 11.275.254 2.969-2.875 42.695-5.924 34.866-2.042-5.244-4.673-30.792-5.832-32.975-2.522-4.75-5.383-8.697-8.585-11.842-15.662.645-31.691.492-42.929.492z" fill="#FFC194"/></g><g transform="translate(41.003 155.405)"><path d="M27.375 14.69a1.5 1.5 0 0 0-1.5 1.5v26.578a6.5 6.5 0 0 0 6.5 6.5h36.75a6.5 6.5 0 0 0 6.5-6.5V17.19a2.5 2.5 0 0 0-2.5-2.5h-45.75zm68.512 0a1.5 1.5 0 0 0-1.5 1.5v26.578a6.5 6.5 0 0 0 6.5 6.5h36.75a6.5 6.5 0 0 0 6.5-6.5V17.19a2.5 2.5 0 0 0-2.5-2.5h-45.75z" stroke="#333"/><path d="M95.775 16.732h.65v12.706h-2.716c-.822-2.9-4.406-5.083-8.703-5.083s-7.88 2.183-8.704 5.083h-2.715V16.732h.65c1.568 1.48 5.797 2.54 10.769 2.54s9.201-1.06 10.769-2.54z" fill="#333"/></g></g></g><g transform="rotate(135 440.333 685.754)"><g transform="translate(18.255 216.232)"><path d="M257.479 26.42C269.5 36.537 288.229 221.28 296.224 350.6c1.738 28.105-19.637 52.296-47.741 54.034a50.985 50.985 0 0 1-4.91.066l-183.467-6.353c-8.83-.306-15.742-7.713-15.436-16.544a16 16 0 0 1 .12-1.483C60.653 256.727 68.446 191.785 68.17 185.495c-.4-9.095-10.333-137.929 8.684-153.024C108.94 7 246.452 17.138 257.479 26.419z" fill="#FBE7E9"/><path d="M87.274 26.336C61.009 37.48 45.454 50.257 40.609 64.667c-4.846 14.41-17.987 70.543-39.424 168.399-1.58 19.063-1.58 32.988 0 41.776 1.58 8.788 3.743 36.209 6.49 82.261h73.542l6.057-330.767z" fill="#8295B5"/><g transform="translate(43.146 1.348)" fill="#445B67"><path d="M70.69 424.137c-2.514 4.624-8.474 8.003-17.878 10.138L.274 405.038l1.257-11.388c-.81-1.177 8.14-77.487 11.632-105.435l11.732-106.332c-1.202-19.557-9.244-136.427 8.812-150.76 10.944-8.686 34.149-13.231 60.417-15.081 5.193-.366 5.202 25.743 8.62 31.508 12.57 21.197 5.856 138.439-20.14 351.724-5.674 12.403-9.645 20.69-11.913 24.863z"/><path d="M100.488 0c-3.256 7.522-4.391 13.437-3.405 17.743.986 4.306 6.378 16.98 16.176 38.02 3.349 86.926 3.349 151.138 0 192.636-3.35 41.498-13.85 107.4-31.5 197.705l-28.947-11.829c9.404-2.135 15.364-5.514 17.879-10.138 2.514-4.624 6.203-18.988 11.067-43.09l24.69-313.456C94.729 52.08 88.486 39.97 87.718 31.261 86.95 22.553 91.207 12.132 100.488 0z"/></g><path d="M197.233.386c3.246 7.541 4.378 13.47 3.395 17.787-.983 4.317-6.358 17.022-16.125 38.115-3.338 87.144-3.338 151.517 0 193.118 3.338 41.602 13.805 107.669 31.4 198.2l28.855-11.858c-9.375-2.14-15.315-5.528-17.822-10.164-2.507-4.635-6.184-19.035-11.033-43.197l-24.61-314.24c11.68-15.551 17.904-27.692 18.67-36.422.765-8.73-3.478-19.176-12.73-31.34z" fill="#445B67"/></g><g transform="rotate(-16 833.772 114.75)" fill="#8D4763" stroke="#7FB7B5"><path d="M121.29 23.858C134.487 8.866 147.112.914 159.167 0c3.663 10.638 5.668 18.01 6.015 22.115.407 4.82-4.28 9.326-3.545 12.438 2.169 9.183 7.11 22.072 14.821 38.666-11.515 18.447-18.926 32.158-22.232 41.134-3.306 8.976-33.772 98.1-91.398 267.372-16.321 2.042-27.849 2.042-34.583 0-6.733-2.042-8.929-5.607-6.587-10.695l74.93-205.67-79.87 212.252c-3.328 3.994-5.694 6.342-7.099 7.044-1.404.702-3.979.822-7.723.36-2.528-31.256-2.528-55.936 0-74.042 2.529-18.105 9.116-40.592 19.762-67.46 10.492-34.749 19.55-60.526 27.172-77.332 7.623-16.806 31.776-64.247 72.46-142.324z"/><path d="M191.532 67.776c8.567-19.389 14.23-42.675 20.968-38.44 6.06 3.81 8.21 25.626 4.014 44.724 1.094.08 2.088.39 2.97.945 9.654 6.07.481 38.357-20.487 72.118-9.577 15.42-19.826 41.022-29.198 50.083-3.919 3.788-8.879 5.987-13.892 7.103-13.763 27-23.776 48.152-30.04 63.457-6.771 16.544-10.374 44.112-10.81 82.703-.021 4.093-.293 6.843-.816 8.252-.522 1.408-1.882 3.058-4.08 4.95-3.68-3.522-6.945-5.172-9.793-4.95-2.849.221-6.657 2.422-11.426 6.6l13.16-76.46-13.16 71.51c-3.627 2.2-6.347 3.3-8.16 3.3-1.814 0-4.807-1.1-8.978-3.3l38.557-168.518c4.515-18.868 12.948-36.746 25.3-53.634 11.673-15.963 30.297-39.444 55.87-70.443z"/></g><path d="M110.577 109.038c-1.369-7.591-2.746-14.978-.64-20.977 10.795-30.752 44.547-46.849 75.034-46.849 25.014 0 54.922-2.723 68 18.74 5.76 9.453 5.619 28.705 5.116 45.73 3.75 2.515 6.374 8.312 6.374 15.062 0 7.359-3.12 13.585-7.416 15.66-1.534 16.03-5.967 30.877-13.688 44.35-8.12 14.17-19.45 24.49-32.302 30.386.565 1.654.844 3.437.779 5.288l-.981 27.93c-.288 8.188-7.197 14.595-15.433 14.309l-20.004-.695c-8.236-.286-14.68-7.156-14.392-15.344l.981-27.93c.032-.902.144-1.782.329-2.633-24.616-10.741-43.442-38.317-48.625-70.838a7.102 7.102 0 0 1-2.834.599c-5.828 0-10.552-7.342-10.552-16.398 0-8.9 4.564-16.145 10.254-16.39z" fill="#EDB597"/><g transform="translate(136.53 203.985)" fill="#8D4763"><path d="M72.424 49.867C84.817 30.034 86.683 13.97 78.376 8.78c-5.37-3.355-2.351 11.013-8.357 26.59-3.283 8.516-19.783 14.128-24.164 21.139-.097.155-9.253 42.087-4.863 46.546 6.678 6.784 23.954-41.221 31.432-53.188zM12.552.068c3.645 16.23 7.668 27.512 12.069 33.848 4.4 6.336 11.48 13.267 21.24 20.792-2.319 1.45-3.928 2.255-4.827 2.418-.898.163-14.415 2.097-40.551 5.802L12.552.068z"/></g><g transform="translate(163.082 113.632)"><path d="M42.604 10.016c6.074 30.484 17.507 41.167-9.97 39.976" stroke="#55383C"/><path d="M15.062 62.601c21.245 9.368 11.154 9.36 30.124 3.358" stroke="#CC5C61"/><g fill="#55383C"><ellipse cx="57.738" cy="5.008" rx="5.021" ry="5.008"/><ellipse cx="5.021" cy="5.008" rx="5.021" ry="5.008"/></g></g><g transform="translate(88.254)"><path d="M161.724 74.949c2.408 2.85 4.017 19.774 4.827 50.771 2.413-10.847 3.832-18.1 4.257-21.759.803-6.924-.686-9.707 0-14.023.237-1.497.425-3.845.57-5.319.405-4.092.215-9.733-.57-16.923-7.297 3.367-10.325 5.785-9.084 7.253zm-147.503 37.9c4.268 1.686 7.332 3.63 9.193 5.832 2.408 2.85 5.224 11.644 8.448 26.38.36-15.86.36-27.95 0-36.265-.36-8.315.445-15.568 2.414-21.759-8.17 2.724-13.802 5.213-16.897 7.467-2.9 2.113-5.203 7.203-6.908 15.269-.114.538 2.494 2.58 3.75 3.076z" fill="#87857C"/><path d="M86.167 0C62.642 5.81 47.008 11.451 39.264 16.924c-7.392 5.224-19.458 18.68-36.198 40.366a13 13 0 0 0-2.687 7.172c-.582 9.79-.494 16.51.265 20.157.858 4.127 5.471 16.216 13.839 36.266-.284-5.918-.07-9.947.644-12.089.712-2.141 3.126-6.17 7.24-12.088l4.828 4.835c1.525 1.527 3.939 4.75 7.242 9.671-1.422-.038-1.422-3.261 0-9.67 1.422-6.41 4.64-10.44 9.655-12.09l4.827 12.09c1.405-5.561 3.014-9.591 4.828-12.09 1.814-2.497 6.642-7.333 14.483-14.505L60.988 94.29c18.986-20.178 33.468-32.267 43.449-36.265 9.98-3.999 22.853-3.999 38.62 0-2.592 2.953-4.201 5.37-4.827 7.253-.627 1.882-1.431 6.717-2.414 14.506 2.602-4.019 4.613-6.437 6.034-7.253 6.545-3.761 11.096-2.599 12.632-2.418 3.054.36 6.2 4.332 7.242 7.253.694 1.948 3.912 10.813 9.655 26.595l3.057-55.607c-12.938-19.895-23.398-31.983-31.379-36.266-7.98-4.282-19.245-6.7-33.793-7.253L86.167 0z" fill="#FAF389"/></g></g></g></g></g></g></g></svg>