<svg height="64" viewBox="0 0 64 64" width="64" xmlns="http://www.w3.org/2000/svg" xmlns:xlink="http://www.w3.org/1999/xlink"><linearGradient id="a" x1="50%" x2="50%" y1="0%" y2="100%"><stop offset="0" stop-color="#009cf3"/><stop offset="1" stop-color="#16d6d9"/></linearGradient><linearGradient id="b" x1="100%" x2="0%" y1="50%" y2="50%"><stop offset="0" stop-color="#05a9ee"/><stop offset="1" stop-color="#08b1ea"/></linearGradient><linearGradient id="c" x1="100%" x2="0%" y1="50%" y2="50%"><stop offset="0" stop-color="#009cf3"/><stop offset="1" stop-color="#05a9ee"/></linearGradient><g fill="none" fill-rule="evenodd"><rect fill="#fff" height="64" rx="4" width="64"/><g transform="translate(14 7)"><g stroke="url(#a)" stroke-linecap="round" stroke-linejoin="round" stroke-width="2"><path d="m8.78318277 0h-7.78318277v50h7.78318277"/><path d="m17 18.0381509v-10.0381509h18.0651629v-8h-26.0651629v50h8z"/><path d="m1 13h21c4.3571429 0 7.5 1.2380952 9.9761905 3.8888889 2.1111111 2.2301587 3.0238095 5.8492063 3.0238095 10.8968254v22.2142857h-8v-.278015-20.0076993c0-3.515873-.4206349-5.6190476-1.4126984-6.984127-1-1.4206349-2.9285714-1.6746031-5.4206349-1.7301587h-11.1666667"/></g><path d="m8 20h4v2h-4z" fill="url(#b)"/><path d="m0 12h4v2h-4z" fill="url(#c)"/></g></g></svg>