<?xml version="1.0" encoding="UTF-8"?>
<svg width="1905px" height="739px" viewBox="0 0 1905 739" version="1.1" xmlns="http://www.w3.org/2000/svg" xmlns:xlink="http://www.w3.org/1999/xlink">
    <!-- Generator: Sketch 49.3 (51167) - http://www.bohemiancoding.com/sketch -->
    <title>infact-logo</title>
    <desc>Created with Sketch.</desc>
    <defs>
        <linearGradient x1="50%" y1="0%" x2="50%" y2="100%" id="linearGradient-1">
            <stop stop-color="#08B0EB" offset="0%"></stop>
            <stop stop-color="#16D6D9" offset="100%"></stop>
        </linearGradient>
        <linearGradient x1="50%" y1="2.62825145%" x2="50%" y2="100%" id="linearGradient-2">
            <stop stop-color="#009CF3" offset="0%"></stop>
            <stop stop-color="#16D6D9" offset="100%"></stop>
        </linearGradient>
        <linearGradient x1="50%" y1="0%" x2="50%" y2="100%" id="linearGradient-3">
            <stop stop-color="#009CF3" offset="0%"></stop>
            <stop stop-color="#16D6D9" offset="100%"></stop>
        </linearGradient>
        <linearGradient x1="50%" y1="0%" x2="0%" y2="0%" id="linearGradient-4">
            <stop stop-color="#009CF3" offset="0%"></stop>
            <stop stop-color="#08B1EA" offset="100%"></stop>
        </linearGradient>
        <linearGradient x1="50%" y1="0%" x2="0%" y2="0%" id="linearGradient-5">
            <stop stop-color="#009CF3" offset="0%"></stop>
            <stop stop-color="#05A8EE" offset="100%"></stop>
        </linearGradient>
    </defs>
    <g id="logo" stroke="none" stroke-width="1" fill="none" fill-rule="evenodd" stroke-linecap="round" stroke-linejoin="round">
        <g id="Artboard" transform="translate(-347.000000, -1511.000000)" stroke-width="13">
            <g id="infact-logo" transform="translate(354.000000, 1518.000000)">
                <g id="T" transform="translate(1210.000000, 0.000000)">
                    <polyline id="right_lower_t" stroke="url(#linearGradient-1)" points="597.1 724.3 597.1 361.1 681.3 361.1 681.3 256.4 597.1 256.4"></polyline>
                    <path d="M597.1,255.4 L597.1,0.9 L483.9,0.9 L483.9,255.2 L439.5,255.2 L438.3,357.9 C395.2,294.3 322.9,252.4 239.9,252.4 C107.9,252.4 0.6,355.4 0.6,487.4 C0.6,619.4 107.9,724.6 239.9,724.6 L483.9,723.5 L483.9,360.1 L482.3,358.2 L439.5,358.2" id="left_t__x26__c" stroke="url(#linearGradient-2)"></path>
                </g>
                <path d="M1510.7,611 C1492,620.4 1471.7,625 1449.9,625 C1374.1,625 1312.6,563.5 1312.6,487.7 C1312.6,411.9 1374.1,354.4 1449.9,354.4 C1497.3,354.4 1539.1,374.7 1563.8,411.2" id="C" stroke="url(#linearGradient-3)"></path>
                <g id="A" transform="translate(664.000000, 260.000000)" stroke="url(#linearGradient-3)">
                    <path d="M478.6,461.1 L478.6,0.6 M474.3,0.6 L189.6,0.9 C155.3,0.9 102.9,19.6 61.7,64.9 C18.1,110.2 -2.27373675e-13,166 -2.27373675e-13,233.4 C-2.27373675e-13,302 18.7,359.8 61.2,405.6 C103.9,450.8 156.7,461.8 222.2,461.8 L477.1,460.9" id="outer_a"></path>
                    <path d="M381.9,373.8 L381.9,101.1 M381.9,99.2 L233,99.9 C195.6,99.9 165.9,109.9 141.3,136.1 C116.3,162.3 104.5,195.4 104.5,234.4 C104.5,274.3 117,307.7 141.9,334.2 C166.9,360.7 196.2,373.8 234.6,373.8 L381.9,373.8" id="inner_a"></path>
                </g>
                <g id="F" transform="translate(116.000000, 0.000000)">
                    <polyline id="main_f" stroke="url(#linearGradient-3)" points="412 259.5 412 110.8 674 108.9 674 2.3 299.6 0.4 299.6 719.7"></polyline>
                    <path d="M299.1,722.4 L408.9,722.4 L408.9,444.1 C408.9,380.5 397.4,334.9 370.8,306.8 C339.6,273.4 297.8,257.8 242.9,257.8 L0.2,259" id="right_outer_n" stroke="url(#linearGradient-3)"></path>
                    <path d="M1026.6,260.6 L412,260.6" id="f_to_a__x28_higher_x29_" stroke="url(#linearGradient-4)"></path>
                    <path d="M401,360.5 L929.4,360.5" id="f_to_a__x28_lower_x29_" stroke="url(#linearGradient-5)"></path>
                </g>
                <g id="N" transform="translate(113.000000, 259.000000)" stroke="url(#linearGradient-3)">
                    <path d="M113.9,462.1 L113.3,98.8 L216.3,98.8 C247.7,99.5 272.3,103.5 284.9,121.4 C297.4,138.6 302.7,165.1 302.7,209.4 L302.7,443.2" id="inner_n"></path>
                    <polyline id="left_outer_n" points="0 0.4 0 463.4 110.8 463.4"></polyline>
                </g>
                <g id="I" transform="translate(0.000000, 1.000000)" stroke="url(#linearGradient-3)">
                    <polyline id="right_i" points="0.1 721.4 113 721.4 113 2.3"></polyline>
                    <polyline id="left_i" points="111.4 0.5 0.6 0.5 0.6 721.3"></polyline>
                </g>
            </g>
        </g>
    </g>
</svg>