<svg height="60" viewBox="0 0 153 60" width="153" xmlns="http://www.w3.org/2000/svg"><g style="stroke:#fff;stroke-width:2;fill:none;fill-rule:evenodd;stroke-linecap:round;stroke-linejoin:round" transform="translate(1 1)"><g transform="translate(96.030178)"><path d="m23.9240055 48.611797c-1.4877915.7478738-3.1028807 1.1138546-4.8373114 1.1138546-6.030727 0-10.92373114-4.8930041-10.92373114-10.9237312 0-6.030727 4.89300414-10.6054869 10.92373114-10.6054869 3.7711934 0 7.096845 1.6150891 9.0620027 4.5190672"/><path d="m47.5058985 57.5624143v-28.7016461h6.794513v-8.5408779h-6.794513v-20.24828536h-9.00631v20.23237316h-3.5325103l-.0954733 8.170919c-3.4290809-5.0600823-9.1813443-8.39369-15.7849108-8.39369-10.50205761 0-19.03895747 8.1947874-19.03895747 18.696845s8.53689986 18.8718793 19.03895747 18.8718793l19.4128944-.0875171v-28.9124829l-.1272977-.151166h-3.4052126"/></g><path d="m90.6359863 20.7654321.2227243 36.6060667-20.2758591.0715739c-5.210156 0-9.4100985-.8747919-12.806643-4.4693916-3.3806356-3.6423156-4.8681152-8.2389496-4.8681152-13.6944703 0-5.3600889 1.439753-9.7976698 4.9078874-13.4002221 3.2772279-3.6025523 7.4453527-5.0896986 10.1737245-5.0896986zm-7.3498994 7.8413169-11.8441562.0556686c-2.9749593 0-5.337427.7952654-7.2942184 2.8788608-1.9886092 2.0835953-2.9272327 4.7159238-2.9272327 7.8174589 0 3.173109.9943046 5.8292955 2.9749593 7.9367488 1.9886092 2.1074533 4.3192591 3.149251 7.3737628 3.149251h11.7168852z"/><path d="m40.8943759 28.6459534h42.3463648m7.4190673 0v-7.9998629h-48.8902607v-11.83072699l20.8449932-.15116598v-8.48120713l-29.7876544-.15116598v57.22825788"/><path d="m32.81893 37.2823045c0-3.5245542-.4216735-5.6329218-1.4161865-7.0013717-1.0024692-1.4241427-2.9596708-1.7423868-5.4578875-1.7980796h-8.1947874l.0002993.1812446-.0241676 28.8267115h-8.73580249v-36.8685871l19.30946499-.0954732c4.3679013 0 7.6935528 1.2411522 10.1758574 3.8984911 2.1163237 2.2356652 3.0312757 5.8636488 3.0312757 10.9237311v22.1418381h-8.6085048l-.0795611-.1514038z"/><path d="m0 57.4828532h8.91083676v-57.24417007h-8.91083676z"/></g></svg>