<?xml version="1.0" encoding="UTF-8"?>
<svg width="152px" height="60px" viewBox="0 0 152 60" version="1.1" xmlns="http://www.w3.org/2000/svg" xmlns:xlink="http://www.w3.org/1999/xlink">
    <!-- Generator: Sketch 50.2 (55047) - http://www.bohemiancoding.com/sketch -->
    <title>infact</title>
    <desc>Created with Sketch.</desc>
    <defs>
        <linearGradient x1="50%" y1="0%" x2="50%" y2="100%" id="linearGradient-1">
            <stop stop-color="#009CF3" offset="0%"></stop>
            <stop stop-color="#16D6D9" offset="100%"></stop>
        </linearGradient>
    </defs>
    <g id="logo" stroke="none" stroke-width="1" fill="none" fill-rule="evenodd" stroke-linecap="round" stroke-linejoin="round">
        <g id="new" transform="translate(-676.000000, -1099.000000)" stroke="url(#linearGradient-1)" stroke-width="2">
            <g id="infact" transform="translate(677.000000, 1100.000000)">
                <g id="CT" transform="translate(95.793651, 0.000000)">
                    <path d="M23.8650794,48.4920635 C22.3809524,49.2380952 20.7698413,49.6031746 19.0396825,49.6031746 C13.0238095,49.6031746 8.14285714,44.7222222 8.14285714,38.7063492 C8.14285714,32.6904762 13.0238095,28.1269841 19.0396825,28.1269841 C22.8015873,28.1269841 26.1190476,29.7380952 28.0793651,32.6349206" id="C"></path>
                    <path d="M47.3888889,57.4206349 L47.3888889,28.7896825 L54.1666667,28.7896825 L54.1666667,20.2698413 L47.3888889,20.2698413 L47.3888889,0.0714285714 L38.4047619,0.0714285714 L38.4047619,20.2539683 L34.8809524,20.2539683 L34.7857143,28.4047619 C31.3650794,23.3571429 25.6269841,20.031746 19.0396825,20.031746 C8.56349206,20.031746 0.0476190476,28.2063492 0.0476190476,38.6825397 C0.0476190476,49.1587302 8.56349206,57.5079365 19.0396825,57.5079365 L38.4047619,57.4206349 L38.4047619,28.5793651 L38.2777778,28.4285714 L34.8809524,28.4285714"></path>
                </g>
                <path d="M90.412745,20.7142857 L90.6349206,57.2301897 L70.4090021,57.3015873 C65.211679,57.3015873 61.0220812,56.42895 57.6339026,52.8432041 C54.2615937,49.2098597 52.7777778,44.6245474 52.7777778,39.182464 C52.7777778,33.8355773 54.2139846,29.4089263 57.6735768,25.8152473 C60.9427327,22.2215683 65.1005912,20.7380849 67.8222428,20.7380849 L90.412745,20.7142857 Z M83.0809487,28.536289 L71.2659653,28.5918205 C68.2983335,28.5918205 65.9416847,29.3851271 63.989713,31.4635905 C62.0060019,33.5420539 61.0696902,36.1678988 61.0696902,39.2617946 C61.0696902,42.4270881 62.0615458,45.0767322 64.037322,47.1789948 C66.0210332,49.2812573 68.3459426,50.320489 71.3929229,50.320489 L83.0809487,50.320489 L83.0809487,28.536289 Z" id="A"></path>
                <path d="M40.7936508,28.5753968 L83.0555556,28.5753968 L83.0555556,41.1904762 L83.0555556,50.1190476 M90.4365079,57.1190476 L90.4365079,20.5952381 L41.6666667,20.5952381 L41.6666667,8.79365079 L62.4603175,8.64285714 L62.4603175,0.182539683 L32.7460317,0.0317460317 L32.7460317,57.1190476" id="F"></path>
                <path d="M32.7380952,37.1904762 C32.7380952,33.6746032 32.3174603,31.5714286 31.3253968,30.2063492 C30.3253968,28.7857143 28.3730159,28.468254 25.8809524,28.4126984 L17.7063492,28.4126984 L17.7066478,28.5934965 L17.6825397,57.3492063 L8.96825397,57.3492063 L8.96825397,20.5714286 L28.2301587,20.4761905 C32.5873016,20.4761905 35.9047619,21.7142857 38.3809524,24.3650794 C40.4920635,26.5952381 41.4047619,30.2142857 41.4047619,35.2619048 L41.4047619,57.3492063 L32.8174603,57.3492063 L32.7380952,57.1981755 L32.7380952,37.1904762 Z" id="N"></path>
                <polygon id="I" points="0 57.3412698 8.88888889 57.3412698 8.88888889 0.238095238 0 0.238095238"></polygon>
            </g>
        </g>
    </g>
</svg>