<svg height="60" viewBox="0 0 152 60" width="152" xmlns="http://www.w3.org/2000/svg" xmlns:xlink="http://www.w3.org/1999/xlink"><linearGradient id="a" x1="50%" x2="50%" y1="0%" y2="100%"><stop offset="0" stop-color="#009cf3"/><stop offset="1" stop-color="#16d6d9"/></linearGradient><g style="stroke-width:2;stroke:url(#a);fill:none;fill-rule:evenodd;stroke-linecap:round;stroke-linejoin:round" transform="translate(1 1)"><g transform="translate(95.793651)"><path d="m23.8650794 48.4920635c-1.484127.7460317-3.0952381 1.1111111-4.8253969 1.1111111-6.015873 0-10.89682536-4.8809524-10.89682536-10.8968254s4.88095236-10.5793651 10.89682536-10.5793651c3.7619048 0 7.0793651 1.6111111 9.0396826 4.5079365"/><path d="m47.3888889 57.4206349v-28.6309524h6.7777778v-8.5198412h-6.7777778v-20.19841273h-8.984127v20.18253973h-3.5238095l-.0952381 8.1507936c-3.4206349-5.047619-9.1587302-8.3730159-15.7460318-8.3730159-10.47619044 0-18.99206345 8.1746032-18.99206345 18.6507937s8.51587301 18.8253968 18.99206345 18.8253968l19.3650794-.0873016v-28.8412698l-.1269841-.1507937h-3.3968254"/></g><path d="m90.412745 20.7142857.2221756 36.515904-20.2259185.0713976c-5.1973231 0-9.3869209-.8726373-12.7750995-4.4583832-3.3723089-3.6333444-4.8561248-8.2186567-4.8561248-13.6607401 0-5.3468867 1.4362068-9.7735377 4.895799-13.3672167 3.2691559-3.593679 7.4270144-5.0771624 10.148666-5.0771624zm-7.3317963 7.8220033-11.8149834.0555315c-2.9676318 0-5.3242806.7933066-7.2762523 2.87177-1.9837111 2.0784634-2.9200228 4.7043083-2.9200228 7.7982041 0 3.1652935.9918556 5.8149376 2.9676318 7.9172002 1.9837112 2.1022625 4.3086206 3.1414942 7.3556009 3.1414942h11.6880258z"/><path d="m40.7936508 28.5753968h42.2619048v12.6150794 8.9285714m7.3809523 7v-36.5238095h-48.7698412v-11.80158731l20.7936508-.15079365v-8.46031746l-29.7142858-.15079365v57.08730157"/><path d="m32.7380952 37.1904762c0-3.515873-.4206349-5.6190476-1.4126984-6.984127-1-1.4206349-2.9523809-1.7380952-5.4444444-1.7936508h-8.1746032l.0002986.1807981-.0241081 28.7557098h-8.71428573v-36.7777777l19.26190473-.0952381c4.3571429 0 7.6746032 1.2380952 10.1507937 3.8888889 2.1111111 2.2301587 3.0238095 5.8492063 3.0238095 10.8968254v22.0873015h-8.5873016l-.0793651-.1510308z"/><path d="m0 57.3412698h8.88888889v-57.10317456h-8.88888889z"/></g></svg>