<?xml version="1.0" encoding="UTF-8"?>
<svg width="1440px" height="612px" viewBox="0 0 1440 612" version="1.1" xmlns="http://www.w3.org/2000/svg" xmlns:xlink="http://www.w3.org/1999/xlink">
    <!-- Generator: Sketch 49.3 (51167) - http://www.bohemiancoding.com/sketch -->
    <title>image_1</title>
    <desc>Created with Sketch.</desc>
    <defs>
        <rect id="path-1" x="0" y="0" width="1440" height="612"></rect>
        <linearGradient x1="0%" y1="0%" x2="100%" y2="100%" id="linearGradient-3">
            <stop stop-color="#9155C7" offset="0%"></stop>
            <stop stop-color="#C965A6" offset="52.9829208%"></stop>
            <stop stop-color="#FF8077" offset="100%"></stop>
        </linearGradient>
        <polygon id="path-4" points="1458 0 1458 651 -1.13686838e-13 651 -1.13686838e-13 0"></polygon>
        <filter x="-1.0%" y="-1.5%" width="101.9%" height="104.3%" filterUnits="objectBoundingBox" id="filter-6">
            <feOffset dx="0" dy="4" in="SourceAlpha" result="shadowOffsetOuter1"></feOffset>
            <feGaussianBlur stdDeviation="4" in="shadowOffsetOuter1" result="shadowBlurOuter1"></feGaussianBlur>
            <feComposite in="shadowBlurOuter1" in2="SourceAlpha" operator="out" result="shadowBlurOuter1"></feComposite>
            <feColorMatrix values="0 0 0 0 0.0470588235   0 0 0 0 0   0 0 0 0 0.2  0 0 0 0.1 0" type="matrix" in="shadowBlurOuter1"></feColorMatrix>
        </filter>
        <path d="M6.17940588,83.8448981 C36.0303537,84.9570688 35.6002584,86.2751965 66.1898855,81.7040641 C78.8628266,79.8102949 90.404508,74.8713012 101.087535,67.4729603 C110.828141,60.7272756 120.405239,53.5026799 128.611991,44.881718 C163.400897,8.33695229 67.5357717,-2.16940976 49.4858279,0.355997765 C28.403631,3.30565451 13.9454804,22.5876307 5.40981341,41.3039851 C-2.03219763,57.6222547 0.293786952,62.1428831 0.519177433,80.6989606 L6.17940588,83.8448981 Z" id="path-7"></path>
        <path d="M24.2958052,267.428149 C14.7981542,261.356524 8.39581851,250.872055 7.95038126,238.846579 C7.73064871,232.914456 -0.778974692,141.728314 0.405761085,78.1016515 C0.985417482,46.9709953 6.25278493,22.5384888 11.3613104,17.7212419 C17.2370584,12.1805179 21.2342063,7.77955367 33.5826512,4.58232552 C49.8806403,0.362491368 84.6438821,0.640097031 103.469077,0.361417937 C134.072562,-0.0916212899 154.046121,0.680090659 165.074603,0.361417937 C188.027054,-0.301803009 209.948132,8.70594667 218.964747,17.7212419 C239.269951,38.0234733 233.932792,58.5451813 233.931248,62.6267491 C233.926007,76.4760972 234.918661,103.723247 233.931248,132.40737 C232.116829,185.115771 227.794952,244.514362 227.822169,247.535494 C227.911191,257.416871 223.399924,266.265852 216.289653,272.041501 L216.289653,293.66341 L202.626942,306.645671 C179.232349,309.803104 159.113362,311.251256 142.26998,310.990129 C125.426599,310.729002 98.8407945,308.556773 62.5125672,304.473443 L25.1539699,298.944296 L22.8046224,267.422004 L24.2958052,267.428149 Z" id="path-9"></path>
    </defs>
    <g id="assets" stroke="none" stroke-width="1" fill="none" fill-rule="evenodd">
        <g id="Artboard-2" transform="translate(-64.000000, -58.000000)">
            <g id="image_1" transform="translate(64.000000, 58.000000)">
                <g id="charachters">
                    <mask id="mask-2" fill="white">
                        <use xlink:href="#path-1"></use>
                    </mask>
                    <use id="Mask" fill="#D8D8D8" xlink:href="#path-1"></use>
                    <g mask="url(#mask-2)">
                        <g transform="translate(-8.000000, -24.000000)">
                            <mask id="mask-5" fill="white">
                                <use xlink:href="#path-4"></use>
                            </mask>
                            <g id="background" stroke="none" fill="none">
                                <use fill="black" fill-opacity="1" filter="url(#filter-6)" xlink:href="#path-4"></use>
                                <use fill-opacity="0.66" fill="url(#linearGradient-3)" fill-rule="evenodd" xlink:href="#path-4"></use>
                            </g>
                            <g id="inside" stroke="none" stroke-width="1" fill="none" fill-rule="evenodd" mask="url(#mask-5)">
                                <g transform="translate(-313.000000, -562.000000)" id="charachters">
                                    <g>
                                        <g id="avatar_1" transform="translate(1482.865225, 1242.962351) rotate(-45.000000) translate(-1482.865225, -1242.962351) translate(1164.865225, 727.462351)">
                                            <g id="bottom" transform="translate(222.169181, 518.953501)" fill="#573463">
                                                <path d="M24.6430887,1.61387395 C24.6430887,3.85592009 12.2800269,9.99540671 6.41759291,27.0323887 C4.69933759,32.0258582 4.69933759,42.1125704 6.41759291,57.2925253 C1.15091939,115.348367 -0.8741357,153.274405 0.342427652,171.070639 C1.558991,188.866873 11.4396765,263.706609 29.9844841,395.589845 L70.3084455,395.589845 C71.6209802,315.958905 77.0547565,246.969463 86.6097744,188.621518 C96.1647923,130.273574 106.290068,105.661996 116.985601,114.786785 L159.22795,386.269666 L201.619807,386.269666 C212.386543,316.666589 219.006088,260.668851 221.478443,218.276452 C223.950798,175.884053 223.950798,117.179388 221.478443,42.162457 C217.594176,32.3640836 214.151583,25.5051193 211.150662,21.5855641 C208.149742,17.6660089 202.479587,12.6226528 194.1402,6.45549581 C81.1421256,8.8817842e-16 24.6430887,-1.61387395 24.6430887,1.61387395 Z" id="trousers"></path>
                                            </g>
                                            <path d="M261.419166,65.6764906 C266.134009,37.724751 282.561226,33.808844 310.969398,32.9055374 C332.451258,32.2224695 353.953027,32.1321783 375.44501,32.3160363 C386.351562,32.4093389 400.628732,32.3288193 410.048107,39.581727 C421.00558,48.0189683 420.29716,76.0888249 420.461669,84.7731898 C420.87349,106.513041 421.069615,196.764932 417.829271,228.068957 C417.531977,230.941029 408.541399,233.869532 407.60909,234.126713 C393.537468,238.00843 389.692599,238.336786 375.218997,238.767979 C333.446082,240.012463 328.635858,239.33077 280.387416,235.982014 C273.924145,235.533421 265.695051,232.172518 261.721323,227.011713 C258.092205,222.298463 257.909072,219.151189 257.917762,212.815467 C257.988344,161.359735 254.37916,107.092133 264.151879,55.8177187" id="hair" fill="#6471E8"></path>
                                            <g id="upper" transform="translate(317.895852, 519.445788) rotate(-345.000000) translate(-317.895852, -519.445788) translate(110.895852, 64.945788)">
                                                <g id="top" transform="translate(193.995496, 349.159341) rotate(-15.000000) translate(-193.995496, -349.159341) translate(47.995496, 144.659341)">
                                                    <path d="M220.582684,21.5966809 C230.882314,30.3132296 246.926725,189.449776 253.775927,300.845603 C253.775927,300.845603 253.775927,300.845603 253.775927,300.845603 L253.775927,300.845603 C255.264642,325.058154 236.843333,345.893147 212.630781,347.381862 C211.22451,347.468327 209.814893,347.487079 208.40682,347.438053 L53.9928557,342.061649 C45.1616503,341.754164 38.25181,334.345791 38.5592954,325.514586 C38.5763885,325.023657 38.6160811,324.533776 38.6782469,324.0465 C52.0617282,219.142243 58.6358041,164.001376 58.4004746,158.623897 C58.0576229,150.789446 49.5486285,39.8128122 65.8400255,26.8096728 C93.3295962,4.86860059 211.135948,13.601933 220.582684,21.5966809 Z" id="shirt" fill="#FEFEFE"></path>
                                                    <path d="M220.582684,21.5966809 C230.882314,30.3132296 230.100494,146.647274 236.949696,258.043101 C236.949696,258.043101 236.949696,258.043101 236.949696,258.043101 L236.949696,258.043101 C237.143378,261.193142 234.746774,263.903764 231.596733,264.097446 C228.897938,264.263382 226.452234,262.515088 225.735838,259.907827 C193.152195,141.322436 175.618106,73.9249168 173.133577,57.7152679 C172.057105,50.6921141 175.463937,37.7594585 175.573401,34.6291607 C175.994313,22.5925377 167.039649,13.4665677 173.133577,13.8460819 C197.413041,15.3581449 216.961037,18.5316903 220.582684,21.5966809 Z" id="Rectangle-5" fill="#E0AAAA"></path>
                                                    <path d="M165.864787,0.744713134 C174.882693,11.8724063 181.801576,19.1507178 186.621437,22.5796478 C191.441298,26.0085777 198.608166,28.6792887 208.122041,30.5917808 L178.239845,64.8254403 L254.767421,376.570254 L234.332447,408.660382 L165.120832,57.541683 C169.493837,48.1537291 171.680339,40.8699717 171.680339,35.690411 C171.680339,30.5108502 169.741822,18.8622842 165.864787,0.744713134 Z" id="Path-30" fill="#F67089"></path>
                                                    <path d="M40.927825,306.446603 L6.57451797,306.446603 C4.22212313,266.777011 2.36905333,243.157213 1.01530857,235.587209 C-0.338436191,228.017205 -0.338436191,216.021811 1.01530857,199.601025 C19.3803799,115.308359 30.6384256,66.9557887 34.7894456,54.5433123 C38.9404656,42.130836 52.2664792,31.1247521 74.7674866,21.5250606 L74.7619512,21.8290284 C85.3618016,17.5074385 100.744498,15.0116998 117.599058,13.8183085 C122.048101,13.5032929 122.056088,35.993344 124.984455,40.9592224 C135.752005,59.2186631 130.00043,160.209809 107.729731,343.932661 C102.869403,354.616828 99.4674021,361.755772 97.5237275,365.349493 C95.3693984,369.3327 90.2638351,372.243851 82.2070375,374.082947 L37.1977545,348.898103 L38.2741965,339.088011 C37.5806233,338.074798 37.192839,336.838699 37.2387645,335.516995 C38.5299698,325.359587 39.75927,315.674222 40.927825,306.446603 Z" id="Combined-Shape" fill="#E0AAAA"></path>
                                                    <path d="M123.051544,0 C120.261733,6.47980109 119.289245,11.5743159 120.134079,15.2835445 C120.978914,18.9927731 125.598233,29.9095907 133.992037,48.0339971 C136.86103,122.911628 136.86103,178.223503 133.992037,213.969624 C131.123044,249.715744 122.127527,306.483195 107.005488,384.271977 L82.2070375,374.082947 C90.2638351,372.243851 95.3693984,369.3327 97.5237275,365.349493 C99.6780565,361.366287 102.838643,348.993893 107.005488,328.232314 L128.157107,58.2230268 C118.117523,44.8610619 112.768837,34.4294363 112.111051,26.9281499 C111.453265,19.4268635 115.100096,10.4508135 123.051544,0 Z" id="Path-31" fill="#F67089"></path>
                                                    <path d="M216.118954,18.9901849 C238.702748,28.6251961 252.077792,39.6717743 256.244085,52.1299194 C260.410377,64.5880644 271.709844,113.118537 290.142485,197.721337 C291.501211,214.202539 291.501211,226.242068 290.142485,233.839924 C288.78376,241.43778 287.291381,271.412167 285.665348,323.763084 L222.429165,323.763084 L216.118954,18.9901849 Z" id="Path-16" fill="#E0AAAA"></path>
                                                </g>
                                                <g id="body_change_colour" transform="translate(54.564702, 0.114487)" fill="#E8E8E8">
                                                    <path d="M10.2761523,109.041672 C6.32688631,109.184992 2.22617277,105.254913 0.711449685,99.5929893 C-0.924664187,93.4773162 1.06078019,87.6005724 5.15332839,86.245839 C3.96726856,81.0047081 2.67471867,75.4252743 1.54717762,69.4140634 C0.655344434,64.6594717 33.1044312,47.3266317 65.6433198,34.3704458 C67.8084153,33.508358 71.0958183,1.21446476 73.2522428,0.395525676 C75.5800084,-0.48848308 83.1938387,29.4546023 85.4690401,29.0483852 C98.860477,26.6574623 113.310376,13.9716511 115.207621,21.0652942 C117.104866,28.1589373 138.603786,72.7091129 138.603786,99.2270444 C138.603786,121.391974 125.513159,136.274642 106.691527,144.461228 L111.801347,166.629136 C113.342803,173.316424 109.179803,179.989105 102.503026,181.532987 L85.0007364,185.58007 C78.3239603,187.123952 71.6617674,182.954398 70.1203122,176.267111 L64.5706509,152.191042 C64.5631425,152.158469 64.5557695,152.125896 64.5485314,152.093323 C32.8447575,151.556421 17.9097061,135.755722 10.2761523,109.041672 Z" id="head"></path>
                                                    <path d="M311.118865,434.536753 C310.781479,460.675486 308.844893,478.122517 305.309107,486.877847 C302.897875,492.848553 298.468451,498.834515 292.020836,504.835732 L292.020854,504.835752 C286.490536,509.983182 277.83451,509.672789 272.687081,504.142471 C271.576157,502.948912 270.687567,501.566354 270.063246,500.060049 C270.063246,500.060049 270.063246,500.060049 270.063246,500.060049 C269.313717,498.251651 268.151766,490.497415 266.577392,476.79734 L265.494023,488.455426 C265.23002,491.296349 262.846163,493.468948 259.993,493.468948 L259.993,493.468948 C257.459723,493.468948 255.406096,491.415321 255.406096,488.882044 C255.406096,488.739674 255.412725,488.597382 255.42596,488.455629 L260.377422,435.423843 L311.118865,434.536753 Z" id="hand" transform="translate(283.262480, 471.519431) rotate(-14.000000) translate(-283.262480, -471.519431) "></path>
                                                </g>
                                                <g id="face" transform="translate(105.641623, 55.369112)">
                                                    <path d="M35.9421222,23.4584637 C40.726618,49.4252342 42.859506,37.4965257 31.4501673,40.832392 C30.6401901,41.0692134 32.4687869,42.1581341 32.9780967,42.8210052" id="Path-2" stroke="#55383C" stroke-width="0.5"></path>
                                                    <path d="M39.4296198,48.7787103 C27.8097591,55.0621483 33.9028877,53.880649 21.2027201,52.6067924" id="Path-3" stroke="#CC5C61" stroke-width="0.5"></path>
                                                    <g id="eyes" fill="#55383C">
                                                        <ellipse id="eye" cx="49.8449911" cy="4.4682788" rx="4.46373054" ry="4.4682788"></ellipse>
                                                        <ellipse id="eye" cx="4.46373054" cy="16.0113324" rx="4.46373054" ry="4.4682788"></ellipse>
                                                    </g>
                                                </g>
                                            </g>
                                            <path d="M325.767353,152.35977 C314.234347,152.35977 304.884999,143.086911 304.884999,131.64826 C304.884999,120.209609 314.234347,110.93675 325.767353,110.93675 C337.300359,110.93675 346.649707,120.209609 346.649707,131.64826 C346.649707,143.086911 337.300359,152.35977 325.767353,152.35977 Z M346.651387,131.64826 C346.711126,128.363492 348.357034,125.730686 350.378699,125.730686 C352.400364,125.730686 354.046273,128.363492 354.106011,131.64826 M374.990045,152.35977 C363.457039,152.35977 354.107691,143.086911 354.107691,131.64826 C354.107691,120.209609 363.457039,110.93675 374.990045,110.93675 C386.523051,110.93675 395.872399,120.209609 395.872399,131.64826 C395.872399,143.086911 386.523051,152.35977 374.990045,152.35977 Z" id="glasses" stroke="#8F8DC2"></path>
                                            <g id="hat" transform="translate(317.555044, 51.913832) rotate(-8.000000) translate(-317.555044, -51.913832) translate(249.055044, 9.413832)">
                                                <mask id="mask-8" fill="white">
                                                    <use xlink:href="#path-7"></use>
                                                </mask>
                                                <use id="Mask" fill="#8F8DC2" xlink:href="#path-7"></use>
                                                <path d="M0,34.0680358 C22.9100932,27.2162441 45.2115558,17.6800145 68.7302796,13.5126605 C82.8658231,11.0079407 97.4207296,14.6438893 111.761907,14.2646047 C116.788517,14.1316647 121.707699,12.7415577 126.680596,11.9800342" id="Path-7" stroke="#504D6B" mask="url(#mask-8)"></path>
                                                <path d="M0,48.903957 C25.5434372,42.0521652 50.4082863,32.5159356 76.6303117,28.3485816 C92.3906304,25.8438618 108.618515,29.4798105 124.608103,29.1005258 C130.212484,28.9675858 135.69709,27.5774788 141.241584,26.8159554" id="Path-7" stroke="#504D6B" mask="url(#mask-8)"></path>
                                                <path d="M0,65.2914852 C25.5434372,58.4396935 50.4082863,48.9034639 76.6303117,44.7361099 C92.3906304,42.2313901 108.618515,45.8673387 124.608103,45.4880541 C130.212484,45.3551141 135.69709,43.9650071 141.241584,43.2034836" id="Path-7" stroke="#504D6B" mask="url(#mask-8)"></path>
                                                <path d="M0,84.6585641 C25.5434372,77.8067723 50.4082863,68.2705428 76.6303117,64.1031888 C92.3906304,61.598469 108.618515,65.2344176 124.608103,64.855133 C130.212484,64.722193 135.69709,63.332086 141.241584,62.5705625" id="Path-7" stroke="#504D6B" mask="url(#mask-8)"></path>
                                                <path d="M-7.280494,17.6186757 C18.2629432,10.766884 43.1277923,1.23065439 69.3498177,-2.93669961 C85.1101364,-5.44141942 101.338021,-1.80547078 117.327609,-2.18475542 C122.93199,-2.31769542 128.416596,-3.7078024 133.96109,-4.46932589" id="Path-7" stroke="#504D6B" mask="url(#mask-8)"></path>
                                            </g>
                                        </g>
                                        <g id="charachter_5" transform="translate(1042.722676, 511.074562) scale(-1, 1) rotate(-180.000000) translate(-1042.722676, -511.074562) translate(855.722676, 167.574562)">
                                            <g id="body_change_colour" transform="translate(24.651217, 20.711510)" fill="#30A1D2">
                                                <path d="M229.738287,248.951274 C224.449333,240.241608 219.575354,231.048072 215.116347,221.370666 C211.73267,214.027051 229.78835,195.025299 232.662674,145.886898 C233.271645,135.476153 228.397666,114.669729 218.040735,83.4676282 C218.110816,70.0234434 218.110816,60.1041021 218.040735,53.7096042 C217.947781,45.2280956 219.553905,34.537836 218.040735,28.306413 C214.81632,15.0278675 206.286855,5.59239652 192.452342,0 C189.595335,1.13472347 187.889442,2.10246409 187.334663,2.90322185 C185.8585,5.03388566 185.582464,9.30359977 185.872469,10.8870819 C186.145149,12.375965 187.494801,15.1228417 190.259051,18.1451366 C191.481021,19.4811791 194.405409,21.1747252 199.032214,23.2257748 C203.895426,32.0851005 206.088717,39.8270254 205.612087,46.4515496 C205.135457,53.0760738 201.723671,62.2696096 195.376729,74.0321572 C180.751062,73.1307912 169.784607,69.9856342 162.477366,64.5966861 C155.170125,59.2077381 149.07765,49.7722671 144.199942,36.2902731 C140.265806,24.8298058 135.635526,17.0878809 130.3091,13.0644983 C124.982674,9.04111578 118.402802,8.31531032 110.569482,10.8870819 C106.793565,13.7959306 105.087672,15.973347 105.451803,17.4193311 C105.655517,18.2282893 106.417279,21.7760976 108.376191,23.9515803 C109.404574,25.0936573 111.597865,26.5452683 114.956064,28.306413 C126.403846,35.1673341 133.471117,41.2157129 136.157876,46.4515496 C138.844635,51.6873863 138.357237,58.4615706 134.695682,66.7741025 C131.749058,73.6183251 128.337273,79.1828337 124.460324,83.4676282 C114.530717,94.4418079 97.3083272,108.045975 93.0231551,116.128874 C86.228308,128.945642 85.4972111,140.07466 90.8298642,149.515925 C83.2797065,155.155593 79.6242217,158.542685 79.8634098,159.677202 C79.9761333,160.211872 79.4521892,165.965385 82.0567007,169.112673 C83.1493698,170.433052 87.742649,171.19254 90.8298642,173.467506 C92.440961,174.654721 94.6342519,177.074072 97.4097368,180.72556 C98.4278178,194.616778 100.133711,203.810314 102.527416,208.306168 C104.92112,212.802021 112.23209,221.269752 124.460324,233.709359 L124.460324,260.564161 L229.738287,248.951274 Z" id="head"></path>
                                            </g>
                                            <g id="right_arm" transform="translate(45.419505, 362.470857) scale(-1, 1) translate(-45.419505, -362.470857) translate(0.919505, 217.470857)"></g>
                                            <g id="head-whole" transform="translate(135.413205, 107.699853)">
                                                <path d="M66.0826078,91.7882787 C46.2079688,101.561612 31.1410656,105.339038 13.7325991,90.575025" id="mouth" stroke="#CC5C61" stroke-width="2"></path>
                                                <g id="eyes">
                                                    <g id="left_eye" transform="translate(37.510662, 31.446490)">
                                                        <ellipse id="Oval-11" fill="#FFFFFF" cx="16.5912542" cy="16.4379381" rx="16.5912542" ry="16.4379381"></ellipse>
                                                        <ellipse id="eye" fill="#27221B" cx="16.8317072" cy="17.3766066" rx="6.49222992" ry="7.02085152"></ellipse>
                                                    </g>
                                                    <g id="right_eye" transform="translate(0.000000, 25.728947)">
                                                        <ellipse id="Oval-11" fill="#FFFFFF" cx="12.263101" cy="12.1497803" rx="12.263101" ry="12.1497803"></ellipse>
                                                        <ellipse id="eye" fill="#27221B" cx="11.2531985" cy="11.6741154" rx="5.04951216" ry="5.46066229"></ellipse>
                                                    </g>
                                                    <g id="top-eye" transform="translate(28.854355, 0.000000)">
                                                        <ellipse id="Oval-11" fill="#FFFFFF" cx="9.37766545" cy="9.29100846" rx="9.37766545" ry="9.29100846"></ellipse>
                                                        <ellipse id="eye" fill="#27221B" cx="8.76196154" cy="9.14515276" rx="4.62617063" ry="5.00285071"></ellipse>
                                                    </g>
                                                </g>
                                            </g>
                                            <path d="M300.498172,260.868691 C306.576161,317.055895 308.874462,358.026881 307.393074,383.78165 C305.911687,409.536419 299.233932,482.037842 287.35981,601.285919 L287.35981,631.063801 C302.224414,639.129272 312.4623,645.887373 318.073468,651.338103 C323.684635,656.788834 328.281237,666.503604 331.863273,680.482413 L269.809149,685.550989 L261.961797,658.651107 L255.392534,636.132376 C228.555531,596.267055 203.274221,572.824892 179.548604,565.80589 C155.822986,558.786887 137.861751,576.738092 125.664898,619.659506 L125.664898,680.482413 L27.8826409,684.283845 C30.5564366,674.639718 33.2726104,668.303998 36.0311624,665.276686 C38.7897143,662.249374 43.3863161,660.559849 49.8209678,660.208111 C62.3318103,665.123422 71.3160775,666.812948 76.7737694,665.276686 C82.2314613,663.740425 89.7531733,657.404705 99.3389056,646.269528 C76.3641116,533.382262 63.8644203,459.932528 61.8398316,425.920324 C60.3573939,401.01602 62.6036888,352.75691 68.5787163,281.142994 L82.3685218,244.395821 C137.817102,255.751217 179.739425,262.501132 208.135489,264.645566 C236.531553,266.79 267.319114,265.531042 300.498172,260.868691 Z" id="body-vest" fill="#FF7D68"></path>
                                            <ellipse id="air_bubble" fill="#DCEBF0" opacity="0.37035779" cx="196.416121" cy="151.194025" rx="151.990316" ry="151.194025"></ellipse>
                                            <g id="left_arm" transform="translate(284.301678, 244.395821)">
                                                <g id="shoulder">
                                                    <ellipse id="Oval-4" fill="#FFEA80" cx="41.8444728" cy="46.7781915" rx="41.8444728" ry="41.5806146"></ellipse>
                                                    <path d="M88.2656848,45.4787973 C88.2656848,22.5144579 71.4927358,0.649697104 48.3826717,0.649697104 C25.2726075,0.649697104 0,4.322939 0,27.2872784 C0,50.2516177 88.2656848,68.4431366 88.2656848,45.4787973 Z" id="Oval-4" fill="#FF7D68"></path>
                                                </g>
                                            </g>
                                        </g>
                                        <g id="charachter" transform="translate(1438.726114, 630.865742) scale(-1, 1) rotate(-240.000000) translate(-1438.726114, -630.865742) translate(1255.726114, 211.865742)">
                                            <g id="body_change_colour" transform="translate(15.822000, 67.349363)" fill="#B1D159">
                                                <path d="M236.669305,71.0747875 L236.669305,172.103853 C236.669305,211.335514 205.026731,243.139059 165.993637,243.139059 C126.960544,243.139059 95.3179692,211.335514 95.3179692,172.103853 L95.3179692,71.0747875 C95.3179692,32.0416939 126.960544,0.399119464 165.993637,0.399119464 L165.993637,0.399119464 C205.026731,0.399119464 236.669305,32.0416939 236.669305,71.0747875 Z" id="head"></path>
                                                <ellipse id="hand" cx="299.732954" cy="559.143778" rx="30.5512928" ry="35.6195296"></ellipse>
                                            </g>
                                            <g id="top_body" transform="translate(73.176749, 0.000000)">
                                                <g id="eye-whole" transform="translate(70.869374, 116.059411)">
                                                    <ellipse id="Oval" fill="#FFFFFF" cx="38.756689" cy="38.7630895" rx="38.24165" ry="38.4917818"></ellipse>
                                                    <ellipse id="eye" fill="#27221B" cx="40.4563179" cy="37.9077166" rx="9.34795888" ry="10.2644751"></ellipse>
                                                </g>
                                                <g id="right_ear" transform="translate(57.483300, 74.400884) scale(-1, 1) translate(-57.483300, -74.400884) translate(38.483300, 47.900884)">
                                                    <polygon id="Path-10" fill="#B1D159" points="0.692441399 33.808615 15.2337108 19.8874206 22.8505662 23.8649047 15.2337108 52.3702076"></polygon>
                                                    <ellipse id="Oval-2" fill="#A0BE53" cx="23.5430076" cy="13.2582804" rx="13.848828" ry="13.2582804"></ellipse>
                                                </g>
                                                <g id="left_ear" transform="translate(144.468455, 47.900884)">
                                                    <polygon id="Path-10" fill="#B1D159" points="0.692441399 33.808615 15.2337108 19.8874206 22.8505662 23.8649047 15.2337108 52.3702076"></polygon>
                                                    <ellipse id="Oval-2" fill="#A0BE53" cx="23.5430076" cy="13.2582804" rx="13.848828" ry="13.2582804"></ellipse>
                                                </g>
                                                <path d="M217.552498,100 L217.552498,266.225226 C217.552498,327.05324 168.851712,376.364089 108.776249,376.364089 C48.7007855,376.364089 0,327.05324 0,266.225226 L0,100 C-6.76353751e-15,44.771525 44.771525,2.4356161e-14 100,1.42108547e-14 L117.552498,1.42108547e-14 C172.780973,4.06554845e-15 217.552498,44.771525 217.552498,100 Z" id="head_bubble" fill="#DCEBF0" opacity="0.455785779"></path>
                                                <path d="M113.875135,220.711194 C137.151685,231.773615 148.843861,214.01719 149.567342,193.314282" id="mouth" stroke="#CC5C61" stroke-width="2"></path>
                                            </g>
                                            <path d="M295.722083,463.522088 C283.769799,507.309824 276.273233,539.825128 273.232384,561.068002 C270.191535,582.310876 270.191535,602.165354 273.232384,620.631436 C289.041081,628.599156 300.194154,632.339855 306.691602,631.853533 C313.189051,631.36721 325.102336,625.900035 342.431457,615.452007 C344.694176,580.361906 344.694176,554.177015 342.431457,536.897333 C340.168739,519.617652 333.537161,495.159237 322.536724,463.522088 L295.722083,463.522088 Z" id="Path-18" fill="#FAC859" transform="translate(307.540122, 547.708792) rotate(-8.000000) translate(-307.540122, -547.708792) "></path>
                                            <path d="M282.818247,322.880771 L314.462247,322.880771 L314.462247,468.552147 C307.430247,473.122229 302.156247,475.40727 298.640247,475.40727 C295.124247,475.40727 289.850247,473.122229 282.818247,468.552147 L282.818247,322.880771 Z" id="Rectangle-2" fill="#4FAEB2"></path>
                                            <g id="left_arm" transform="translate(289.650746, 303.975086) scale(-1, 1) translate(-289.650746, -303.975086) translate(237.150746, 252.475086)">
                                                <ellipse id="Oval-4" fill="#FBA945" cx="51.551188" cy="54.0305458" rx="48.1144421" ry="48.0689573"></ellipse>
                                                <path d="M104.820749,52.1856742 C104.820749,25.8684479 85.5549525,0.81134307 59.0101994,0.81134307 C32.4654462,0.81134307 0,-4.90490152 0,21.4123248 C0,47.7295511 104.820749,78.5029004 104.820749,52.1856742 Z" id="Oval-4" fill="#FAC859"></path>
                                            </g>
                                            <g id="shirt" transform="translate(0.000000, 243.646226)">
                                                <path d="M135.715285,254.139712 L135.715285,275.263498 C135.715285,279.681776 139.297007,283.263498 143.715285,283.263498 L178.965813,283.263498 L230.329282,283.263498 C234.74756,283.263498 238.329282,279.681776 238.329282,275.263498 L238.329282,236.881171 L135.715285,254.139712 Z" id="Path-20" fill="#4F6679"></path>
                                                <path d="M61.2087173,119.355174 C80.7559289,142.967887 94.4453089,161.155342 102.276857,173.91754 C110.108406,186.679737 122.942199,213.392562 140.778238,254.056014 C158.080094,259.171236 171.199083,261.728846 180.135206,261.728846 C189.071329,261.728846 206.183054,259.171236 231.470381,254.056014 C256.117087,217.707694 273.514007,189.005616 283.661142,167.949781 C293.808276,146.893946 304.075311,118.191868 314.462247,81.8435481 C307.149595,57.2056826 300.01971,40.7233014 293.07259,32.3964045 C286.125471,24.0695075 273.576873,16.9650329 255.426796,11.0829805 C224.817948,19.0176022 202.28751,22.4277501 187.835482,21.313424 C173.383454,20.1990979 148.001061,13.0946232 111.688306,0 L111.688306,21.313424 C70.8464912,13.5322644 41.4713634,10.1221165 23.5629224,11.0829805 C5.6544814,12.0438444 -2.04579483,17.4432451 0.462093704,27.2811827 L61.2087173,119.355174 Z" fill="#163A4D"></path>
                                            </g>
                                            <g id="right_arm" transform="translate(0.000000, 251.569680)">
                                                <ellipse id="Oval-4" fill="#FBA945" cx="54.9116465" cy="61.5590759" rx="54.9116465" ry="54.7191786"></ellipse>
                                                <path d="M115.829254,59.8491016 C115.829254,29.6285337 93.8184562,0.854987166 63.4915912,0.854987166 C33.1647263,0.854987166 0,5.68889309 0,35.909461 C0,66.1300288 115.829254,90.0696695 115.829254,59.8491016 Z" id="Oval-4" fill="#FAC859"></path>
                                            </g>
                                            <path d="M252.556621,249.588817 C218.264677,332.167211 190.534929,391.630845 169.36738,427.979716 C148.19983,464.328588 132.35426,479.692397 121.83067,474.071145 C121.503903,471.237919 121.503903,469.246314 121.83067,468.09633 C122.157437,466.946346 123.57222,462.963136 126.075019,456.1467 L112.493102,426.272626 C104.94919,457.722709 102.968494,477.923273 106.551013,486.874319 C110.133533,495.825365 121.451797,498.95503 140.505806,496.263314 C180.496297,462.480286 207.094218,433.459757 220.299569,409.201727 C233.504919,384.943697 251.048229,332.877454 272.929497,253.002997 L252.556621,249.588817 Z" id="band_across_body" fill="#F9F082"></path>
                                            <path d="M142.910536,522.947997 C135.262305,581.402837 128.115728,624.719294 121.470804,652.897369 C114.82588,681.075443 102.81963,718.977343 85.4520545,766.603069 C65.7778077,778.044072 54.057421,786.878349 50.2908944,793.105901 C46.5243678,799.333453 46.5243678,809.87759 50.2908944,824.738314 C76.5314144,834.933184 96.0710149,839.207834 108.909696,837.562265 C121.748377,835.916696 142.229609,826.512465 170.353392,809.349572 C167.14358,760.24915 163.999086,723.487156 160.91991,699.063593 C157.840734,674.640029 154.410377,659.251287 150.628839,652.897369 C152.374804,622.601035 155.805161,601.797737 160.91991,590.487473 C166.034659,579.177209 178.326772,565.213351 197.796249,548.595899 L242.390891,636.653697 C233.284043,672.229286 227.852644,698.447141 226.096695,715.307264 C224.340746,732.167387 224.340746,758.100266 226.096695,793.105901 C255.827037,806.445643 278.124358,813.57006 292.988658,814.479153 C307.852958,815.388245 332.15132,811.113595 365.883746,801.655202 C359.208943,778.598058 351.776503,762.92434 343.586425,754.634048 C335.396347,746.343755 324.247687,743.209011 310.140443,745.229817 C288.701964,725.09686 275.266399,707.713281 269.833748,693.079082 C264.401096,678.444883 264.401096,659.636421 269.833748,636.653697 L237.245355,522.947997 L142.910536,522.947997 Z" id="trousers" fill="#163A4D"></path>
                                        </g>
                                        <g id="avatar_2" transform="translate(800.630337, 917.135999)">
                                            <g id="body_change_colour" transform="translate(111.925517, 40.257275)" fill="#885B3E">
                                                <path d="M193.009589,102.150095 C187.090023,130.422721 168.798888,152.868489 145.37676,160.867804 C145.561472,161.949872 145.65769,163.062185 145.65769,164.197007 L145.65769,181.44074 C145.65769,190.316519 138.47376,197.511759 129.611933,197.511759 C128.421455,197.511759 127.234675,197.379064 126.073504,197.116125 C114.621243,194.522842 106.489318,184.331132 106.489318,172.571341 L106.489318,164.197007 C106.489318,162.983992 106.599253,161.796695 106.809688,160.644564 C83.6814486,152.452176 65.6620067,130.136753 59.8078775,102.098772 C59.0944949,102.219122 58.3615528,102.281775 57.6140003,102.281775 C50.3719511,102.281775 44.5011103,96.4016913 44.5011103,89.1482407 C44.5011103,81.8947901 50.3719511,76.0147066 57.6140003,76.0147066 C57.7383029,76.0147066 57.8622016,76.0164389 57.9856736,76.0198807 C60.6898812,33.8443112 90.2932282,0.624809354 126.414099,0.624809354 C162.533502,0.624809354 192.135912,33.8416137 194.842194,76.0147435 L194.873602,76.0147066 C202.115651,76.0147066 207.986492,81.8947901 207.986492,89.1482407 C207.986492,96.4016913 202.115651,102.281775 194.873602,102.281775 C194.240794,102.281775 193.618456,102.236879 193.009589,102.150095 Z" id="head"></path>
                                            </g>
                                            <g id="sleeve" transform="translate(125.346232, 379.590753) scale(-1, 1) translate(-125.346232, -379.590753) translate(93.346232, 244.590753)" fill="#18C9CF">
                                                <path d="M9.87724183,0 C34.4384813,9.72204314 48.8569838,20.9793581 53.1327492,33.7719449 C55.2630941,40.1456862 51.490619,63.5178717 53.1327492,84.2592969 C54.2352497,98.184766 57.5276637,123.087311 63.009991,158.966933 C64.2540836,174.066022 64.2540836,185.095916 63.009991,192.056616 C61.7658984,199.017316 58.4734845,206.408482 53.1327492,214.230115 L57.9010728,269.834429 L4.06280637,269.834429 L4.06280637,259.734522 L0,0 L9.87724183,0 Z" id="Path-16"></path>
                                            </g>
                                            <g id="sleeve" transform="translate(318.788047, 244.590753)" fill="#18C9CF">
                                                <path d="M9.87724183,0 C34.4384813,9.72204314 48.8569838,20.9793581 53.1327492,33.7719449 C55.2630941,40.1456862 51.490619,63.5178717 53.1327492,84.2592969 C54.2352497,98.184766 57.5276637,123.087311 63.009991,158.966933 C64.2540836,174.066022 64.2540836,185.095916 63.009991,192.056616 C61.7658984,199.017316 58.4734845,206.408482 53.1327492,214.230115 L57.8280883,269.834429 L14.4022837,269.834429 L14.3848209,255.999665 L0.170297273,134.917214 L0,0 L9.87724183,0 Z" id="Path-16"></path>
                                            </g>
                                            <g id="shirt" transform="translate(126.011534, 224.122907)">
                                                <path d="M26.5663746,262.716701 C15.6903217,257.398278 8.10455071,246.41848 7.62688501,233.601469 C7.41609325,227.945378 -0.747278679,141.002293 0.38925091,80.3362932 C0.945321435,50.6542026 5.99836286,27.3585848 10.8990255,22.765493 C36.0693562,-0.825120569 141.466852,0.978223435 163.485382,0.345863357 C185.503912,-0.286496721 197.409966,8.5647884 206.0597,17.1605856 C225.538697,36.5181176 224.414207,61.6898209 224.412725,65.581466 C224.407698,78.7863789 225.359962,104.765669 224.412725,132.115069 C222.672135,182.370853 218.526112,239.00552 218.552222,241.886073 C218.63784,251.33181 214.308316,259.788449 207.488957,265.29546 L207.488957,285.867574 L196.426629,283.519826 L41.1971948,283.519826 L26.5663746,285.867574 L26.5663746,262.716701 Z" id="Combined-Shape" fill="#00859E"></path>
                                                <path d="M108.953762,9.91715843 C108.358977,9.77632571 108.358977,11.5022849 108.953762,15.095036 C109.548548,18.6877871 110.288202,21.4296483 111.172725,23.3206196 C119.083024,40.5551777 119.920704,47.3328919 120.066315,66.7034473 C121.610284,272.096256 139.73808,256.02022 139.831169,269.438479 C139.856794,273.132153 138.620688,276.728102 137.861421,280.342736 C137.692915,281.144944 137.482196,281.966935 137.052913,282.664902 C136.957857,282.819452 136.799263,282.405561 136.672439,282.27589" id="Path-19" stroke="#81F4DD"></path>
                                            </g>
                                            <g id="face" transform="translate(155.643259, 0.000000)">
                                                <path d="M67.7783146,165.424051 C72.0747481,167.17615 75.3671621,168.199542 77.6555565,168.494227 C79.9439509,168.788913 84.598743,168.788913 91.6199328,168.494227" id="Path-27" stroke="#CC5C61"></path>
                                                <g id="eyes" transform="translate(53.765282, 116.889863)" fill="#27221B">
                                                    <ellipse id="eye" cx="59.6527019" cy="5.23494822" rx="4.76832364" ry="5.11696135"></ellipse>
                                                    <ellipse id="eye" cx="5.4981691" cy="5.23494822" rx="4.76832364" ry="5.11696135"></ellipse>
                                                </g>
                                                <path d="M11.5546435,69.9571469 C-4.23221154,50.4313126 -3.79532853,20.9540119 15.6998138,5.1423031 C28.7541399,-5.44552437 40.2815186,1.78082003 51.2134809,13.5740299 C48.4273265,6.53507871 69.0589971,16.982799 75.2458235,11.9649182 C86.3118307,2.98973456 105.550026,11.3794756 114.511102,22.4629044 C120.229377,29.5355037 116.099119,24.210521 118.253854,22.4629044 C126.659501,15.6454291 131.108461,20.6025751 137.91522,29.0214561 C141.368319,33.2923921 144.95878,21.145465 148.473651,25.6101485 C150.149952,19.9018247 160.659258,29.0214561 166.865756,29.0214561 C177.681804,29.0214561 184.236078,41.7264027 184.236078,52.5594783 C184.236078,52.9869181 184.229851,53.4082436 184.217224,53.8232718 C183.590159,71.8981897 182.114249,86.3393917 180.148944,97.2476074 C179.410047,101.348773 178.38727,106.14222 177.080613,111.627949 C177.083593,114.315156 176.465511,116.569495 175.380147,118.528211 C173.447265,126.140277 171.063261,134.852467 168.228135,144.664783 C167.613159,139.954034 166.591376,136.14474 165.162784,133.236902 C163.958883,130.786413 161.592598,127.857242 158.063928,124.449389 C153.223642,122.356126 149.836029,117.53241 149.836029,111.91623 C149.836029,108.330407 151.217015,105.067639 153.475358,102.632348 C144.589664,100.773669 137.91522,92.8834175 137.91522,83.4318118 C137.91522,76.5573619 141.446074,70.5088856 146.790496,67.0063725 C131.014113,70.7252593 110.944388,73.9059826 104.877549,78.8265466 C92.4087824,88.9394508 67.1162306,90.5977389 44.2517199,85.2826892 C43.7439195,87.5919493 40.4188709,90.247923 40.1645853,93.4951691 C39.5478481,101.370948 34.0983354,114.649706 34.7150726,131.335341 C30.5851748,111.29033 33.7640572,98.6938337 33.3526944,95.5419536 C33.0235551,93.0200737 32.9577665,88.8033893 33.1553285,82.8919002 C23.8054938,79.8195674 16.0027898,75.458798 11.5546435,69.9571469 Z" id="Combined-Shape" fill="#27221B" transform="translate(92.288336, 72.332391) scale(-1, 1) translate(-92.288336, -72.332391) "></path>
                                                <path d="M66.1726546,144.980572 C74.7486021,147.516869 80.9522884,148.552444 84.7837137,148.087298 C88.2796051,147.662887 92.5899004,146.743433 96.1571388,144.980572 C98.4543306,143.845343 100.474024,139.984073 99.2589819,138.767119 C97.8883899,137.394369 95.6371176,136.707812 93.0552956,130.482514 C92.1796092,128.371057 91.1456615,124.228755 89.9534524,118.055608" id="Path-5" stroke="#363636"></path>
                                                <path d="M60.9664237,214.157016 C70.4652272,216.5801 77.6744784,217.791642 82.5941774,217.791642 C87.5138764,217.791642 94.7231276,216.5801 104.221931,214.157016 L104.221931,232.572455 C92.8262403,234.685736 84.3113766,235.5742 78.6773401,235.237847 C73.0433036,234.901494 65.3231605,233.043796 55.516911,229.664754 L60.9664237,214.157016 Z" id="Path-28" fill="#81F4DD"></path>
                                            </g>
                                        </g>
                                        <g id="character_2" transform="translate(571.877411, 1186.871127) rotate(-315.000000) translate(-571.877411, -1186.871127) translate(277.877411, 673.371127)">
                                            <g id="bottom" transform="translate(222.687504, 537.593861)" fill="#CFDBC3">
                                                <path d="M23.7303817,1.54102236 C23.7303817,3.68186068 11.8252111,9.54420583 6.17990429,25.8121245 C4.52528805,30.5801846 4.52528805,40.2115743 6.17990429,54.7062936 C1.10829274,110.141447 -0.841760303,146.355472 0.329745147,163.34837 C1.5012506,180.341267 10.8615052,251.613551 28.410509,377.165221 L68.1915912,377.165221 C69.1307387,301.507136 74.2008766,235.821058 83.402005,180.106988 C92.6031333,124.392917 102.353399,100.892326 112.652801,109.605215 L153.603915,368.496971 L193.970013,368.496971 C204.459577,302.259944 210.894752,248.902045 213.275538,208.423274 C215.656324,167.944502 215.656324,111.889814 213.275538,40.259209 C209.535133,30.9031422 206.220043,24.3537972 203.330267,20.611174 C200.440492,16.8685508 194.980343,12.0528559 186.949822,6.16408942 C78.1368617,0 23.7303817,-1.54102236 23.7303817,1.54102236 Z" id="trousers"></path>
                                            </g>
                                            <g id="upper" transform="translate(294.144271, 590.714879) rotate(-345.000000) translate(-294.144271, -590.714879) translate(90.644271, 215.214879)">
                                                <g id="top" transform="translate(187.783465, 190.600559) rotate(-15.000000) translate(-187.783465, -190.600559) translate(35.783465, 34.600559)">
                                                    <g id="sleeve" transform="translate(32.306608, 153.688915) scale(-1, 1) translate(-32.306608, -153.688915) translate(0.806608, 8.688915)" fill="#163747">
                                                        <path d="M5.30596287,0.237868024 C23.841968,9.99140865 35.3385321,21.5766286 39.7956551,34.993528 C42.0163591,41.6783249 49.4511053,73.4958184 51.1628869,95.2494808 C52.3121503,109.85455 55.7442128,135.972406 61.4590744,173.603049 C62.7559355,189.439015 62.7559355,201.007197 61.4590744,208.307598 C60.1622133,215.607999 58.3870086,242.799192 56.1334602,289.881177 L0.0116301036,289.881177 L0.0116301036,279.288367 L5.30596287,0.237868024 Z" id="Path-16"></path>
                                                    </g>
                                                    <g id="sleeve" transform="translate(236.167359, 6.878104)" fill="#163747">
                                                        <path d="M0,0 C21.1402527,8.41058204 34.4900756,17.0583137 40.0494685,25.9431951 C55.1898732,50.1402073 54.6505101,87.7086065 55.3863881,97.0602916 C56.5356515,111.665361 59.967714,137.783217 65.6825756,175.41386 C66.9794367,191.249825 66.9794367,202.818008 65.6825756,210.118409 C64.3857145,217.41881 62.5851497,244.610003 60.2808812,291.691987 L7.71538202,291.691987 L0.177520475,150.190451 L0,8.68891499 L0,0 Z" id="Path-16"></path>
                                                    </g>
                                                    <g id="shirt" transform="translate(35.696023, 0.000000)">
                                                        <mask id="mask-10" fill="white">
                                                            <use xlink:href="#path-9"></use>
                                                        </mask>
                                                        <use id="Mask" fill="#163747" xlink:href="#path-9"></use>
                                                        <path d="M182.642907,311.39733 C183.63404,306.934329 184.116336,303.230007 184.089795,300.284365 C183.243922,206.404855 181.309163,143.433882 180.498472,112.319566 C178.886191,50.4402875 175.407743,17.3377424 175.289676,14.1789075 C175.078368,8.52543786 173.628675,2.30602574 170.9406,-4.47932886 L187.735101,-2.7318012 C197.798162,9.82200792 200.01146,104.755838 199.799684,112.319566 C199.323083,129.341636 203.652238,262.871296 203.478091,302.081813 C203.447752,308.912906 201.747768,311.77196 201.452448,311.788032 L182.642907,311.39733 Z M63.3183257,308.701702 L44.7090598,307.990072 C44.4213112,307.974165 42.7649112,305.144335 42.7353498,298.383064 C42.5656675,259.573334 47.5139614,126.64914 47.0495797,109.801059 C46.8432326,102.314643 49.2838799,7.65408727 59.0889471,-4.77140437 L75.7245029,-6.55047989 C72.7348634,0.663180583 71.1370981,7.06785245 70.9312072,12.6635357 C70.8161671,15.7900829 67.4268983,48.5542737 65.8559529,109.801059 C65.0660456,140.597344 62.4507613,203.684059 61.6265743,296.603989 C61.6007139,299.519523 62.164631,303.552094 63.3183257,308.701702 Z" id="Combined-Shape" stroke="#67B1AC" stroke-width="2" fill="#67B1AC" mask="url(#mask-10)"></path>
                                                    </g>
                                                </g>
                                                <g id="body_change_colour" transform="translate(88.725855, 290.277790)" fill="#EFDD93">
                                                    <path d="M61.7409733,64.9695637 C61.4204315,89.9471166 59.5805284,106.619086 56.221264,114.985472 C53.9349754,120.679567 49.7388866,126.388183 43.6329976,132.111318 L43.6330189,132.111341 C38.39762,137.018554 30.1754085,136.752507 25.2681954,131.517108 C24.1925891,130.369567 23.3342791,129.036264 22.7350273,127.582071 C22.7350273,127.582071 22.7350273,127.582071 22.7350273,127.582071 C22.0229182,125.854009 20.9189764,118.444245 19.4232017,105.352778 L18.3913926,116.520312 C18.1420361,119.219161 15.8778752,121.283771 13.1675311,121.283771 L13.1675311,121.283771 C10.7404551,121.283771 8.77292126,119.316237 8.77292126,116.889161 C8.77292126,116.765004 8.77818284,116.640902 8.78869186,116.51719 L13.1675311,64.9695637 L61.7409733,64.9695637 Z" id="hand" transform="translate(35.256947, 100.297053) scale(-1, 1) rotate(16.000000) translate(-35.256947, -100.297053) "></path>
                                                </g>
                                            </g>
                                            <g id="face+hair" transform="translate(303.335427, 133.719411)">
                                                <g id="face" transform="translate(0.743843, 0.024151)">
                                                    <g id="eyes" fill="#4C2F1C">
                                                        <ellipse id="eye" cx="4.04959328" cy="7.59727949" rx="4.04959328" ry="7.59727949"></ellipse>
                                                        <ellipse id="eye" cx="51.588297" cy="7.59727949" rx="4.04959328" ry="7.59727949"></ellipse>
                                                    </g>
                                                    <path d="M20.9072301,7.188537 C23.3583031,21.2257684 20.1898708,24.3067702 19.6089021,39.0345529 C19.5802363,39.7612405 20.7168196,40.1453952 21.4244309,40.1665692 C23.962091,40.2425044 26.460616,39.1708048 28.9954464,39.3154291 C32.9244145,39.5395956 36.7232648,40.9608764 40.6472594,41.2633241 C43.0470697,41.448293 41.610949,36.6279357 38.0150976,33.9508145" id="Path-29" stroke="#979797"></path>
                                                    <path d="M15.494096,57.8840342 C22.3306894,66.0626782 41.1640548,71.5806608 46.0208203,57.9937156" id="Path-2" stroke="#CC5C61"></path>
                                                </g>
                                            </g>
                                            <g id="head_whole" transform="translate(242.150341, 0.203766)">
                                                <g transform="translate(93.491355, 138.440670) scale(-1, 1) translate(-93.491355, -138.440670) translate(0.491355, 0.440670)">
                                                    <g id="body_change_colour" transform="translate(0.000000, 88.799154)" fill="#EFDD93">
                                                        <path d="M97.3068679,169.690119 C102.111036,169.987555 106.851548,170.320413 111.483555,170.682001 C109.184213,175.760149 102.781765,180.575695 94.1034895,183.562725 C93.4229679,183.941656 92.6615102,184.191847 91.8524793,184.280832 C86.6314283,185.819008 80.7044459,186.704554 74.4223475,186.636833 C55.2374596,186.430018 38.4815023,180.05888 35.695863,170.778505 C40.6166143,170.648898 46.4838764,169.688219 51.6414068,169.699264 L53.8420982,169.689928 L54.0923349,151.297325 C32.6168058,141.804131 16.1910543,117.400188 11.670326,88.6181804 C10.8841265,88.9629722 10.0555382,89.147265 9.19965122,89.147265 C4.11882415,89.147265 0,82.6527824 0,74.641432 C0,66.6300816 4.11882415,60.135599 9.19965122,60.135599 C10.4159749,60.135599 11.5771664,60.507797 12.639915,61.1839018 C13.7682601,57.1475907 14.8601919,53.1468818 14.6308179,49.5272943 C14.4382923,46.4891857 10.6368579,43.8213477 11.5289747,41.2426902 C20.9409503,14.0374386 47.2207993,0.138716179 73.8016465,0.138716179 C95.6102469,0.138716179 121.685939,-2.27059864 133.088288,16.7168111 C138.110324,25.0796022 137.986897,42.1114915 137.548452,57.1724485 C140.817578,59.3972846 143.105686,64.525768 143.105686,70.4969083 C143.105686,77.0070698 140.385833,82.5155726 136.640108,84.3513827 C135.302931,98.5330134 131.437804,111.666891 124.706383,123.586436 C117.845434,135.735341 108.35385,144.685333 97.5751187,149.973464 L97.3068679,169.690119 Z" id="head"></path>
                                                    </g>
                                                    <g id="face" transform="translate(79.046180, 181.205427) scale(-1, 1) translate(-79.046180, -181.205427) translate(50.046180, 150.705427)">
                                                        <path d="M13.0432461,52.0297325 C19.973535,60.1205851 39.0650118,65.5793365 43.9883392,52.1382366" id="Path-2" stroke="#CC5C61"></path>
                                                        <ellipse id="Oval-7" fill="#4C2F1C" cx="4.85913109" cy="8.28235269" rx="4.10509297" ry="7.51572861"></ellipse>
                                                        <ellipse id="Oval-7" fill="#4C2F1C" cx="53.049353" cy="8.28235269" rx="4.10509297" ry="7.51572861"></ellipse>
                                                        <path d="M23.0554042,2.17697626 C25.5400692,16.0635289 22.3282135,19.1114586 21.7392826,33.68115 C21.710224,34.4000372 22.8623842,34.7800683 23.5796933,34.801015 C26.152132,34.8761351 28.6848994,33.8159394 31.2544696,33.9590112 C35.2372842,34.1807715 39.0881978,35.5867959 43.0659707,35.8859971 C45.4986705,36.0689805 44.0428677,31.300366 40.3977352,28.6519815" id="Path-29" stroke="#979797"></path>
                                                    </g>
                                                    <path d="M85.5589843,115.38147 C67.9031137,115.38147 48.79739,114.423784 34.4472498,110.632873 C29.5685134,116.303141 25.5338259,122.315481 22.343189,128.669893 C21.7389866,129.873211 24.0912614,144.133647 22.343189,148.581156 C19.3156967,156.283812 11.6403446,155.884359 10.0674195,160.756573 C8.87448386,136.755257 8.32863018,122.062367 8.42985848,116.677902 C8.53108679,111.293437 9.18611122,98.5451939 10.3949318,78.4331724 C10.3949318,76.35293 10.3949318,73.8944106 10.3949318,70.9786912 C10.3949318,48.6037116 43.5043843,37.2714721 85.5589843,37.2714721 C87.3777979,37.2714721 89.1817177,37.2999434 90.96863,37.3562334 C98.1926967,35.8840469 104.631872,33.8031099 110.286156,31.1134224 C122.460554,25.3221811 133.268456,15.2844645 142.709864,1.0002727 L142.709864,0 C142.922752,0.00244558495 143.136254,0.00964859557 143.350328,0.0215460911 C162.130535,1.08612983 185.286453,38.1937738 185.286453,68.9789704 C185.286453,98.6369215 163.795265,111.763333 145.444218,113.013627 C143.355408,113.322057 141.166091,113.590943 138.903399,113.825292 C139.279208,117.966885 139.565493,121.18651 139.762255,123.484167 C139.980066,126.027616 137.299577,160.060123 134.687704,153.35331 C132.938111,148.860674 130.683743,126.974377 129.691056,125.104707 C127.530573,121.035561 125.07908,117.654017 122.336578,114.960073 C108.918594,115.512829 95.1865,115.38147 85.5589843,115.38147 Z" id="hair" fill="#FFC194" transform="translate(96.852217, 80.378287) rotate(-360.000000) translate(-96.852217, -80.378287) "></path>
                                                </g>
                                                <g id="glasses" transform="translate(35.040888, 133.129501)">
                                                    <path d="M23.7387435,12.6564521 C22.9103163,12.6564521 22.2387435,13.328025 22.2387435,14.1564521 L22.2387435,35.6341198 C22.2387435,39.2239706 25.1488926,42.1341198 28.7387435,42.1341198 L58.2162304,42.1341198 C61.8060812,42.1341198 64.7162304,39.2239706 64.7162304,35.6341198 L64.7162304,15.1564521 C64.7162304,13.7757403 63.5969422,12.6564521 62.2162304,12.6564521 L23.7387435,12.6564521 Z" id="Rectangle-3" stroke="#333333"></path>
                                                    <path d="M82.4333508,12.6564521 C81.6049237,12.6564521 80.9333508,13.328025 80.9333508,14.1564521 L80.9333508,35.6341198 C80.9333508,39.2239706 83.8434999,42.1341198 87.4333508,42.1341198 L116.910838,42.1341198 C120.500689,42.1341198 123.410838,39.2239706 123.410838,35.6341198 L123.410838,15.1564521 C123.410838,13.7757403 122.29155,12.6564521 120.910838,12.6564521 L82.4333508,12.6564521 Z" id="Rectangle-3" stroke="#333333"></path>
                                                    <path d="M82.050586,14.3334284 L82.6072251,14.3334284 L82.6072251,25.2183097 L80.281152,25.2183097 C79.576188,22.7341182 76.5057479,20.8643572 72.8247906,20.8643572 C69.1438332,20.8643572 66.0733932,22.7341182 65.3684291,25.2183097 L63.042356,25.2183097 L63.042356,14.3334284 L63.5989952,14.3334284 C64.9419161,15.6017265 68.5654572,16.5104047 72.8247906,16.5104047 C77.084124,16.5104047 80.7076651,15.6017265 82.050586,14.3334284 Z" id="Combined-Shape" fill="#333333"></path>
                                                </g>
                                            </g>
                                        </g>
                                        <g id="avatar_3" transform="translate(583.093138, 478.166019) rotate(-225.000000) translate(-583.093138, -478.166019) translate(428.593138, -42.333981)">
                                            <g id="bottom" transform="translate(42.262276, 453.582074)">
                                                <g id="pants" transform="translate(132.735788, 293.299787) scale(-1, 1) translate(-132.735788, -293.299787) translate(0.735788, 0.299787)">
                                                    <path d="M204.723575,0 C213.559735,29.5003976 221.740188,55.3820004 229.264935,77.6448085 C236.789682,99.9076166 241.786857,128.237479 244.256459,162.634396 C243.644129,199.174362 241.235283,229.32222 237.029921,253.077971 C232.824558,276.833722 227.334591,300.784987 220.560019,324.931767 C221.655182,336.015256 221.655182,343.645748 220.560019,347.823241 C219.464856,352.000735 216.297568,356.451855 211.058152,361.176602 C204.992082,390.719858 201.191335,412.551542 199.655913,426.671654 C198.12049,440.791767 195.375507,479.156183 191.420962,541.764903 L164.815736,541.764903 C163.641157,524.460979 162.374242,511.319577 161.014989,502.340696 C159.655737,493.361815 154.376922,463.263765 145.178545,412.046546 C145.082385,393.691034 146.560453,379.489841 149.612749,369.442968 C152.665046,359.396094 160.266539,343.711195 172.417229,322.388269 C165.779298,279.918193 161.978552,245.786645 161.014989,219.993624 C160.051427,194.200603 160.051427,163.049057 161.014989,126.538985 L150.061142,126.538985 C128.252179,171.678236 113.68265,205.591532 106.352557,228.278873 C99.022463,250.966215 93.3213431,279.792516 89.249197,314.757778 C87.5804067,326.864371 85.891186,335.342695 84.1815348,340.19275 C82.4718837,345.042804 79.3045949,350.341757 74.6796684,356.089607 C67.1333605,401.429391 62.0656984,434.494854 59.4766821,455.285998 C56.8876658,476.077141 54.3538348,504.055611 51.8751889,539.221405 L24.0030474,541.764903 C22.148318,522.271961 20.4590972,507.646852 18.9353853,497.889576 C12.3071723,455.445002 6.697971,417.966586 8.80006107,391.062694 C11.6270026,354.88169 22.6069371,329.446718 41.7398647,314.757778 C33.597673,226.367786 31.7589881,158.541194 36.2238099,111.278002 C40.6886318,64.0148103 51.8180306,33.4928439 69.6120063,19.7121033 L204.723575,0 Z" id="Path-23" fill="#3F5F85"></path>
                                                    <path d="M204.696091,0 C213.532251,29.5003976 221.712704,55.3820004 229.237452,77.6448085 C233.810392,91.1743668 240.351754,113.0841 242.675127,143.335614 C243.674943,156.35373 243.674943,179.358211 242.675127,212.349058 L29.9424171,217.657784 C32.7647416,151.966412 34.1759039,118.698393 34.1759039,117.853727 C34.1759039,70.3755482 42.4508712,37.6616736 59.0008059,19.7121033 L204.696091,0 Z" id="Path-23" fill="#8D4763"></path>
                                                </g>
                                            </g>
                                            <g id="body_change_colour" transform="translate(20.678955, 503.289699)"></g>
                                            <g id="top" transform="translate(162.138797, 377.737846) rotate(-360.000000) translate(-162.138797, -377.737846) translate(15.638797, 185.237846)">
                                                <path d="M220.582684,22.6323835 C230.882314,31.301039 246.926725,189.563208 253.775927,300.34697 C253.775927,300.34697 253.775927,300.34697 253.775927,300.34697 L253.775927,300.34697 C255.264422,324.422929 236.953665,345.147014 212.877706,346.635509 C211.477226,346.722093 210.073388,346.74114 208.671074,346.692583 L54.0085569,341.337099 C45.1772928,341.031301 38.2660369,333.624249 38.5718348,324.792985 C38.588997,324.297352 38.6291935,323.802785 38.6922943,323.310885 C52.0663283,219.054157 58.6357218,164.252763 58.4004746,158.906703 C58.0576229,151.115299 49.5486285,40.7484262 65.8400255,27.8167326 C93.3295962,5.99621571 211.135948,14.6815628 220.582684,22.6323835 Z" id="shirt" fill="#FBE7E9"></path>
                                                <g id="sleeve" transform="translate(0.000000, 21.752076)" fill="#8295B5">
                                                    <path d="M74.7674866,0.809080326 C52.2664792,10.3560262 38.9404656,21.3016371 34.7894456,33.6459131 C30.6384256,45.990189 19.3803799,94.0770864 1.01530857,177.906605 C-0.338436191,194.237167 -0.338436191,206.166653 1.01530857,213.695063 C2.36905333,221.223474 4.22212313,244.713493 6.57451797,284.16512 L69.5788912,284.16512 L74.7674866,0.809080326 Z" id="Path-16"></path>
                                                </g>
                                                <g id="gilet_left" transform="translate(36.962956, 1.154366)" fill="#445B67">
                                                    <path d="M60.5607711,363.342078 C58.406442,367.303399 53.3008787,370.198555 45.2440811,372.027546 L0.234798139,346.981081 L1.31124005,337.22489 C0.617666895,336.217244 8.28498851,270.8454 11.2768213,246.903146 L21.3272903,155.812033 C20.2982623,139.058831 13.4086604,38.9407934 28.8770691,26.6623669 C38.2522217,19.220611 58.1322091,15.3270225 80.6361018,13.7423837 C85.0851445,13.429099 85.093132,35.7955784 88.0214988,40.7341717 C98.7890484,58.8932858 93.0374736,159.329536 70.7667745,342.042921 C65.9064469,352.668384 62.5044457,359.768103 60.5607711,363.342078 Z" id="Combined-Shape"></path>
                                                    <path d="M86.0885876,0 C83.2987764,6.44419779 82.3262881,11.5107208 83.1711229,15.199569 C84.0159576,18.8884172 88.6352768,29.7452523 97.0290804,47.7700741 C99.8980735,122.236289 99.8980735,177.244253 97.0290804,212.793966 C94.1600873,248.34368 85.164571,304.799222 70.0425315,382.160592 L45.2440811,372.027546 C53.3008787,370.198555 58.406442,367.303399 60.5607711,363.342078 C62.7151001,359.380758 65.8756869,347.076345 70.0425315,326.428839 L91.1941509,57.9031201 C81.1545662,44.6145726 75.8058808,34.2402636 75.1480948,26.780193 C74.4903088,19.3201225 78.1371397,10.3933915 86.0885876,0 Z" id="Path-31"></path>
                                                </g>
                                                <g id="gilet_right" transform="translate(223.400418, 192.330457) scale(-1, 1) translate(-223.400418, -192.330457) translate(154.400418, 0.330457)">
                                                    <g id="sleeve" transform="translate(0.000000, 20.597711)" fill="#8295B5">
                                                        <path d="M74.7674866,0.809080326 C52.2664792,10.3560262 38.9404656,21.3016371 34.7894456,33.6459131 C30.6384256,45.990189 19.3803799,94.0770864 1.01530857,177.906605 C-0.338436191,194.237167 -0.338436191,206.166653 1.01530857,213.695063 C2.36905333,221.223474 4.22212313,244.713493 6.57451797,284.16512 L69.5788912,284.16512 L74.7674866,0.809080326 Z" id="Path-16"></path>
                                                        <path d="M1.01530857,213.695063 C2.36905333,221.223474 4.44316193,254.490838 7.23763435,313.497157 C22.2548418,308.004434 33.2836176,305.258073 40.3239617,305.258073 C47.3643057,305.258073 49.4322012,292.899447 46.527648,268.182194 C15.2995594,226.927298 0.128779595,208.764921 1.01530857,213.695063 Z" id="Path-16"></path>
                                                    </g>
                                                    <g id="gilet" transform="translate(37.222118, 0.000000)" fill="#445B67">
                                                        <path d="M60.3290138,364.130387 C58.1745762,368.092944 53.0687555,370.989003 45.0115518,372.818564 L0,347.764287 L1.07649617,338.005053 C0.382888055,336.997093 8.05059616,271.60486 11.0425798,247.655139 L21.0935554,156.535616 C20.0644755,139.777189 13.1745263,39.6279262 28.6437148,27.3456703 C38.0193399,19.9015934 57.9003294,16.0067905 80.4053565,14.4216575 C84.8546234,14.1082751 84.8626113,36.4817303 87.7911258,41.4218638 C98.5592181,59.5866415 92.8073534,160.054216 70.5355316,342.824587 C65.6749591,353.453364 62.2727864,360.555297 60.3290138,364.130387 Z" id="Combined-Shape"></path>
                                                        <path d="M86.2083639,0 C83.4274214,6.46033232 82.4580246,11.5395405 83.3001736,15.2376246 C84.1423227,18.9357087 88.7469573,29.8197263 97.1140774,47.8896774 C99.9739501,122.542336 99.9739501,177.688025 97.1140774,213.326745 C94.2542048,248.965465 85.2872847,305.562357 70.2133174,383.117419 L45.4937001,372.959003 C53.5248855,371.125433 58.6142185,368.223028 60.761699,364.251789 C62.9091795,360.28055 66.059719,347.94533 70.2133174,327.246129 L91.2976969,58.0480939 C81.2900275,44.7262754 75.9583453,34.325992 75.3026504,26.8472434 C74.6469554,19.3684949 78.2821933,10.4194137 86.2083639,0 Z" id="Path-31"></path>
                                                    </g>
                                                </g>
                                            </g>
                                            <g id="scarf" transform="translate(138.474724, 333.314080) rotate(-16.000000) translate(-138.474724, -333.314080) translate(42.474724, 167.814080)" fill="#8D4763" stroke="#7FB7B5">
                                                <path d="M103.909494,20.4381006 C115.214948,7.59542054 126.031276,0.782720345 136.358478,0 C139.496812,9.11339999 141.214489,15.4285077 141.511507,18.9453231 C141.860203,23.0740358 137.845193,26.9344912 138.474716,29.6000078 C140.332783,37.46741 144.565259,48.5086827 151.172145,62.723826 C141.306966,78.5266619 134.958252,90.2726967 132.126002,97.9619304 C129.293751,105.651164 103.193481,182.000391 53.8251915,327.009609 C39.8423586,328.759214 29.9665808,328.759214 24.1978579,327.009609 C18.4291351,325.260005 16.5480345,322.206036 18.5545563,317.847702 L82.7471124,141.65718 L14.32208,323.485799 C11.4712516,326.907766 9.44419132,328.919295 8.2408991,329.520387 C7.03760689,330.121478 4.83219097,330.224235 1.62465137,329.828658 C-0.541550455,303.05306 -0.541550455,281.910198 1.62465137,266.40007 C3.79085319,250.889942 9.43415482,231.626445 18.5545563,208.609578 C27.5432615,178.841196 35.3028013,156.758651 41.8331755,142.361942 C48.3635498,127.965233 69.0556558,87.3239528 103.909494,20.4381006 Z" id="Path-6"></path>
                                                <path d="M164.085559,58.0614639 C171.4253,41.451585 176.277087,21.502845 182.049073,25.1314249 C187.240456,28.3950068 189.082651,47.0839956 185.487674,63.444799 C186.424971,63.5131386 187.276767,63.7788841 188.032995,64.2542897 C196.30288,69.4531831 188.444647,97.1134047 170.48114,126.035124 C162.276645,139.244577 153.496658,161.176779 145.467118,168.938946 C142.109939,172.184336 137.860574,174.068114 133.565909,175.023857 C121.775013,198.153842 113.196594,216.274174 107.83065,229.384855 C102.029814,243.558115 98.9429436,267.174501 98.5700393,300.234012 C98.551477,303.739844 98.3184249,306.096062 97.8708829,307.302666 C97.423341,308.50927 96.2580805,309.923001 94.3751012,311.543858 C91.2222515,308.526604 88.4256261,307.112873 85.9852252,307.302666 C83.5448242,307.492459 80.2820946,309.377433 76.1970364,312.957589 L87.4715996,247.456521 L76.1970364,308.716397 C73.0896749,310.601371 70.7591538,311.543858 69.205473,311.543858 C67.6517922,311.543858 65.088219,310.601371 61.5147533,308.716397 L94.5466798,164.353241 C98.4145621,148.190208 105.639178,132.874791 116.220526,118.406992 C126.221756,104.732385 142.176767,84.6172086 164.085559,58.0614639 Z" id="Combined-Shape"></path>
                                            </g>
                                            <g id="body_change_colour" transform="translate(85.947242, 35.209567)" fill="#EDB597">
                                                <path d="M8.78440182,58.1990951 C7.61166663,51.6959785 6.43196795,45.3683599 8.23613224,40.2291063 C17.4844213,13.8848852 46.399568,0.0955870299 72.5181396,0.0955870299 C93.94746,0.0955870299 119.569662,-2.23747436 130.773709,16.1489947 C135.708405,24.2471083 135.587125,40.7399481 135.156305,55.3242345 C138.368577,57.4786558 140.616891,62.4448256 140.616891,68.2269828 C140.616891,74.5311014 137.944341,79.8652632 134.263758,81.642971 C132.949836,95.3757613 129.151929,108.093959 122.537577,119.636257 C115.581577,131.774742 105.873691,140.615426 94.864019,145.665872 C95.3483472,147.083524 95.5870777,148.610883 95.5314048,150.195914 L94.6909967,174.122706 C94.4446045,181.137603 88.5250482,186.625716 81.4692977,186.38075 L64.3318491,185.785763 C57.2760985,185.540797 51.756023,179.655516 52.0024152,172.640619 L52.8428233,148.713827 C52.8699473,147.941596 52.965822,147.187867 53.1243949,146.458252 C32.0356864,137.25706 15.9075617,113.633822 11.4673638,85.774727 C10.6948373,86.1086063 9.88065924,86.2870664 9.03965728,86.2870664 C4.04719242,86.2870664 0,79.9981304 0,72.2403347 C0,64.6151904 3.90996897,58.4091028 8.78440182,58.1990951 Z" id="head"></path>
                                            </g>
                                            <g id="scarf_part_2" transform="translate(116.965674, 173.976686)">
                                                <path d="M62.0453681,43.489265 C72.66197,26.4991504 74.2603061,12.7382751 67.1442199,8.29165094 C62.54369,5.4169208 65.1300174,17.7261867 59.9853367,31.0693072 C57.1722403,38.3652865 43.0374508,43.1726461 39.2844524,49.178699 C39.2011876,49.3119506 31.3579274,85.233177 35.1186555,89.0534945 C40.8400028,94.8654975 55.6394639,53.7408547 62.0453681,43.489265 Z" id="Oval-10" fill="#8D4763"></path>
                                                <path d="M39.2900137,47.6364735 L39.2900137,49.1700173 C34.0249752,73.2132237 32.6463783,86.5097159 35.1542228,89.059494" id="Oval-10" stroke="#7FB7B5"></path>
                                                <path d="M10.7530565,0.828460607 C13.8761541,14.731459 17.3226465,24.3968304 21.0925338,29.8245749 C24.862421,35.2523195 30.9282476,41.189619 39.2900137,47.6364735 C37.3025247,48.8778198 35.9239278,49.5682034 35.1542228,49.7076246 C34.3845178,49.8470457 22.8043033,51.5039666 0.41357919,54.6783872 L10.7530565,0.828460607 Z" id="Path-11" fill="#8D4763"></path>
                                            </g>
                                            <g id="face" transform="translate(139.712524, 97.344098)">
                                                <path d="M36.4988305,8.58048281 C41.7026633,34.694829 51.4974654,43.8463523 27.9579466,42.8265651" id="Path-9" stroke="#55383C"></path>
                                                <path d="M12.9036677,53.6280176 C31.1039793,61.6534346 22.4596332,61.6470528 38.711003,56.5045467" id="Path-8" stroke="#CC5C61"></path>
                                                <g id="eyes" fill="#55383C">
                                                    <ellipse id="eye" cx="49.4640593" cy="4.29024141" rx="4.30122255" ry="4.29024141"></ellipse>
                                                    <ellipse id="eye" cx="4.30122255" cy="4.29024141" rx="4.30122255" ry="4.29024141"></ellipse>
                                                </g>
                                            </g>
                                            <g id="hair" transform="translate(75.607765, 0.000000)">
                                                <path d="M138.548996,64.2056817 C140.61202,66.6476402 141.990617,81.1456974 142.684787,107.699853 C144.75197,98.4072677 145.967494,92.1938146 146.33136,89.059494 C147.01995,83.128013 145.744261,80.7439984 146.33136,77.0468182 C146.535083,75.7638953 146.695724,73.7525141 146.820577,72.4902858 C147.167345,68.9845893 147.004272,64.1519036 146.33136,57.9922287 C140.080636,60.8768946 137.486515,62.9480456 138.548996,64.2056817 Z" id="Path-13" fill="#87857C"></path>
                                                <path d="M12.1834927,96.67394 C15.8398335,98.1178115 18.4648646,99.7829744 20.058586,101.669429 C22.1216107,104.111387 24.5341554,111.644598 27.2962201,124.269061 C27.6042596,110.680877 27.6042596,100.325122 27.2962201,93.201796 C26.9881807,86.07847 27.6774792,79.8650169 29.3641156,74.5614368 C22.3648905,76.8947562 17.5398011,79.0269167 14.8888474,80.9579183 C12.4037351,82.7681181 10.4310117,87.1283042 8.97067722,94.0384767 C8.87322326,94.4996201 11.1068097,96.2487631 12.1834927,96.67394 Z" id="Path-13" fill="#87857C"></path>
                                                <path d="M73.8194846,0 C53.6658467,4.97702011 40.2719751,9.80970583 33.6378697,14.4980572 C27.3580094,18.9360619 17.1402776,30.3082464 2.98467442,48.6146106 L2.98467375,48.6146101 C1.37881299,50.6913475 0.439317817,53.2056096 0.289818007,55.8265402 C-0.169933056,63.8865881 -0.0826916061,69.44117 0.551542358,72.4902858 C1.28693217,76.0257141 5.23887563,86.3814692 12.4073727,103.557551 C12.1645493,98.488153 12.3483967,95.0362347 12.9589151,93.201796 C13.5694335,91.3673574 15.6373289,87.9154391 19.1626015,82.8460409 C20.6138057,84.2995299 21.9924027,85.6802972 23.2983924,86.988343 C24.6043821,88.2963887 26.6722775,91.0579234 29.5020788,95.2729471 C28.28381,95.2407177 28.28381,92.479183 29.5020788,86.988343 C30.7203475,81.4975029 33.4775414,78.0455846 37.7736606,76.6325879 L41.9094515,86.988343 C43.112635,82.2246346 44.491232,78.7727162 46.0452424,76.6325879 C47.5992529,74.4924595 51.7350438,70.3501575 58.4526152,64.2056817 L52.2489288,80.7748899 C68.5137038,63.4887521 80.9210766,53.132997 89.471047,49.7076246 C98.0210175,46.2822522 109.049793,46.2822522 122.557374,49.7076246 C120.336719,52.2377765 118.958122,54.3089275 118.421583,55.9210776 C117.885045,57.5332277 117.195746,61.6755298 116.353688,68.3479838 C118.583045,64.9050967 120.306292,62.8339457 121.523427,62.1345307 C127.130053,58.9127367 131.029555,59.9083414 132.345309,60.0633797 C134.96162,60.3716655 137.656613,63.7742271 138.548996,66.2768327 C139.143918,67.9452365 141.901111,75.539457 146.820577,89.059494 L149.440015,41.4230205 C138.355583,24.3801312 129.394703,14.0243761 122.557374,10.3557551 C115.720046,6.68713417 106.069867,4.61598314 93.6068379,4.14230205 L73.8194846,0 Z" id="Path-12" fill="#FAF389"></path>
                                            </g>
                                        </g>
                                    </g>
                                </g>
                            </g>
                        </g>
                    </g>
                </g>
            </g>
        </g>
    </g>
</svg>