<svg width="1440" height="612" viewBox="0 0 1440 612" xmlns="http://www.w3.org/2000/svg" xmlns:xlink="http://www.w3.org/1999/xlink"><title>image_1</title><defs><path id="a" d="M0 0H1440V612H0z"/><linearGradient x1="0%" y1="0%" y2="100%" id="e"><stop stop-color="#9155C7" offset="0%"/><stop stop-color="#C965A6" offset="52.983%"/><stop stop-color="#FF8077" offset="100%"/></linearGradient><path id="c" d="M1458 0L1458 651 -1.13686838e-13 651 -1.13686838e-13 0z"/><filter x="-1%" y="-1.5%" width="101.9%" height="104.3%" filterUnits="objectBoundingBox" id="d"><feOffset dy="4" in="SourceAlpha" result="shadowOffsetOuter1"/><feGaussianBlur stdDeviation="4" in="shadowOffsetOuter1" result="shadowBlurOuter1"/><feComposite in="shadowBlurOuter1" in2="SourceAlpha" operator="out" result="shadowBlurOuter1"/><feColorMatrix values="0 0 0 0 0.0470588235 0 0 0 0 0 0 0 0 0 0.2 0 0 0 0.1 0" in="shadowBlurOuter1"/></filter><path d="M6.18 83.845c29.85 1.112 29.42 2.43 60.01-2.14 12.673-1.895 24.215-6.834 34.898-14.232 9.74-6.746 19.317-13.97 27.524-22.591C163.401 8.337 67.536-2.17 49.486.356 28.404 3.306 13.946 22.588 5.41 41.304-2.032 57.622.294 62.143.52 80.699l5.66 3.146z" id="g"/><path d="M24.296 267.428c-9.498-6.071-15.9-16.556-16.346-28.581-.22-5.933-8.729-97.119-7.544-160.745.58-31.131 5.847-55.564 10.955-60.38 5.876-5.541 9.873-9.942 22.222-13.14C49.88.362 84.643.64 103.469.362c30.604-.454 50.577.318 61.606 0 22.952-.664 44.873 8.344 53.89 17.36 20.305 20.301 14.968 40.823 14.966 44.905-.005 13.85.988 41.096 0 69.78-1.814 52.709-6.136 112.107-6.109 115.128.09 9.882-4.422 18.73-11.532 24.507v21.621l-13.663 12.983c-23.395 3.157-43.514 4.605-60.357 4.344-16.843-.261-43.43-2.433-79.757-6.517l-37.359-5.529-2.35-31.522 1.492.006z" id="i"/></defs><g fill="none" fill-rule="evenodd"><mask id="b" fill="#fff"><use xlink:href="#a"/></mask><use fill="#D8D8D8" xlink:href="#a"/><g mask="url(#b)"><g transform="translate(-8 -24)"><mask id="f" fill="#fff"><use xlink:href="#c"/></mask><g><use fill="#000" filter="url(#d)" xlink:href="#c"/><use fill-opacity=".66" fill="url(#e)" xlink:href="#c"/></g><g mask="url(#f)"><g transform="translate(-313 -562)"><g transform="rotate(-45 1778.557 -526.886)"><path d="M246.812 520.567c0 2.242-12.363 8.382-18.225 25.419-1.718 4.993-1.718 15.08 0 30.26-5.267 58.056-7.292 95.982-6.075 113.778 1.216 17.796 11.097 92.636 29.642 224.52h40.324c1.312-79.632 6.746-148.621 16.301-206.969 9.555-58.348 19.68-82.96 30.376-73.835l42.242 271.483h42.392c10.767-69.603 17.386-125.6 19.859-167.993 2.472-42.392 2.472-101.097 0-176.114-3.885-9.798-7.327-16.657-10.328-20.577-3.001-3.92-8.671-8.963-17.01-15.13-112.999-6.455-169.498-8.07-169.498-4.842z" fill="#573463"/><path d="M261.42 65.676c4.714-27.951 21.141-31.867 49.55-32.77 21.481-.684 42.983-.774 64.475-.59 10.907.093 25.184.013 34.603 7.266 10.958 8.437 10.25 36.507 10.414 45.191.411 21.74.608 111.992-2.633 143.296-.297 2.872-9.288 5.8-10.22 6.058-14.072 3.881-17.916 4.21-32.39 4.641-41.773 1.244-46.583.563-94.832-2.786-6.463-.449-14.692-3.81-18.666-8.97-3.629-4.714-3.812-7.86-3.803-14.197.07-51.455-3.539-105.723 6.234-156.997" fill="#6471E8"/><g transform="rotate(15 15.792 908.142)"><g transform="rotate(-15 719.396 94.549)"><path d="M220.583 21.597c10.3 8.716 26.344 167.853 33.193 279.249 1.489 24.212-16.933 45.047-41.145 46.536a43.924 43.924 0 0 1-4.224.056l-154.414-5.376c-8.831-.308-15.741-7.716-15.434-16.547a16 16 0 0 1 .12-1.469C52.061 219.142 58.635 164.001 58.4 158.624c-.342-7.835-8.851-118.811 7.44-131.814 27.49-21.941 145.296-13.208 154.743-5.213z" fill="#FEFEFE"/><path d="M220.583 21.597c10.3 8.716 9.517 125.05 16.367 236.446a5.714 5.714 0 0 1-11.214 1.865c-32.584-118.586-50.118-185.983-52.602-202.193-1.077-7.023 2.33-19.956 2.44-23.086.42-12.036-8.534-21.162-2.44-20.783 24.279 1.512 43.827 4.686 47.449 7.75z" fill="#E0AAAA"/><path d="M165.865.745c9.018 11.127 15.937 18.406 20.756 21.835 4.82 3.429 11.987 6.1 21.501 8.012L178.24 64.825l76.527 311.745-20.435 32.09-69.211-351.118c4.373-9.388 6.56-16.672 6.56-21.852s-1.94-16.828-5.816-34.945z" fill="#F67089"/><path d="M40.928 306.447H6.575c-2.353-39.67-4.206-63.29-5.56-70.86-1.353-7.57-1.353-19.565 0-35.986C19.38 115.308 30.638 66.956 34.79 54.543c4.151-12.412 17.477-23.418 39.978-33.018l-.005.304c10.6-4.322 25.982-6.817 42.837-8.01 4.45-.316 4.457 22.174 7.385 27.14C135.752 59.22 130 160.21 107.73 343.933c-4.86 10.684-8.263 17.823-10.206 21.416-2.155 3.984-7.26 6.895-15.317 8.734l-45.01-25.185 1.077-9.81a5.935 5.935 0 0 1-1.035-3.571c1.291-10.157 2.52-19.843 3.689-29.07z" fill="#E0AAAA"/><path d="M123.052 0c-2.79 6.48-3.763 11.574-2.918 15.284.845 3.709 5.464 14.626 13.858 32.75 2.869 74.878 2.869 130.19 0 165.936-2.869 35.746-11.864 92.513-26.987 170.302l-24.798-10.19c8.057-1.838 13.162-4.75 15.317-8.733 2.154-3.983 5.315-16.355 9.481-37.117l21.152-270.009c-10.04-13.362-15.388-23.794-16.046-31.295-.658-7.501 2.99-16.477 10.94-26.928z" fill="#F67089"/><path d="M216.119 18.99c22.584 9.635 35.959 20.682 40.125 33.14 4.166 12.458 15.466 60.989 33.898 145.591 1.36 16.482 1.36 28.521 0 36.119-1.358 7.598-2.85 37.572-4.477 89.923H222.43L216.12 18.99z" fill="#E0AAAA"/></g><g transform="translate(54.565 .114)" fill="#E8E8E8"><path d="M10.276 109.042c-3.95.143-8.05-3.787-9.565-9.449-1.636-6.116.35-11.992 4.442-13.347-1.186-5.241-2.478-10.82-3.606-16.832C.655 64.66 33.104 47.327 65.643 34.37c2.165-.862 5.453-33.156 7.61-33.974 2.327-.884 9.94 29.059 12.216 28.652 13.391-2.39 27.841-15.076 29.739-7.983 1.897 7.094 23.396 51.644 23.396 78.162 0 22.165-13.09 37.048-31.912 45.234l5.11 22.168c1.54 6.687-2.622 13.36-9.299 14.904l-17.502 4.047c-6.677 1.544-13.34-2.626-14.88-9.313l-5.55-24.076a12.692 12.692 0 0 1-.022-.098c-31.704-.537-46.64-16.337-54.273-43.051z"/><path d="M301.344 428.896c5.997 25.444 8.338 42.841 7.026 52.192-.895 6.377-3.745 13.256-8.55 20.64-4.12 6.332-12.594 8.125-18.927 4.004a13.68 13.68 0 0 1-3.533-3.327c-1.165-1.573-4.168-8.816-9.01-21.728l1.769 11.574a5.525 5.525 0 0 1-4.125 6.195 4.587 4.587 0 0 1-5.644-3.76l-8.025-52.654 49.02-13.136z"/></g><g transform="translate(105.642 55.37)"><path d="M35.942 23.458c4.785 25.967 6.918 14.039-4.492 17.374-.81.237 1.019 1.326 1.528 1.989" stroke="#55383C" stroke-width=".5"/><path d="M39.43 48.779c-11.62 6.283-5.527 5.102-18.227 3.828" stroke="#CC5C61" stroke-width=".5"/><g fill="#55383C"><ellipse cx="49.845" cy="4.468" rx="4.464" ry="4.468"/><ellipse cx="4.464" cy="16.011" rx="4.464" ry="4.468"/></g></g></g><path d="M325.767 152.36c-11.533 0-20.882-9.273-20.882-20.712 0-11.438 9.35-20.711 20.882-20.711 11.533 0 20.883 9.273 20.883 20.711 0 11.439-9.35 20.712-20.883 20.712zm20.884-20.712c.06-3.285 1.706-5.917 3.728-5.917 2.021 0 3.667 2.632 3.727 5.917m20.884 20.712c-11.533 0-20.882-9.273-20.882-20.712 0-11.438 9.349-20.711 20.882-20.711 11.533 0 20.882 9.273 20.882 20.711 0 11.439-9.349 20.712-20.882 20.712z" stroke="#8F8DC2"/><g transform="rotate(-8 260.34 -1733.62)"><mask id="h" fill="#fff"><use xlink:href="#g"/></mask><use fill="#8F8DC2" xlink:href="#g"/><path d="M0 34.068c22.91-6.852 45.212-16.388 68.73-20.555 14.136-2.505 28.69 1.13 43.032.752 5.027-.133 9.946-1.523 14.919-2.285M0 48.904c25.543-6.852 50.408-16.388 76.63-20.555 15.76-2.505 31.989 1.13 47.978.752 5.604-.133 11.09-1.524 16.634-2.285M0 65.291c25.543-6.851 50.408-16.388 76.63-20.555 15.76-2.505 31.989 1.131 47.978.752 5.604-.133 11.09-1.523 16.634-2.285M0 84.66c25.543-6.852 50.408-16.388 76.63-20.556 15.76-2.505 31.989 1.131 47.978.752 5.604-.133 11.09-1.523 16.634-2.284M-7.28 17.619C18.263 10.767 43.128 1.23 69.35-2.937c15.76-2.504 31.988 1.132 47.978.752 5.604-.133 11.089-1.523 16.633-2.284" stroke="#504D6B" mask="url(#h)"/></g></g><g transform="matrix(1 0 0 -1 855.723 854.575)"><path d="M254.39 269.663c-5.29-8.71-10.163-17.903-14.622-27.58-3.384-7.344 14.672-26.346 17.546-75.485.609-10.41-4.265-31.217-14.622-62.419.07-13.444.07-23.363 0-29.758-.093-8.481 1.513-19.172 0-25.403-3.224-13.279-11.754-22.714-25.588-28.306-2.857 1.134-4.563 2.102-5.118 2.903-1.476 2.13-1.752 6.4-1.462 7.984.272 1.488 1.622 4.235 4.386 7.258 1.222 1.336 4.147 3.03 8.773 5.08 4.864 8.86 7.057 16.602 6.58 23.226-.476 6.625-3.888 15.818-10.235 27.58-14.626-.9-25.592-4.046-32.9-9.435-7.307-5.389-13.4-14.824-18.277-28.306-3.934-11.46-8.564-19.203-13.89-23.226-5.327-4.023-11.907-4.75-19.74-2.177-3.776 2.908-5.482 5.086-5.118 6.532.204.809.965 4.357 2.924 6.532 1.029 1.142 3.222 2.594 6.58 4.355 11.448 6.86 18.515 12.91 21.202 18.145 2.687 5.236 2.2 12.01-1.462 20.323-2.947 6.844-6.359 12.408-10.235 16.693-9.93 10.974-27.152 24.578-31.438 32.661-6.794 12.817-7.526 23.946-2.193 33.387-7.55 5.64-11.206 9.027-10.966 10.162.112.534-.412 6.288 2.193 9.435 1.093 1.32 5.686 2.08 8.773 4.355 1.611 1.187 3.804 3.607 6.58 7.258 1.018 13.891 2.724 23.085 5.118 27.58 2.393 4.497 9.704 12.964 21.933 25.404v26.855l105.278-11.613z" fill="#30A1D2"/><g transform="translate(135.413 107.7)"><path d="M66.083 91.788c-19.875 9.774-34.942 13.551-52.35-1.213" stroke="#CC5C61" stroke-width="2"/><g transform="translate(37.51 31.446)"><ellipse fill="#FFF" cx="16.591" cy="16.438" rx="16.591" ry="16.438"/><ellipse fill="#27221B" cx="16.832" cy="17.377" rx="6.492" ry="7.021"/></g><g transform="translate(0 25.729)"><ellipse fill="#FFF" cx="12.263" cy="12.15" rx="12.263" ry="12.15"/><ellipse fill="#27221B" cx="11.253" cy="11.674" rx="5.05" ry="5.461"/></g><g transform="translate(28.854)"><ellipse fill="#FFF" cx="9.378" cy="9.291" rx="9.378" ry="9.291"/><ellipse fill="#27221B" cx="8.762" cy="9.145" rx="4.626" ry="5.003"/></g></g><path d="M300.498 260.869c6.078 56.187 8.376 97.158 6.895 122.913-1.481 25.754-8.16 98.256-20.033 217.504v29.778c14.864 8.065 25.102 14.823 30.713 20.274 5.612 5.45 10.208 15.166 13.79 29.144l-62.054 5.069-7.847-26.9-6.57-22.519c-26.836-39.865-52.118-63.307-75.843-70.326-23.726-7.02-41.687 10.932-53.884 53.854v60.822l-97.782 3.802c2.673-9.644 5.39-15.98 8.148-19.007 2.759-3.028 7.355-4.717 13.79-5.069 12.51 4.915 21.495 6.605 26.953 5.069 5.457-1.537 12.98-7.872 22.565-19.007-22.975-112.888-35.475-186.337-37.5-220.35-1.482-24.904.765-73.163 6.74-144.777l13.79-36.747c55.448 11.355 97.37 18.105 125.766 20.25 28.397 2.144 59.184.885 92.363-3.777z" fill="#FF7D68"/><ellipse fill="#DCEBF0" opacity=".37" cx="196.416" cy="151.194" rx="151.99" ry="151.194"/><g transform="translate(284.302 244.396)"><ellipse fill="#FFEA80" cx="41.844" cy="46.778" rx="41.844" ry="41.581"/><path d="M88.266 45.479c0-22.965-16.773-44.83-39.883-44.83C25.273.65 0 4.324 0 27.288 0 50.252 88.266 68.443 88.266 45.48z" fill="#FF7D68"/></g></g><g transform="scale(1 -1) rotate(-60 -98.347 -1193.424)"><g transform="translate(15.822 67.35)" fill="#B1D159"><path d="M236.67 71.075v101.029c0 39.232-31.643 71.035-70.676 71.035s-70.676-31.803-70.676-71.035V71.074C95.318 32.043 126.961.4 165.994.4s70.675 31.643 70.675 70.676z"/><ellipse cx="299.733" cy="559.144" rx="30.551" ry="35.62"/></g><g transform="translate(73.177)"><g transform="translate(70.87 116.06)"><ellipse fill="#FFF" cx="38.757" cy="38.763" rx="38.242" ry="38.492"/><ellipse fill="#27221B" cx="40.456" cy="37.908" rx="9.348" ry="10.264"/></g><g transform="matrix(-1 0 0 1 76.483 47.9)"><path fill="#B1D159" d="M0.692441399 33.808615L15.2337108 19.8874206 22.8505662 23.8649047 15.2337108 52.3702076z"/><ellipse fill="#A0BE53" cx="23.543" cy="13.258" rx="13.849" ry="13.258"/></g><g transform="translate(144.468 47.9)"><path fill="#B1D159" d="M0.692441399 33.808615L15.2337108 19.8874206 22.8505662 23.8649047 15.2337108 52.3702076z"/><ellipse fill="#A0BE53" cx="23.543" cy="13.258" rx="13.849" ry="13.258"/></g><path d="M217.552 100v166.225c0 60.828-48.7 110.14-108.776 110.14C48.701 376.364 0 327.052 0 266.224V100C0 44.772 44.772 0 100 0h17.552c55.229 0 100 44.772 100 100z" fill="#DCEBF0" opacity=".456"/><path d="M113.875 220.711c23.277 11.063 34.969-6.694 35.692-27.397" stroke="#CC5C61" stroke-width="2"/></g><path d="M284.12 465.986c-5.741 45.025-8.64 78.267-8.694 99.727-.055 21.459 2.708 41.12 8.29 58.983 16.763 5.69 28.328 7.843 34.695 6.457 6.366-1.386 17.403-8.458 33.109-21.216-2.643-35.064-6.287-60.994-10.933-77.79-4.645-16.797-14.616-40.094-29.913-69.893l-26.553 3.732z" fill="#FAC859"/><path d="M282.818 322.88h31.644v145.672c-7.032 4.57-12.306 6.855-15.822 6.855s-8.79-2.285-15.822-6.855V322.881z" fill="#4FAEB2"/><g transform="matrix(-1 0 0 1 342.15 252.475)"><ellipse fill="#FBA945" cx="51.551" cy="54.031" rx="48.114" ry="48.069"/><path d="M104.82 52.186C104.82 25.868 85.556.81 59.01.81S0-4.905 0 21.412c0 26.318 104.82 57.09 104.82 30.774z" fill="#FAC859"/></g><g transform="translate(0 243.646)"><path d="M135.715 254.14v21.123a8 8 0 0 0 8 8h86.614a8 8 0 0 0 8-8v-38.382L135.715 254.14z" fill="#4F6679"/><path d="M61.209 119.355c19.547 23.613 33.236 41.8 41.068 54.563 7.831 12.762 20.665 39.475 38.501 80.138 17.302 5.115 30.421 7.673 39.357 7.673s26.048-2.558 51.335-7.673c24.647-36.348 42.044-65.05 52.191-86.106 10.147-21.056 20.414-49.758 30.801-86.106-7.312-24.638-14.442-41.12-21.39-49.448-6.947-8.326-19.495-15.431-37.645-21.313-30.61 7.935-53.14 11.345-67.592 10.23C173.383 20.2 148.001 13.095 111.688 0v21.313c-40.842-7.78-70.217-11.19-88.125-10.23-17.909.96-25.609 6.36-23.1 16.198l60.746 92.074z" fill="#163A4D"/></g><g transform="translate(0 251.57)"><ellipse fill="#FBA945" cx="54.912" cy="61.559" rx="54.912" ry="54.719"/><path d="M115.83 59.85C115.83 29.628 93.817.854 63.491.854 33.165.855 0 5.689 0 35.909 0 66.13 115.83 90.07 115.83 59.85z" fill="#FAC859"/></g><path d="M252.557 249.589c-34.292 82.578-62.022 142.042-83.19 178.39-21.167 36.35-37.013 51.713-47.536 46.092-.327-2.833-.327-4.825 0-5.975.326-1.15 1.741-5.133 4.244-11.95l-13.582-29.873c-7.544 31.45-9.525 51.65-5.942 60.601s14.9 12.081 33.955 9.39c39.99-33.784 66.588-62.804 79.794-87.062 13.205-24.258 30.748-76.325 52.63-156.199l-20.373-3.414z" fill="#F9F082"/><path d="M142.91 522.948c-7.648 58.455-14.794 101.771-21.44 129.95-6.644 28.177-18.65 66.08-36.018 113.705-19.674 11.441-31.395 20.275-35.161 26.503-3.767 6.227-3.767 16.772 0 31.632 26.24 10.195 45.78 14.47 58.619 12.824 12.838-1.645 33.32-11.05 61.443-28.212-3.21-49.1-6.354-85.863-9.433-110.286-3.08-24.424-6.51-39.813-10.291-46.167 1.746-30.296 5.176-51.1 10.29-62.41 5.116-11.31 17.408-25.274 36.877-41.891l44.595 88.058c-9.107 35.575-14.538 61.793-16.294 78.653-1.756 16.86-1.756 42.793 0 77.799 29.73 13.34 52.027 20.464 66.892 21.373 14.864.91 39.162-3.365 72.895-12.824-6.675-23.057-14.107-38.73-22.298-47.021-8.19-8.29-19.338-11.425-33.446-9.404-21.438-20.133-34.874-37.517-40.306-52.15-5.433-14.635-5.433-33.444 0-56.426l-32.589-113.706h-94.334z" fill="#163A4D"/></g><g transform="translate(800.63 917.136)"><path d="M304.935 142.407c-5.92 28.273-24.21 50.719-47.633 58.718.185 1.082.281 2.194.281 3.33v17.243c0 8.876-7.184 16.071-16.046 16.071-1.19 0-2.377-.133-3.538-.396-11.452-2.593-19.584-12.785-19.584-24.544v-8.375c0-1.213.11-2.4.32-3.552-23.128-8.193-41.147-30.508-47.002-58.546a13.18 13.18 0 0 1-2.193.183c-7.243 0-13.113-5.88-13.113-13.133 0-7.254 5.87-13.134 13.113-13.134.124 0 .248.002.371.005 2.704-42.175 32.308-75.395 68.429-75.395 36.119 0 65.721 33.217 68.428 75.39h.031c7.242 0 13.113 5.88 13.113 13.134 0 7.253-5.87 13.133-13.113 13.133-.633 0-1.255-.045-1.864-.132z" fill="#885B3E"/><path d="M147.469 244.59c-24.561 9.723-38.98 20.98-43.256 33.773-2.13 6.373 1.643 29.746 0 50.487-1.102 13.926-4.394 38.828-9.877 74.708-1.244 15.099-1.244 26.129 0 33.09 1.244 6.96 4.537 14.351 9.877 22.173l-4.768 55.604h53.838v-10.1l4.063-259.734h-9.877z" fill="#18C9CF"/><path d="M328.665 244.59c24.562 9.723 38.98 20.98 43.256 33.773 2.13 6.373-1.642 29.746 0 50.487 1.102 13.926 4.395 38.828 9.877 74.708 1.244 15.099 1.244 26.129 0 33.09-1.244 6.96-4.536 14.351-9.877 22.173l4.695 55.604H333.19l-.017-13.835-14.215-121.082-.17-134.917h9.877z" fill="#18C9CF"/><g transform="translate(126.012 224.123)"><path d="M26.566 262.717C15.69 257.398 8.105 246.418 7.626 233.6 7.417 227.945-.746 141.002.39 80.336.945 50.654 6 27.36 10.9 22.766 36.069-.826 141.467.977 163.485.345c22.019-.632 33.925 8.219 42.575 16.815 19.479 19.357 18.354 44.529 18.353 48.42-.005 13.205.947 39.185 0 66.534-1.74 50.256-5.887 106.89-5.86 109.771.085 9.446-4.245 17.902-11.064 23.41v20.572l-11.062-2.348H41.197l-14.63 2.348v-23.151z" fill="#00859E"/><path d="M108.954 9.917c-.595-.14-.595 1.585 0 5.178s1.334 6.335 2.219 8.226c7.91 17.234 8.748 24.012 8.893 43.382 1.544 205.393 19.672 189.317 19.765 202.735.026 3.694-1.21 7.29-1.97 10.905-.168.802-.379 1.624-.808 2.322-.095.154-.254-.26-.38-.39" stroke="#81F4DD"/></g><g transform="translate(155.643)"><path d="M67.778 165.424c4.297 1.752 7.59 2.776 9.878 3.07 2.288.295 6.943.295 13.964 0" stroke="#CC5C61"/><g transform="translate(53.765 116.89)" fill="#27221B"><ellipse cx="59.653" cy="5.235" rx="4.768" ry="5.117"/><ellipse cx="5.498" cy="5.235" rx="4.768" ry="5.117"/></g><path d="M173.022 69.957c15.787-19.526 15.35-49.003-4.145-64.815-13.054-10.588-24.582-3.361-35.514 8.432 2.786-7.039-17.845 3.409-24.032-1.61-11.066-8.974-30.304-.585-39.265 10.499-5.719 7.073-1.588 1.748-3.743 0-8.406-6.818-12.855-1.86-19.662 6.558-3.453 4.271-7.043-7.876-10.558-3.41-1.676-5.71-12.186 3.41-18.392 3.41C6.895 29.021.34 41.726.34 52.56c0 .428.006.85.018 1.264.628 18.075 2.103 32.516 4.069 43.425.739 4.1 1.761 8.894 3.068 14.38-.003 2.687.615 4.941 1.7 6.9 1.933 7.612 4.317 16.324 7.153 26.137.615-4.711 1.636-8.52 3.065-11.428 1.204-2.45 3.57-5.38 7.099-8.788a13.65 13.65 0 0 0 8.228-12.533c0-3.586-1.381-6.848-3.64-9.284 8.886-1.858 15.56-9.749 15.56-19.2 0-6.875-3.53-12.923-8.875-16.426 15.777 3.72 35.846 6.9 41.913 11.82 12.469 10.113 37.761 11.772 60.626 6.457.508 2.309 3.833 4.965 4.087 8.212.617 7.876 6.066 21.155 5.45 37.84 4.13-20.045.95-32.641 1.362-35.793.33-2.522.395-6.739.197-12.65 9.35-3.072 17.153-7.433 21.601-12.935z" fill="#27221B"/><path d="M66.173 144.98c8.576 2.537 14.78 3.572 18.61 3.107 3.497-.424 7.807-1.344 11.374-3.106 2.297-1.136 4.317-4.997 3.102-6.214-1.37-1.373-3.622-2.06-6.204-8.284-.875-2.112-1.91-6.254-3.102-12.427" stroke="#363636"/><path d="M60.966 214.157c9.5 2.423 16.708 3.635 21.628 3.635 4.92 0 12.13-1.212 21.628-3.635v18.415c-11.396 2.114-19.91 3.002-25.545 2.666-5.634-.337-13.354-2.194-23.16-5.573l5.45-15.508z" fill="#81F4DD"/></g></g><g transform="rotate(45 -379.892 1185.613)"><path d="M246.418 539.135c0 2.14-11.905 8.003-17.55 24.271-1.655 4.768-1.655 14.4 0 28.894-5.072 55.435-7.022 91.65-5.85 108.642 1.17 16.993 10.531 88.265 28.08 213.817h39.781c.94-75.658 6.01-141.344 15.21-197.058 9.202-55.714 18.952-79.215 29.251-70.502l40.951 258.892h40.367c10.49-66.237 16.924-119.595 19.305-160.074 2.38-40.479 2.38-96.533 0-168.164-3.74-9.356-7.055-15.905-9.945-19.648-2.89-3.743-8.35-8.558-16.38-14.447-108.814-6.164-163.22-7.705-163.22-4.623z" fill="#CFDBC3"/><g transform="rotate(15 -568.538 827.363)"><g transform="rotate(-15 301.3 37.4)"><path d="M58.5 8.927C39.966 18.68 28.469 30.266 24.012 43.682c-2.22 6.685-9.655 38.503-11.367 60.256-1.15 14.605-4.582 40.723-10.296 78.354-1.297 15.836-1.297 27.404 0 34.705 1.296 7.3 3.072 34.491 5.325 81.573h56.122v-10.593L58.501 8.927z" fill="#163747"/><path d="M236.167 6.878c21.14 8.41 34.49 17.058 40.05 25.943 15.14 24.197 14.6 61.766 15.337 71.117 1.149 14.605 4.581 40.723 10.296 78.354 1.297 15.836 1.297 27.404 0 34.705-1.297 7.3-3.097 34.491-5.402 81.573h-52.565l-7.538-141.501-.178-141.502V6.878z" fill="#163747"/><g transform="translate(35.696)"><mask id="j" fill="#fff"><use xlink:href="#i"/></mask><use fill="#163747" xlink:href="#i"/><path d="M182.643 311.397c.991-4.463 1.473-8.167 1.447-11.113-.846-93.88-2.78-156.85-3.592-187.964-1.612-61.88-5.09-94.982-5.208-98.141-.212-5.654-1.661-11.873-4.35-18.658l16.795 1.747C197.798 9.822 200.011 104.756 199.8 112.32c-.477 17.022 3.852 150.551 3.678 189.762-.03 6.83-1.73 9.69-2.026 9.706l-18.81-.39zm-119.325-2.695l-18.609-.712c-.288-.016-1.944-2.846-1.974-9.607-.17-38.81 4.779-171.734 4.315-188.582-.207-7.486 2.234-102.147 12.039-114.572l16.636-1.78C72.735.664 71.137 7.069 70.93 12.665c-.115 3.126-3.504 35.89-5.075 97.137-.79 30.796-3.405 93.883-4.23 186.803-.025 2.916.539 6.948 1.692 12.098z" stroke="#67B1AC" stroke-width="2" fill="#67B1AC" mask="url(#j)"/></g></g><path d="M88.787 363.916c7.193 23.921 13.557 39.44 19.092 46.557 3.768 4.843 9.375 9.174 16.821 12.992 6.386 3.275 14.216.752 17.49-5.633a12.993 12.993 0 0 0 1.35-4.48c.209-1.858-.773-9.285-2.943-22.282l4.07 10.45a5.246 5.246 0 0 0 6.334 3.14 4.395 4.395 0 0 0 2.896-5.789l-18.418-48.344-46.692 13.389z" fill="#EFDD93"/></g><g transform="translate(304.08 133.744)"><g fill="#4C2F1C"><ellipse cx="4.05" cy="7.597" rx="4.05" ry="7.597"/><ellipse cx="51.588" cy="7.597" rx="4.05" ry="7.597"/></g><path d="M20.907 7.189c2.451 14.037-.717 17.118-1.298 31.846-.029.726 1.108 1.11 1.815 1.132 2.538.076 5.037-.996 7.571-.852 3.93.225 7.728 1.646 11.652 1.948 2.4.185.964-4.635-2.632-7.312" stroke="#979797"/><path d="M15.494 57.884c6.837 8.179 25.67 13.697 30.527.11" stroke="#CC5C61"/></g><g transform="translate(242.15 .204)"><g transform="matrix(-1 0 0 1 186.491 .44)"><path d="M97.307 258.49c4.804.297 9.545.63 14.177.991-2.3 5.078-8.702 9.894-17.38 12.88a5.96 5.96 0 0 1-2.252.719c-5.22 1.538-11.148 2.424-17.43 2.356-19.185-.207-35.94-6.578-38.726-15.858 4.92-.13 10.788-1.09 15.945-1.08l2.201-.009.25-18.393c-21.475-9.493-37.9-33.897-42.422-62.679a6.116 6.116 0 0 1-2.47.53c-5.081 0-9.2-6.495-9.2-14.506 0-8.012 4.119-14.506 9.2-14.506 1.216 0 2.377.372 3.44 1.048 1.128-4.036 2.22-8.037 1.99-11.657-.192-3.038-3.993-5.705-3.101-8.284 9.412-27.205 35.692-41.104 62.273-41.104 21.808 0 47.884-2.41 59.286 16.578 5.022 8.363 4.899 25.395 4.46 40.456 3.27 2.224 5.558 7.353 5.558 13.324 0 6.51-2.72 12.019-6.466 13.855-1.337 14.181-5.202 27.315-11.934 39.235-6.86 12.148-16.352 21.098-27.13 26.387l-.27 19.716z" fill="#EFDD93"/><g transform="matrix(-1 0 0 1 108.046 150.705)"><path d="M13.043 52.03c6.93 8.09 26.022 13.55 30.945.108" stroke="#CC5C61"/><ellipse fill="#4C2F1C" cx="4.859" cy="8.282" rx="4.105" ry="7.516"/><ellipse fill="#4C2F1C" cx="53.049" cy="8.282" rx="4.105" ry="7.516"/><path d="M23.055 2.177c2.485 13.887-.727 16.934-1.316 31.504-.029.719 1.123 1.1 1.84 1.12 2.573.075 5.106-.985 7.675-.842 3.983.222 7.834 1.628 11.812 1.927 2.433.183.977-4.586-2.668-7.234" stroke="#979797"/></g><path d="M85.559 115.381c-17.656 0-36.762-.957-51.112-4.748-4.878 5.67-8.913 11.682-12.104 18.037-.604 1.203 1.748 15.464 0 19.911-3.027 7.703-10.703 7.303-12.276 12.176-1.193-24.002-1.738-38.695-1.637-44.08.101-5.384.756-18.132 1.965-38.244V70.98c0-22.375 33.11-33.708 75.164-33.708 1.819 0 3.623.029 5.41.085 7.224-1.472 13.663-3.553 19.317-6.243C122.461 25.323 133.268 15.284 142.71 1V0c.213.002.426.01.64.022 18.78 1.064 41.936 38.172 41.936 68.957 0 29.658-21.49 42.784-39.842 44.035-2.089.308-4.278.577-6.54.811.375 4.142.661 7.362.858 9.66.218 2.543-2.462 36.575-5.074 29.868-1.75-4.492-4.004-26.379-4.997-28.248-2.16-4.07-4.612-7.451-7.354-10.145-13.418.553-27.15.421-36.778.421z" fill="#FFC194"/></g><g transform="translate(35.04 133.13)"><path d="M23.739 12.656a1.5 1.5 0 0 0-1.5 1.5v21.478a6.5 6.5 0 0 0 6.5 6.5h29.477a6.5 6.5 0 0 0 6.5-6.5V15.156a2.5 2.5 0 0 0-2.5-2.5H23.74zm58.694 0a1.5 1.5 0 0 0-1.5 1.5v21.478a6.5 6.5 0 0 0 6.5 6.5h29.478a6.5 6.5 0 0 0 6.5-6.5V15.156a2.5 2.5 0 0 0-2.5-2.5H82.433z" stroke="#333"/><path d="M82.05 14.333h.557v10.885h-2.326c-.705-2.484-3.775-4.354-7.456-4.354-3.681 0-6.752 1.87-7.457 4.354h-2.326V14.333h.557c1.343 1.269 4.966 2.177 9.226 2.177 4.26 0 7.883-.908 9.226-2.177z" fill="#333"/></g></g></g><g transform="rotate(135 377.564 588.098)"><g transform="matrix(-1 0 0 1 306.998 453.882)"><path d="M204.724 0c8.836 29.5 17.016 55.382 24.54 77.645 7.526 22.263 12.523 50.592 14.992 84.99-.612 36.54-3.02 66.687-7.226 90.443-4.205 23.756-9.695 47.707-16.47 71.854 1.095 11.083 1.095 18.714 0 22.891-1.095 4.178-4.262 8.629-9.502 13.354-6.066 29.543-9.867 51.375-11.402 65.495-1.536 14.12-4.28 52.484-8.235 115.093h-26.605c-1.175-17.304-2.442-30.445-3.801-39.424-1.36-8.98-6.638-39.077-15.836-90.294-.097-18.356 1.381-32.557 4.434-42.604 3.052-10.047 10.654-25.732 22.804-47.055-6.638-42.47-10.438-76.601-11.402-102.394-.964-25.793-.964-56.945 0-93.455h-10.954c-21.809 45.14-36.378 79.053-43.708 101.74-7.33 22.687-13.032 51.514-17.104 86.479-1.669 12.106-3.358 20.585-5.067 25.435-1.71 4.85-4.877 10.149-9.502 15.897-7.547 45.34-12.614 78.405-15.203 99.196-2.59 20.791-5.123 48.77-7.602 83.935l-27.872 2.544c-1.855-19.493-3.544-34.118-5.068-43.875C12.307 455.445 6.698 417.967 8.8 391.063c2.827-36.181 13.807-61.616 32.94-76.305-8.142-88.39-9.981-156.217-5.516-203.48 4.465-47.263 15.594-77.785 33.388-91.566L204.724 0z" fill="#3F5F85"/><path d="M204.696 0c8.836 29.5 17.017 55.382 24.541 77.645 4.573 13.53 11.115 35.44 13.438 65.69 1 13.019 1 36.023 0 69.014l-212.733 5.309c2.823-65.692 4.234-98.96 4.234-99.804 0-47.478 8.275-80.192 24.825-98.142L204.696 0z" fill="#8D4763"/></g><g transform="translate(15.639 185.238)"><path d="M220.583 22.632c10.3 8.669 26.344 166.931 33.193 277.715 1.488 24.076-16.822 44.8-40.898 46.289-1.4.086-2.805.105-4.207.057L54.01 341.337c-8.832-.306-15.743-7.713-15.437-16.544a16 16 0 0 1 .12-1.482C52.066 219.054 58.636 164.253 58.4 158.907c-.342-7.792-8.851-118.159 7.44-131.09 27.49-21.82 145.296-13.135 154.743-5.185z" fill="#FBE7E9"/><path d="M74.767 22.561c-22.5 9.547-35.827 20.493-39.978 32.837-4.15 12.344-15.409 60.431-33.774 144.26-1.353 16.331-1.353 28.26 0 35.79 1.354 7.528 3.207 31.018 5.56 70.47h63.004L74.767 22.56z" fill="#8295B5"/><g transform="translate(36.963 1.154)" fill="#445B67"><path d="M60.56 363.342c-2.154 3.961-7.26 6.857-15.316 8.686L.234 346.98l1.077-9.756c-.693-1.008 6.974-66.38 9.966-90.322l10.05-91.091c-1.029-16.753-7.918-116.871 7.55-129.15 9.375-7.441 29.255-11.335 51.76-12.92 4.448-.313 4.456 22.054 7.384 26.992 10.768 18.16 5.016 118.596-17.254 301.309-4.86 10.625-8.263 17.725-10.206 21.3z"/><path d="M86.089 0c-2.79 6.444-3.763 11.51-2.918 15.2.845 3.688 5.464 14.545 13.858 32.57 2.87 74.466 2.87 129.474 0 165.024-2.869 35.55-11.864 92.005-26.986 169.367l-24.799-10.133c8.057-1.83 13.162-4.725 15.317-8.686 2.154-3.961 5.315-16.266 9.482-36.913L91.194 57.903C81.154 44.615 75.806 34.24 75.148 26.78c-.658-7.46 2.99-16.387 10.94-26.78z"/></g><g transform="matrix(-1 0 0 1 292.4 .33)"><g transform="translate(0 20.598)" fill="#8295B5"><path d="M74.767.81c-22.5 9.546-35.827 20.492-39.978 32.836C30.64 45.99 19.38 94.077 1.015 177.906c-1.353 16.331-1.353 28.26 0 35.79 1.354 7.527 3.207 31.017 5.56 70.47h63.004L74.767.808z"/><path d="M1.015 213.695c1.354 7.528 3.428 40.796 6.223 99.802 15.017-5.493 26.046-8.239 33.086-8.239 7.04 0 9.108-12.359 6.204-37.076C15.3 226.927.128 208.765 1.015 213.695z"/></g><g transform="translate(37.222)" fill="#445B67"><path d="M60.329 364.13c-2.154 3.963-7.26 6.859-15.317 8.689L0 347.764l1.076-9.759c-.693-1.008 6.975-66.4 9.967-90.35l10.05-91.12c-1.029-16.758-7.918-116.907 7.55-129.19C38.02 19.903 57.9 16.008 80.406 14.423c4.45-.314 4.458 22.06 7.386 27 10.768 18.165 5.016 118.632-17.255 301.403-4.861 10.628-8.263 17.73-10.207 21.305z"/><path d="M86.208 0c-2.78 6.46-3.75 11.54-2.908 15.238.842 3.698 5.447 14.582 13.814 32.652 2.86 74.652 2.86 129.798 0 165.437-2.86 35.638-11.827 92.235-26.9 169.79l-24.72-10.158c8.03-1.834 13.12-4.736 15.268-8.707 2.147-3.971 5.298-16.307 9.451-37.006L91.298 58.048c-10.008-13.322-15.34-23.722-15.995-31.2-.656-7.48 2.98-16.429 10.905-26.848z"/></g></g></g><g transform="rotate(-16 714.267 98.295)" fill="#8D4763" stroke="#7FB7B5"><path d="M103.91 20.438C115.214 7.595 126.03.783 136.357 0c3.139 9.113 4.856 15.429 5.154 18.945.348 4.129-3.667 7.99-3.037 10.655 1.858 7.867 6.09 18.909 12.697 33.124-9.865 15.803-16.214 27.549-19.046 35.238-2.832 7.69-28.933 84.038-78.3 229.048-13.984 1.75-23.86 1.75-29.628 0-5.769-1.75-7.65-4.804-5.643-9.162l64.192-176.19-68.425 181.828c-2.85 3.422-4.878 5.433-6.081 6.034-1.203.601-3.409.704-6.616.309-2.167-26.776-2.167-47.919 0-63.429 2.166-15.51 7.81-34.774 16.93-57.79 8.988-29.769 16.748-51.851 23.278-66.248 6.53-14.397 27.223-55.038 62.076-121.924z"/><path d="M164.086 58.061c7.34-16.61 12.191-36.558 17.963-32.93 5.191 3.264 7.034 21.953 3.439 38.314.937.068 1.789.334 2.545.81 8.27 5.198.412 32.858-17.552 61.78-8.204 13.21-16.984 35.142-25.014 42.904-3.357 3.245-7.606 5.13-11.901 6.085-11.791 23.13-20.37 41.25-25.735 54.36-5.801 14.174-8.888 37.79-9.261 70.85-.019 3.506-.252 5.862-.7 7.069-.447 1.206-1.612 2.62-3.495 4.24-3.153-3.016-5.95-4.43-8.39-4.24-2.44.19-5.703 2.074-9.788 5.655l11.275-65.501-11.275 61.26c-3.107 1.884-5.438 2.827-6.992 2.827-1.553 0-4.117-.943-7.69-2.828l33.032-144.363c3.868-16.163 11.092-31.478 21.674-45.946 10-13.675 25.956-33.79 47.865-60.346z"/></g><path d="M94.732 93.409c-1.173-6.503-2.353-12.831-.549-17.97 9.249-26.345 38.164-40.134 64.282-40.134 21.43 0 47.052-2.333 58.256 16.054 4.935 8.098 4.813 24.59 4.383 39.175 3.212 2.154 5.46 7.12 5.46 12.903 0 6.304-2.672 11.638-6.353 13.416-1.314 13.732-5.112 26.45-11.726 37.993-6.956 12.138-16.664 20.979-27.674 26.03.485 1.417.723 2.944.668 4.53l-.84 23.926c-.247 7.015-6.167 12.503-13.222 12.258l-17.138-.595c-7.056-.245-12.576-6.13-12.33-13.145l.841-23.927c.027-.772.123-1.526.282-2.255-21.09-9.201-37.217-32.825-41.657-60.684a6.085 6.085 0 0 1-2.428.513c-4.993 0-9.04-6.29-9.04-14.047 0-7.625 3.91-13.831 8.785-14.041z" fill="#EDB597"/><g transform="translate(116.966 173.977)"><path d="M62.045 43.49c10.617-16.99 12.215-30.752 5.1-35.198-4.601-2.875-2.015 9.434-7.16 22.777-2.813 7.296-16.948 12.104-20.7 18.11-.084.133-7.927 36.054-4.166 39.874 5.721 5.812 20.52-35.312 26.926-45.564z" fill="#8D4763"/><path d="M39.29 47.636v1.534c-5.265 24.043-6.644 37.34-4.136 39.89" stroke="#7FB7B5"/><path d="M10.753.828c3.123 13.903 6.57 23.569 10.34 28.997 3.77 5.427 9.835 11.365 18.197 17.811-1.987 1.242-3.366 1.932-4.136 2.072-.77.139-12.35 1.796-34.74 4.97L10.754.828z" fill="#8D4763"/></g><g transform="translate(139.713 97.344)"><path d="M36.499 8.58c5.204 26.115 14.998 35.266-8.541 34.247" stroke="#55383C"/><path d="M12.904 53.628c18.2 8.025 9.556 8.02 25.807 2.877" stroke="#CC5C61"/><g fill="#55383C"><ellipse cx="49.464" cy="4.29" rx="4.301" ry="4.29"/><ellipse cx="4.301" cy="4.29" rx="4.301" ry="4.29"/></g></g><g transform="translate(75.608)"><path d="M138.549 64.206c2.063 2.442 3.442 16.94 4.136 43.494 2.067-9.293 3.282-15.506 3.646-18.64.689-5.932-.587-8.316 0-12.013.204-1.283.365-3.294.49-4.557.346-3.505.183-8.338-.49-14.498-6.25 2.885-8.844 4.956-7.782 6.214zM12.183 96.674c3.657 1.444 6.282 3.109 7.876 4.995 2.063 2.442 4.475 9.976 7.237 22.6.308-13.588.308-23.944 0-31.067-.308-7.124.381-13.337 2.068-18.64-7 2.333-11.824 4.465-14.475 6.396-2.485 1.81-4.458 6.17-5.918 13.08-.098.462 2.136 2.21 3.212 2.636z" fill="#87857C"/><path d="M73.82 0C53.665 4.977 40.271 9.81 33.637 14.498c-6.28 4.438-16.498 15.81-30.653 34.117A13 13 0 0 0 .29 55.827c-.46 8.06-.373 13.614.262 16.663.735 3.536 4.687 13.891 11.855 31.068-.242-5.07-.059-8.522.552-10.356.61-1.835 2.678-5.287 6.204-10.356 1.45 1.454 2.83 2.834 4.135 4.142 1.306 1.308 3.374 4.07 6.204 8.285-1.218-.032-1.218-2.794 0-8.285 1.218-5.49 3.976-8.942 8.272-10.355l4.135 10.355c1.204-4.763 2.582-8.215 4.136-10.355 1.554-2.14 5.69-6.283 12.408-12.427l-6.204 16.569C68.514 63.489 80.92 53.133 89.47 49.708c8.55-3.426 19.579-3.426 33.086 0-2.22 2.53-3.599 4.6-4.135 6.213-.537 1.612-1.226 5.755-2.068 12.427 2.229-3.443 3.952-5.514 5.17-6.213 5.606-3.222 9.506-2.227 10.821-2.072 2.617.309 5.312 3.711 6.204 6.214.595 1.668 3.352 9.262 8.272 22.782l2.619-47.636c-11.084-17.043-20.045-27.399-26.883-31.067-6.837-3.669-16.487-5.74-28.95-6.214L73.819 0z" fill="#FAF389"/></g></g></g></g></g></g></g></svg>